solid Visualization Toolkit generated SLA File
 facet normal 0.2923241928737606 0.70573281012623956 -0.64535863438248453
  outer loop
   vertex 8.2320995330810547 5.912841796875 2.9739956855773926
   vertex 8.9549722671508789 4.0083723068237305 1.2187957763671875
   vertex 6.4671998023986816 5.038841724395752 1.2187957763671875
  endloop
 endfacet
 facet normal -0.25005356320766564 -0.60368282291583375 -0.75699423038984925
  outer loop
   vertex 1.364799976348877 -4.5597414970397949 -4.1591038703918457
   vertex -1.1229726076126099 -3.5292725563049316 -4.1591038703918457
   vertex 1.364799976348877 -2.9939768314361572 -5.4077596664428711
  endloop
 endfacet
 facet normal -0.25005359222070123 -0.60368276795764442 -0.75699426463383457
  outer loop
   vertex -1.1229726076126099 -3.5292725563049316 -4.1591038703918457
   vertex -0.015809627249836922 -2.4221096038818359 -5.4077596664428711
   vertex 1.364799976348877 -2.9939768314361572 -5.4077596664428711
  endloop
 endfacet
 facet normal 0.87822791280155432 -0.2232571173003875 -0.42293261017678274
  outer loop
   vertex 11.750341415405273 2.3945999145507813 2.9739956855773926
   vertex 11.813776016235352 1.4212000370025635 3.6195559501647949
   vertex 10.944841384887695 1.4212000370025635 1.8151960372924805
  endloop
 endfacet
 facet normal 0.60368273223126345 0.25005364135416769 -0.75699427689469212
  outer loop
   vertex 3.8525724411010742 1.446272611618042 -4.1591038703918457
   vertex 4.8830418586730957 -1.0414999723434448 -4.1591038703918457
   vertex 2.7454094886779785 0.3391096293926239 -5.4077596664428711
  endloop
 endfacet
 facet normal 0.60368270969822513 0.2500535684262184 -0.75699431895406122
  outer loop
   vertex 4.8830418586730957 -1.0414999723434448 -4.1591038703918457
   vertex 3.3172767162322998 -1.0414999723434448 -5.4077596664428711
   vertex 2.7454094886779785 0.3391096293926239 -5.4077596664428711
  endloop
 endfacet
 facet normal 0.30005110213869596 0.7243875486308895 -0.62067061755321151
  outer loop
   vertex 5.5085725784301758 2.2956726551055908 -2.3672041893005371
   vertex 3.8525724411010742 1.446272611618042 -4.1591038703918457
   vertex 3.0208001136779785 3.3261415958404541 -2.3672041893005371
  endloop
 endfacet
 facet normal 0.64188273361648673 0.26587659624285326 -0.71923305809406535
  outer loop
   vertex 6.5390419960021973 -0.19210000336170197 -2.3672041893005371
   vertex 3.8525724411010742 1.446272611618042 -4.1591038703918457
   vertex 5.5085725784301758 2.2956726551055908 -2.3672041893005371
  endloop
 endfacet
 facet normal 0.30005117131239673 0.7243875480301708 -0.6206705848136318
  outer loop
   vertex 3.8525724411010742 1.446272611618042 -4.1591038703918457
   vertex 1.364799976348877 2.4767417907714844 -4.1591038703918457
   vertex 3.0208001136779785 3.3261415958404541 -2.3672041893005371
  endloop
 endfacet
 facet normal -0.603682779042644 0.25005357396211958 -0.75699426182509544
  outer loop
   vertex -2.1534416675567627 -1.0414999723434448 -4.1591038703918457
   vertex -1.1229726076126099 1.446272611618042 -4.1591038703918457
   vertex -0.58767682313919067 -1.0414999723434448 -5.4077596664428711
  endloop
 endfacet
 facet normal -0.60368276912704122 0.25005357919667587 -0.75699426800342362
  outer loop
   vertex -1.1229726076126099 1.446272611618042 -4.1591038703918457
   vertex -0.015809627249836922 0.3391096293926239 -5.4077596664428711
   vertex -0.58767682313919067 -1.0414999723434448 -5.4077596664428711
  endloop
 endfacet
 facet normal 0.25005358775457404 0.6036827487274391 -0.75699428144468128
  outer loop
   vertex 1.364799976348877 2.4767417907714844 -4.1591038703918457
   vertex 2.7454094886779785 0.3391096293926239 -5.4077596664428711
   vertex 1.364799976348877 0.9109768271446228 -5.4077596664428711
  endloop
 endfacet
 facet normal 0.25005360445146735 0.60368275388639003 -0.75699427181516588
  outer loop
   vertex 1.364799976348877 2.4767417907714844 -4.1591038703918457
   vertex 3.8525724411010742 1.446272611618042 -4.1591038703918457
   vertex 2.7454094886779785 0.3391096293926239 -5.4077596664428711
  endloop
 endfacet
 facet normal -0.85265786537567212 0.35318245490694838 -0.38501521808742006
  outer loop
   vertex -1.7374016046524048 2.0607016086578369 -2.3547441959381104
   vertex -3.0223755836486816 -1.0414999723434448 -2.3547441959381104
   vertex -3.5021724700927734 0.6577724814414978 0.26659584045410156
  endloop
 endfacet
 facet normal -0.25005359417054823 0.60368275799337734 -0.75699427193599034
  outer loop
   vertex -1.1229726076126099 1.446272611618042 -4.1591038703918457
   vertex 1.364799976348877 2.4767417907714844 -4.1591038703918457
   vertex -0.015809627249836922 0.3391096293926239 -5.4077596664428711
  endloop
 endfacet
 facet normal -0.25005357225758695 0.60368275122278214 -0.75699428457374274
  outer loop
   vertex 1.364799976348877 2.4767417907714844 -4.1591038703918457
   vertex 1.364799976348877 0.9109768271446228 -5.4077596664428711
   vertex -0.015809627249836922 0.3391096293926239 -5.4077596664428711
  endloop
 endfacet
 facet normal -0.34963934420621545 0.84410364799685544 -0.40649890580596681
  outer loop
   vertex -0.94837254285812378 6.5968723297119141 1.9898958206176758
   vertex -1.5628015995025635 7.211301326751709 3.7942557334899902
   vertex 1.5393999814987183 8.4962759017944336 3.7942557334899902
  endloop
 endfacet
 facet normal -0.88562298818050478 -0.18377998024780773 0.42649365958516772
  outer loop
   vertex -5.8852758407592773 0.12250000238418579 7.8798441886901855
   vertex -5.0163416862487793 0.12250000238418579 9.6842041015625
   vertex -5.7149758338928223 0.90960001945495605 8.5726442337036133
  endloop
 endfacet
 facet normal -0.88250449633110717 -0.2014143046216208 0.42499187268601707
  outer loop
   vertex -5.8852758407592773 0.12250000238418579 7.8798441886901855
   vertex -5.1391415596008301 -0.74409997463226318 9.0185041427612305
   vertex -5.0163416862487793 0.12250000238418579 9.6842041015625
  endloop
 endfacet
 facet normal -0.92289936166443054 -0.38227747102316834 -0.046051095399758789
  outer loop
   vertex -4.7231016159057617 -3.8463015556335449 5.2114558219909668
   vertex -6.0080757141113281 -0.74409997463226318 5.2114558219909668
   vertex -5.4015755653381348 -1.8300000429153442 2.070955753326416
  endloop
 endfacet
 facet normal -0.84410369471771063 0.34963916975323139 -0.40649895884021786
  outer loop
   vertex -3.0223755836486816 -1.0414999723434448 -2.3547441959381104
   vertex -1.1229726076126099 1.446272611618042 -4.1591038703918457
   vertex -2.1534416675567627 -1.0414999723434448 -4.1591038703918457
  endloop
 endfacet
 facet normal -0.84410370034510784 0.3496392037063713 -0.40649891795092269
  outer loop
   vertex -1.7374016046524048 2.0607016086578369 -2.3547441959381104
   vertex -1.1229726076126099 1.446272611618042 -4.1591038703918457
   vertex -3.0223755836486816 -1.0414999723434448 -2.3547441959381104
  endloop
 endfacet
 facet normal 0.38160846474811749 -0.92128461508467585 0.074897514250243477
  outer loop
   vertex 1.2964999675750732 -5.671175479888916 2.1762442588806152
   vertex 4.3987016677856445 -4.3862018585205078 2.1762442588806152
   vertex 3.1317999362945557 -4.6901755332946777 4.8921442031860352
  endloop
 endfacet
 facet normal -0.09178223283449613 0.22158192074865452 -0.97081279046644797
  outer loop
   vertex 1.364799976348877 0.9109768271446228 -5.4077596664428711
   vertex 1.364799976348877 -1.0414999723434448 -5.8534002304077148
   vertex -0.015809627249836922 0.3391096293926239 -5.4077596664428711
  endloop
 endfacet
 facet normal 0.15839659258178573 -0.98326249994637693 -0.090029859811515345
  outer loop
   vertex 1.364799976348877 -5.428675651550293 -2.3547441959381104
   vertex 1.2964999675750732 -5.671175479888916 0.17355585098266602
   vertex -1.0144000053405762 -6.2171754837036133 2.070955753326416
  endloop
 endfacet
 facet normal 0.25005360600230186 -0.60368276132098952 -0.7569942653739925
  outer loop
   vertex 3.8525724411010742 -3.5292725563049316 -4.1591038703918457
   vertex 1.364799976348877 -2.9939768314361572 -5.4077596664428711
   vertex 2.7454094886779785 -2.4221096038818359 -5.4077596664428711
  endloop
 endfacet
 facet normal 0.25005357444055176 -0.60368282110710114 -0.75699422812177053
  outer loop
   vertex 1.364799976348877 -4.5597414970397949 -4.1591038703918457
   vertex 1.364799976348877 -2.9939768314361572 -5.4077596664428711
   vertex 3.8525724411010742 -3.5292725563049316 -4.1591038703918457
  endloop
 endfacet
 facet normal -0.60368277485637267 -0.25005357617209845 -0.75699426443352569
  outer loop
   vertex -1.1229726076126099 -3.5292725563049316 -4.1591038703918457
   vertex -0.58767682313919067 -1.0414999723434448 -5.4077596664428711
   vertex -0.015809627249836922 -2.4221096038818359 -5.4077596664428711
  endloop
 endfacet
 facet normal -0.603682779042644 -0.25005357396211958 -0.75699426182509544
  outer loop
   vertex -2.1534416675567627 -1.0414999723434448 -4.1591038703918457
   vertex -0.58767682313919067 -1.0414999723434448 -5.4077596664428711
   vertex -1.1229726076126099 -3.5292725563049316 -4.1591038703918457
  endloop
 endfacet
 facet normal 0.27883626724032334 -0.88970682479087726 0.36148596375518971
  outer loop
   vertex -1.62090003490448 -5.1312756538391113 7.214144229888916
   vertex -1.0144000053405762 -6.2171754837036133 4.0736441612243652
   vertex 1.0349999666213989 -5.4140758514404297 4.4694442749023438
  endloop
 endfacet
 facet normal -0.34963911839774836 -0.84410366838430073 -0.40649905769412531
  outer loop
   vertex 1.364799976348877 -5.428675651550293 -2.3547441959381104
   vertex -1.1229726076126099 -3.5292725563049316 -4.1591038703918457
   vertex 1.364799976348877 -4.5597414970397949 -4.1591038703918457
  endloop
 endfacet
 facet normal -0.34963923060784097 -0.84410368698202087 -0.40649892256107606
  outer loop
   vertex -1.7374016046524048 -4.1437015533447266 -2.3547441959381104
   vertex -1.1229726076126099 -3.5292725563049316 -4.1591038703918457
   vertex 1.364799976348877 -5.428675651550293 -2.3547441959381104
  endloop
 endfacet
 facet normal 0.091782240953064489 -0.22158191415269698 -0.9708127912043909
  outer loop
   vertex 2.7454094886779785 -2.4221096038818359 -5.4077596664428711
   vertex 1.364799976348877 -2.9939768314361572 -5.4077596664428711
   vertex 1.364799976348877 -1.0414999723434448 -5.8534002304077148
  endloop
 endfacet
 facet normal 0.6036827105130308 -0.25005356336597817 -0.75699431997579536
  outer loop
   vertex 3.3172767162322998 -1.0414999723434448 -5.4077596664428711
   vertex 4.8830418586730957 -1.0414999723434448 -4.1591038703918457
   vertex 2.7454094886779785 -2.4221096038818359 -5.4077596664428711
  endloop
 endfacet
 facet normal 0.6036827349586199 -0.25005364248387602 -0.756994274346528
  outer loop
   vertex 4.8830418586730957 -1.0414999723434448 -4.1591038703918457
   vertex 3.8525724411010742 -3.5292725563049316 -4.1591038703918457
   vertex 2.7454094886779785 -2.4221096038818359 -5.4077596664428711
  endloop
 endfacet
 facet normal 0.22158192702414398 0.091782240340861659 -0.97081278832444284
  outer loop
   vertex 3.3172767162322998 -1.0414999723434448 -5.4077596664428711
   vertex 1.364799976348877 -1.0414999723434448 -5.8534002304077148
   vertex 2.7454094886779785 0.3391096293926239 -5.4077596664428711
  endloop
 endfacet
 facet normal 0.22158192706443708 -0.09178223837630807 -0.97081278850097819
  outer loop
   vertex 1.364799976348877 -1.0414999723434448 -5.8534002304077148
   vertex 3.3172767162322998 -1.0414999723434448 -5.4077596664428711
   vertex 2.7454094886779785 -2.4221096038818359 -5.4077596664428711
  endloop
 endfacet
 facet normal 0.34963924175079569 -0.844103681446848 -0.40649892447066416
  outer loop
   vertex 4.4670014381408691 -4.1437015533447266 -2.3547441959381104
   vertex 1.364799976348877 -5.428675651550293 -2.3547441959381104
   vertex 3.8525724411010742 -3.5292725563049316 -4.1591038703918457
  endloop
 endfacet
 facet normal 0.72860035465370743 -0.30179608880627279 -0.61486636269983741
  outer loop
   vertex 4.8830418586730957 -1.0414999723434448 -4.1591038703918457
   vertex 10.944841384887695 1.4212000370025635 1.8151960372924805
   vertex 9.914372444152832 -1.0665725469589233 1.8151960372924805
  endloop
 endfacet
 facet normal 0.41660115116468138 0.6099208930340454 -0.67412163968293948
  outer loop
   vertex 4.8830418586730957 -1.0414999723434448 -4.1591038703918457
   vertex 6.5390419960021973 -0.19210000336170197 -2.3672041893005371
   vertex 10.944841384887695 1.4212000370025635 1.8151960372924805
  endloop
 endfacet
 facet normal 0.64188273561868103 0.26587660503487476 -0.71923305305707941
  outer loop
   vertex 4.8830418586730957 -1.0414999723434448 -4.1591038703918457
   vertex 3.8525724411010742 1.446272611618042 -4.1591038703918457
   vertex 6.5390419960021973 -0.19210000336170197 -2.3672041893005371
  endloop
 endfacet
 facet normal -0.88921741003080268 0.35120704935201796 -0.29316549282540177
  outer loop
   vertex -4.7231016159057617 2.3581016063690186 5.2114558219909668
   vertex -4.6003017425537109 3.2247016429901123 5.8771557807922363
   vertex -4.1166014671325684 1.2722015380859375 2.070955753326416
  endloop
 endfacet
 facet normal 0.0917822388509415 0.22158192062525681 -0.970812789925808
  outer loop
   vertex 2.7454094886779785 0.3391096293926239 -5.4077596664428711
   vertex 1.364799976348877 -1.0414999723434448 -5.8534002304077148
   vertex 1.364799976348877 0.9109768271446228 -5.4077596664428711
  endloop
 endfacet
 facet normal 0.34963913310364553 -0.84410366343965404 -0.40649905531290809
  outer loop
   vertex 1.364799976348877 -5.428675651550293 -2.3547441959381104
   vertex 1.364799976348877 -4.5597414970397949 -4.1591038703918457
   vertex 3.8525724411010742 -3.5292725563049316 -4.1591038703918457
  endloop
 endfacet
 facet normal -0.22158192075221592 0.091782232660852461 -0.97081279048205149
  outer loop
   vertex -0.015809627249836922 0.3391096293926239 -5.4077596664428711
   vertex 1.364799976348877 -1.0414999723434448 -5.8534002304077148
   vertex -0.58767682313919067 -1.0414999723434448 -5.4077596664428711
  endloop
 endfacet
 facet normal -0.87305524147123936 -0.4876213134591183 0
  outer loop
   vertex -4.1166014671325684 -4.9322018623352051 4.0736441612243652
   vertex -4.7231016159057617 -3.8463015556335449 5.2114558219909668
   vertex -4.1166014671325684 -4.9322018623352051 2.070955753326416
  endloop
 endfacet
 facet normal -0.92289937283140577 -0.38227744626888671 -0.046051077094203606
  outer loop
   vertex -4.7231016159057617 -3.8463015556335449 5.2114558219909668
   vertex -5.4015755653381348 -1.8300000429153442 2.070955753326416
   vertex -4.1166014671325684 -4.9322018623352051 2.070955753326416
  endloop
 endfacet
 facet normal 0.67135712391780566 -0.60123814573676027 -0.43335009435309296
  outer loop
   vertex 4.4670014381408691 -4.1437015533447266 -2.3547441959381104
   vertex 3.8525724411010742 -3.5292725563049316 -4.1591038703918457
   vertex 9.914372444152832 -1.0665725469589233 1.8151960372924805
  endloop
 endfacet
 facet normal 0.38151647776893177 -0.92106212622129657 -0.078036765895906551
  outer loop
   vertex 1.364799976348877 -5.428675651550293 -2.3547441959381104
   vertex 4.4670014381408691 -4.1437015533447266 -2.3547441959381104
   vertex 4.3987016677856445 -4.3862018585205078 0.17355585098266602
  endloop
 endfacet
 facet normal -0.091782234936618967 -0.22158191427609467 -0.97081279174503088
  outer loop
   vertex 1.364799976348877 -2.9939768314361572 -5.4077596664428711
   vertex -0.015809627249836922 -2.4221096038818359 -5.4077596664428711
   vertex 1.364799976348877 -1.0414999723434448 -5.8534002304077148
  endloop
 endfacet
 facet normal -0.22158192079250902 -0.091782230696299039 -0.97081279065858705
  outer loop
   vertex -0.015809627249836922 -2.4221096038818359 -5.4077596664428711
   vertex -0.58767682313919067 -1.0414999723434448 -5.4077596664428711
   vertex 1.364799976348877 -1.0414999723434448 -5.8534002304077148
  endloop
 endfacet
 facet normal -0.57340680095239105 -0.69596208948751559 -0.43225155941617638
  outer loop
   vertex -3.5021724700927734 -4.317772388458252 0.26659584045410156
   vertex -1.7374016046524048 -4.1437015533447266 -2.3547441959381104
   vertex -4.1166014671325684 -4.9322018623352051 2.070955753326416
  endloop
 endfacet
 facet normal 0.38151633785219269 -0.92106220101451874 -0.078036567160156861
  outer loop
   vertex 1.2964999675750732 -5.671175479888916 0.17355585098266602
   vertex 1.364799976348877 -5.428675651550293 -2.3547441959381104
   vertex 4.3987016677856445 -4.3862018585205078 0.17355585098266602
  endloop
 endfacet
 facet normal 0.38268333168253726 -0.92387957421535916 0
  outer loop
   vertex 1.2964999675750732 -5.671175479888916 2.1762442588806152
   vertex 1.2964999675750732 -5.671175479888916 0.17355585098266602
   vertex 4.3987016677856445 -4.3862018585205078 2.1762442588806152
  endloop
 endfacet
 facet normal 0.2661819161862144 0.72898896284198789 -0.63065226515885764
  outer loop
   vertex 8.2320995330810547 5.912841796875 2.9739956855773926
   vertex 6.4671998023986816 5.038841724395752 1.2187957763671875
   vertex 4.0271725654602051 6.5968723297119141 1.9898958206176758
  endloop
 endfacet
 facet normal 0.61998255084961396 0.25680509333369778 -0.74139920466633669
  outer loop
   vertex 9.3790769577026367 1.4212000370025635 0.56654024124145508
   vertex 6.5390419960021973 -0.19210000336170197 -2.3672041893005371
   vertex 8.8072099685668945 2.801809549331665 0.56654024124145508
  endloop
 endfacet
 facet normal 0.72860032368312355 -0.30179621563035836 -0.61486633714982453
  outer loop
   vertex 3.8525724411010742 -3.5292725563049316 -4.1591038703918457
   vertex 4.8830418586730957 -1.0414999723434448 -4.1591038703918457
   vertex 9.914372444152832 -1.0665725469589233 1.8151960372924805
  endloop
 endfacet
 facet normal 0.31904474768127755 0.85870152866849481 -0.401051285547597
  outer loop
   vertex 5.4564013481140137 10.190601348876953 9.8689565658569336
   vertex 8.2320995330810547 6.7817754745483398 4.778355598449707
   vertex 4.8419723510742188 9.5761728286743164 8.0645961761474609
  endloop
 endfacet
 facet normal 0.24708001819045089 -0.91003370011849383 0.33285151232892091
  outer loop
   vertex -1.62090003490448 -5.1312756538391113 7.214144229888916
   vertex 1.0349999666213989 -5.4140758514404297 4.4694442749023438
   vertex 3.1317999362945557 -4.6901755332946777 4.8921442031860352
  endloop
 endfacet
 facet normal 0.92387952140806318 -0.38268345917064184 0
  outer loop
   vertex 11.334300994873047 -0.70760172605514526 6.7810440063476563
   vertex 12.619275093078613 2.3945999145507813 4.778355598449707
   vertex 12.619275093078613 2.3945999145507813 6.7810440063476563
  endloop
 endfacet
 facet normal 0.8441037215510766 0.34963915717418131 0.40649891393969401
  outer loop
   vertex 11.750341415405273 2.3945999145507813 8.5854034423828125
   vertex 12.619275093078613 2.3945999145507813 6.7810440063476563
   vertex 10.71987247467041 4.8823723793029785 8.5854034423828125
  endloop
 endfacet
 facet normal 0.47535160101136642 -0.86368702953885212 -0.1675875007937179
  outer loop
   vertex 4.3987016677856445 -4.3862018585205078 0.17355585098266602
   vertex 6.1230015754699707 -3.2943015098571777 -0.56284421682357788
   vertex 10.528801918029785 -1.6810015439987183 3.6195559501647949
  endloop
 endfacet
 facet normal 0.67135714497089127 -0.60123805317374279 -0.43335019016077658
  outer loop
   vertex 10.528801918029785 -1.6810015439987183 3.6195559501647949
   vertex 4.4670014381408691 -4.1437015533447266 -2.3547441959381104
   vertex 9.914372444152832 -1.0665725469589233 1.8151960372924805
  endloop
 endfacet
 facet normal -0.41660038390082665 -0.6099218141288234 0.67412128047072428
  outer loop
   vertex 6.1230015754699707 -3.2943015098571777 -0.56284421682357788
   vertex 4.4670014381408691 -4.1437015533447266 -2.3547441959381104
   vertex 10.528801918029785 -1.6810015439987183 3.6195559501647949
  endloop
 endfacet
 facet normal 0.60368288101682155 0.25005355133145513 -0.75699418797884921
  outer loop
   vertex 10.944841384887695 1.4212000370025635 1.8151960372924805
   vertex 9.3790769577026367 1.4212000370025635 0.56654024124145508
   vertex 8.8072099685668945 2.801809549331665 0.56654024124145508
  endloop
 endfacet
 facet normal 0.87822814557057793 -0.22325686862999633 -0.42293225809483048
  outer loop
   vertex 11.750341415405273 2.3945999145507813 2.9739956855773926
   vertex 12.619275093078613 2.3945999145507813 4.778355598449707
   vertex 11.813776016235352 1.4212000370025635 3.6195559501647949
  endloop
 endfacet
 facet normal 0.29750943629471244 0.71825142356073057 -0.62896981475154001
  outer loop
   vertex 5.5085725784301758 2.2956726551055908 -2.3672041893005371
   vertex 3.0208001136779785 3.3261415958404541 -2.3672041893005371
   vertex 6.4671998023986816 5.038841724395752 1.2187957763671875
  endloop
 endfacet
 facet normal 0.66525735573456524 0.27555857796189481 -0.69390209738310515
  outer loop
   vertex 11.750341415405273 2.3945999145507813 2.9739956855773926
   vertex 10.944841384887695 1.4212000370025635 1.8151960372924805
   vertex 9.914372444152832 3.9089725017547607 1.8151960372924805
  endloop
 endfacet
 facet normal 0.29750955489167924 0.71825137751695822 -0.62896981123353357
  outer loop
   vertex 8.9549722671508789 4.0083723068237305 1.2187957763671875
   vertex 5.5085725784301758 2.2956726551055908 -2.3672041893005371
   vertex 6.4671998023986816 5.038841724395752 1.2187957763671875
  endloop
 endfacet
 facet normal -0.88351303083508603 0.35759768085475396 -0.3025369778917974
  outer loop
   vertex -6.0080757141113281 -0.74409997463226318 5.2114558219909668
   vertex -5.8852758407592773 0.12250000238418579 5.8771557807922363
   vertex -4.1166014671325684 1.2722015380859375 2.070955753326416
  endloop
 endfacet
 facet normal -0.88045047119831465 0.36906938378747384 -0.29764871529606851
  outer loop
   vertex -5.8852758407592773 0.12250000238418579 5.8771557807922363
   vertex -4.7231016159057617 2.3581016063690186 5.2114558219909668
   vertex -4.1166014671325684 1.2722015380859375 2.070955753326416
  endloop
 endfacet
 facet normal 0.22158190062392133 0.091782273614420262 0.9708127912043899
  outer loop
   vertex 2.3541998863220215 7.0883998870849609 15.37030029296875
   vertex 4.3066768646240234 7.0883998870849609 14.924659729003906
   vertex 3.734809398651123 8.4690093994140625 14.924659729003906
  endloop
 endfacet
 facet normal 0.25005363602676955 -0.60368286526682546 0.75699417256213242
  outer loop
   vertex 9.6127090454101563 1.0139902830123901 9.8340597152709961
   vertex 8.2320995330810547 0.44212308526039124 9.8340597152709961
   vertex 10.71987247467041 -0.093172632157802582 8.5854034423828125
  endloop
 endfacet
 facet normal 0.25005360618529848 -0.60368292179427396 0.75699413734034704
  outer loop
   vertex 8.2320995330810547 0.44212308526039124 9.8340597152709961
   vertex 8.2320995330810547 -1.1236417293548584 8.5854034423828125
   vertex 10.71987247467041 -0.093172632157802582 8.5854034423828125
  endloop
 endfacet
 facet normal 0.28968745068702301 -0.86233649711503069 0.41527935977824876
  outer loop
   vertex 5.2681999206542969 -2.9248416423797607 7.0676040649414063
   vertex 3.1317999362945557 -3.8212416172027588 6.6965041160583496
   vertex 5.2681999206542969 -3.7937755584716797 5.2632441520690918
  endloop
 endfacet
 facet normal 0.62400417287958287 0.78142100831041628 0
  outer loop
   vertex 5.4564013481140137 10.190601348876953 11.871644020080566
   vertex 11.334300994873047 5.4968013763427734 6.7810440063476563
   vertex 5.4564013481140137 10.190601348876953 9.8689565658569336
  endloop
 endfacet
 facet normal 0.84410372495052188 -0.34963914706387633 0.40649891557678053
  outer loop
   vertex 10.71987247467041 -0.093172632157802582 8.5854034423828125
   vertex 12.619275093078613 2.3945999145507813 6.7810440063476563
   vertex 11.750341415405273 2.3945999145507813 8.5854034423828125
  endloop
 endfacet
 facet normal 0.6036828273923901 -0.25005356880631785 0.75699422497054336
  outer loop
   vertex 11.750341415405273 2.3945999145507813 8.5854034423828125
   vertex 9.6127090454101563 1.0139902830123901 9.8340597152709961
   vertex 10.71987247467041 -0.093172632157802582 8.5854034423828125
  endloop
 endfacet
 facet normal 0.60368280568020893 -0.25005349853504816 0.75699426549773385
  outer loop
   vertex 9.6127090454101563 1.0139902830123901 9.8340597152709961
   vertex 11.750341415405273 2.3945999145507813 8.5854034423828125
   vertex 10.184576034545898 2.3945999145507813 9.8340597152709961
  endloop
 endfacet
 facet normal 0.61998245782704964 0.25680520285785174 -0.74139924451800487
  outer loop
   vertex 6.5390419960021973 -0.19210000336170197 -2.3672041893005371
   vertex 5.5085725784301758 2.2956726551055908 -2.3672041893005371
   vertex 8.8072099685668945 2.801809549331665 0.56654024124145508
  endloop
 endfacet
 facet normal 0.2923241372779376 0.70573281117552189 -0.64535865841794093
  outer loop
   vertex 10.71987247467041 4.8823723793029785 2.9739956855773926
   vertex 8.9549722671508789 4.0083723068237305 1.2187957763671875
   vertex 8.2320995330810547 5.912841796875 2.9739956855773926
  endloop
 endfacet
 facet normal 0.59310716648074835 0.30835955016383476 -0.74373266493541579
  outer loop
   vertex 10.944841384887695 1.4212000370025635 1.8151960372924805
   vertex 6.5390419960021973 -0.19210000336170197 -2.3672041893005371
   vertex 9.3790769577026367 1.4212000370025635 0.56654024124145508
  endloop
 endfacet
 facet normal 0.62208892049597575 -0.066997592638420894 0.78007480255217043
  outer loop
   vertex 10.184576034545898 2.3945999145507813 9.8340597152709961
   vertex 11.750341415405273 2.3945999145507813 8.5854034423828125
   vertex 5.8724417686462402 7.0883998870849609 13.676004409790039
  endloop
 endfacet
 facet normal 0.34963925563143533 0.84410373044043763 -0.40649881079534883
  outer loop
   vertex 8.2320995330810547 6.7817754745483398 4.778355598449707
   vertex 10.71987247467041 4.8823723793029785 2.9739956855773926
   vertex 8.2320995330810547 5.912841796875 2.9739956855773926
  endloop
 endfacet
 facet normal 0.34963926251733696 0.8441037315817066 -0.40649880250275144
  outer loop
   vertex 8.2320995330810547 6.7817754745483398 4.778355598449707
   vertex 11.334300994873047 5.4968013763427734 4.778355598449707
   vertex 10.71987247467041 4.8823723793029785 2.9739956855773926
  endloop
 endfacet
 facet normal 0.39545706271481973 -0.81995119101549152 0.41387649836786344
  outer loop
   vertex 11.334300994873047 -0.70760172605514526 6.7810440063476563
   vertex 10.71987247467041 -0.093172632157802582 8.5854034423828125
   vertex 9.914372444152832 -1.0665725469589233 7.4266042709350586
  endloop
 endfacet
 facet normal 0.84410374142102362 -0.34963924643936711 0.4064987959002353
  outer loop
   vertex 11.334300994873047 -0.70760172605514526 6.7810440063476563
   vertex 12.619275093078613 2.3945999145507813 6.7810440063476563
   vertex 10.71987247467041 -0.093172632157802582 8.5854034423828125
  endloop
 endfacet
 facet normal 0.38268339748779151 -0.92387954695793595 0
  outer loop
   vertex 7.4265999794006348 -2.9659755229949951 5.6222443580627441
   vertex 7.4265999794006348 -2.9659755229949951 3.6195559501647949
   vertex 10.528801918029785 -1.6810015439987183 5.6222443580627441
  endloop
 endfacet
 facet normal 0.87973451788767221 -0.36439800550232304 -0.30541982847037569
  outer loop
   vertex 11.813776016235352 1.4212000370025635 3.6195559501647949
   vertex 11.334300994873047 -0.70760172605514526 4.778355598449707
   vertex 10.528801918029785 -1.6810015439987183 3.6195559501647949
  endloop
 endfacet
 facet normal 0.34090018188919802 -0.8230058705294121 0.45436593519104879
  outer loop
   vertex 8.2320995330810547 -1.1236417293548584 8.5854034423828125
   vertex 7.4265999794006348 -2.0970416069030762 7.4266042709350586
   vertex 9.914372444152832 -1.0665725469589233 7.4266042709350586
  endloop
 endfacet
 facet normal 0.84410373955826068 0.34963926582133437 0.40649878309741372
  outer loop
   vertex 11.334300994873047 5.4968013763427734 6.7810440063476563
   vertex 10.71987247467041 4.8823723793029785 8.5854034423828125
   vertex 12.619275093078613 2.3945999145507813 6.7810440063476563
  endloop
 endfacet
 facet normal 0.84410362887061052 -0.34963920653730424 -0.40649906393426161
  outer loop
   vertex 11.813776016235352 1.4212000370025635 3.6195559501647949
   vertex 10.528801918029785 -1.6810015439987183 3.6195559501647949
   vertex 9.914372444152832 -1.0665725469589233 1.8151960372924805
  endloop
 endfacet
 facet normal 0.51278900373051717 -0.85579903229970966 -0.068230887198866011
  outer loop
   vertex 4.4670014381408691 -4.1437015533447266 -2.3547441959381104
   vertex 6.1230015754699707 -3.2943015098571777 -0.56284421682357788
   vertex 4.3987016677856445 -4.3862018585205078 0.17355585098266602
  endloop
 endfacet
 facet normal -0.9238795188084733 -0.38268346544660603 -0
  outer loop
   vertex -4.7231016159057617 -3.8463015556335449 7.214144229888916
   vertex -6.0080757141113281 -0.74409997463226318 7.214144229888916
   vertex -6.0080757141113281 -0.74409997463226318 5.2114558219909668
  endloop
 endfacet
 facet normal 0.38268333168253726 -0.92387957421535916 0
  outer loop
   vertex 4.3987016677856445 -4.3862018585205078 2.1762442588806152
   vertex 1.2964999675750732 -5.671175479888916 0.17355585098266602
   vertex 4.3987016677856445 -4.3862018585205078 0.17355585098266602
  endloop
 endfacet
 facet normal -0.57340660873136096 -0.69596231877693027 -0.4322514452327933
  outer loop
   vertex -1.1229726076126099 -3.5292725563049316 -4.1591038703918457
   vertex -1.7374016046524048 -4.1437015533447266 -2.3547441959381104
   vertex -3.5021724700927734 -4.317772388458252 0.26659584045410156
  endloop
 endfacet
 facet normal 0.26370102406796136 -0.86907859492073847 0.41852618288000032
  outer loop
   vertex 7.4265999794006348 -2.0970416069030762 7.4266042709350586
   vertex 5.2681999206542969 -2.9248416423797607 7.0676040649414063
   vertex 7.4265999794006348 -2.9659755229949951 5.6222443580627441
  endloop
 endfacet
 facet normal 0.34963918587699166 -0.84410369319608292 0.40649894813148968
  outer loop
   vertex 9.914372444152832 -1.0665725469589233 7.4266042709350586
   vertex 7.4265999794006348 -2.0970416069030762 7.4266042709350586
   vertex 10.528801918029785 -1.6810015439987183 5.6222443580627441
  endloop
 endfacet
 facet normal 0.28968745068702301 -0.86233649711503069 0.41527935977824876
  outer loop
   vertex 3.1317999362945557 -3.8212416172027588 6.6965041160583496
   vertex 3.1317999362945557 -4.6901755332946777 4.8921442031860352
   vertex 5.2681999206542969 -3.7937755584716797 5.2632441520690918
  endloop
 endfacet
 facet normal 0.77042277197285869 -0.6375333343642956 0
  outer loop
   vertex 11.334300994873047 -0.70760172605514526 4.778355598449707
   vertex 10.528801918029785 -1.6810015439987183 5.6222443580627441
   vertex 10.528801918029785 -1.6810015439987183 3.6195559501647949
  endloop
 endfacet
 facet normal 0.33709457127146386 -0.93058243613147373 0.14277107404134659
  outer loop
   vertex -1.0144000053405762 -6.2171754837036133 4.0736441612243652
   vertex 1.2964999675750732 -5.671175479888916 2.1762442588806152
   vertex 1.0349999666213989 -5.4140758514404297 4.4694442749023438
  endloop
 endfacet
 facet normal 0.29782878445582978 -0.94432223991075859 0.13983390990561162
  outer loop
   vertex 1.0349999666213989 -5.4140758514404297 4.4694442749023438
   vertex 1.2964999675750732 -5.671175479888916 2.1762442588806152
   vertex 3.1317999362945557 -4.6901755332946777 4.8921442031860352
  endloop
 endfacet
 facet normal 0.63151857958830171 0.21018839688643584 -0.74632775738885926
  outer loop
   vertex 5.5085725784301758 2.2956726551055908 -2.3672041893005371
   vertex 9.914372444152832 3.9089725017547607 1.8151960372924805
   vertex 8.8072099685668945 2.801809549331665 0.56654024124145508
  endloop
 endfacet
 facet normal 0.60368289799762309 0.25005360628964401 -0.75699415628308198
  outer loop
   vertex 9.914372444152832 3.9089725017547607 1.8151960372924805
   vertex 10.944841384887695 1.4212000370025635 1.8151960372924805
   vertex 8.8072099685668945 2.801809549331665 0.56654024124145508
  endloop
 endfacet
 facet normal -0.36948922441754811 -0.15304744625272013 0.91654470280223621
  outer loop
   vertex -2.8384768962860107 2.7606000900268555 12.895759582519531
   vertex -2.2666096687316895 1.3799904584884644 12.895759582519531
   vertex 0.97359025478363037 5.7077903747558594 14.924659729003906
  endloop
 endfacet
 facet normal -0.30423718768831193 0.73449333237070935 -0.60659647075339773
  outer loop
   vertex 1.5393999814987183 7.6273417472839355 1.9898958206176758
   vertex 1.364799976348877 2.4767417907714844 -4.1591038703918457
   vertex -0.94837254285812378 6.5968723297119141 1.9898958206176758
  endloop
 endfacet
 facet normal 0.2560518544032015 -0.85948790722115875 0.44240025451764214
  outer loop
   vertex 0.86687248945236206 -3.23187255859375 9.0185041427612305
   vertex 5.2681999206542969 -2.9248416423797607 7.0676040649414063
   vertex 7.4265999794006348 -2.0970416069030762 7.4266042709350586
  endloop
 endfacet
 facet normal 0.26476528030484703 -0.8210896574702724 0.50567887116276333
  outer loop
   vertex 8.2320995330810547 -1.1236417293548584 8.5854034423828125
   vertex 0.86687248945236206 -3.23187255859375 9.0185041427612305
   vertex 7.4265999794006348 -2.0970416069030762 7.4266042709350586
  endloop
 endfacet
 facet normal 0.28347394528698477 -0.8640110734409282 0.41608579321443639
  outer loop
   vertex 3.1317999362945557 -3.8212416172027588 6.6965041160583496
   vertex -1.62090003490448 -5.1312756538391113 7.214144229888916
   vertex 3.1317999362945557 -4.6901755332946777 4.8921442031860352
  endloop
 endfacet
 facet normal 0.34491629183641048 -0.93501940129235084 0.082288947208685626
  outer loop
   vertex 5.2681999206542969 -3.7937755584716797 5.2632441520690918
   vertex 4.3987016677856445 -4.3862018585205078 2.1762442588806152
   vertex 7.4265999794006348 -2.9659755229949951 5.6222443580627441
  endloop
 endfacet
 facet normal 0.92387951360929355 0.38268347799853508 0
  outer loop
   vertex 11.334300994873047 5.4968013763427734 6.7810440063476563
   vertex 12.619275093078613 2.3945999145507813 6.7810440063476563
   vertex 12.619275093078613 2.3945999145507813 4.778355598449707
  endloop
 endfacet
 facet normal 0.25005363413675524 -0.60368292431707726 0.75699412609542993
  outer loop
   vertex -1.3278000354766846 -1.0428768396377563 11.625659942626953
   vertex -1.3278000354766846 -2.6086416244506836 10.37700366973877
   vertex 1.1599725484848022 -1.5781725645065308 10.37700366973877
  endloop
 endfacet
 facet normal 0.92387952140806318 -0.38268345917064184 0
  outer loop
   vertex 11.334300994873047 -0.70760172605514526 4.778355598449707
   vertex 12.619275093078613 2.3945999145507813 4.778355598449707
   vertex 11.334300994873047 -0.70760172605514526 6.7810440063476563
  endloop
 endfacet
 facet normal 0.92387951360929355 0.38268347799853508 0
  outer loop
   vertex 11.334300994873047 5.4968013763427734 6.7810440063476563
   vertex 12.619275093078613 2.3945999145507813 4.778355598449707
   vertex 11.334300994873047 5.4968013763427734 4.778355598449707
  endloop
 endfacet
 facet normal 0.50331075108461809 0.45674430338114008 -0.73352772897247365
  outer loop
   vertex 8.9549722671508789 4.0083723068237305 1.2187957763671875
   vertex 10.71987247467041 4.8823723793029785 2.9739956855773926
   vertex 9.914372444152832 3.9089725017547607 1.8151960372924805
  endloop
 endfacet
 facet normal 0.0019532974052420588 0.90096710672415081 -0.43388299947146974
  outer loop
   vertex 1.5393999814987183 7.6273417472839355 1.9898958206176758
   vertex 1.5393999814987183 8.4962759017944336 3.7942557334899902
   vertex 1.6821999549865723 8.3625411987304688 3.5171957015991211
  endloop
 endfacet
 facet normal 0.2756793734008639 0.73710271015007722 -0.61699309377878642
  outer loop
   vertex 6.4671998023986816 5.038841724395752 1.2187957763671875
   vertex 3.0208001136779785 3.3261415958404541 -2.3672041893005371
   vertex 4.0271725654602051 6.5968723297119141 1.9898958206176758
  endloop
 endfacet
 facet normal -0.10535702850732873 -0.62001964320077529 0.7774802496457961
  outer loop
   vertex -1.62090003490448 -2.6965768337249756 10.267159461975098
   vertex -1.62090003490448 -4.2623414993286133 9.0185041427612305
   vertex -1.3278000354766846 -2.6086416244506836 10.37700366973877
  endloop
 endfacet
 facet normal 0.27169680280639791 -0.58774975766390913 0.76205713021452492
  outer loop
   vertex 0.052809569984674454 -0.47100958228111267 11.625659942626953
   vertex 1.1599725484848022 -1.5781725645065308 10.37700366973877
   vertex 1.6017725467681885 0.27282753586769104 11.647104263305664
  endloop
 endfacet
 facet normal 0.77042277197285869 -0.6375333343642956 0
  outer loop
   vertex 11.334300994873047 -0.70760172605514526 4.778355598449707
   vertex 11.334300994873047 -0.70760172605514526 6.7810440063476563
   vertex 10.528801918029785 -1.6810015439987183 5.6222443580627441
  endloop
 endfacet
 facet normal 0.3954570771854809 -0.81995115897867976 0.41387654801092133
  outer loop
   vertex 11.334300994873047 -0.70760172605514526 6.7810440063476563
   vertex 9.914372444152832 -1.0665725469589233 7.4266042709350586
   vertex 10.528801918029785 -1.6810015439987183 5.6222443580627441
  endloop
 endfacet
 facet normal 0.26496669030281728 -0.63968628839510222 0.72152207552456016
  outer loop
   vertex -1.62090003490448 -4.2623414993286133 9.0185041427612305
   vertex 0.86687248945236206 -3.23187255859375 9.0185041427612305
   vertex -1.3278000354766846 -2.6086416244506836 10.37700366973877
  endloop
 endfacet
 facet normal 0.62208873443629453 -0.066997865814309956 0.78007492746772544
  outer loop
   vertex 5.8724417686462402 7.0883998870849609 13.676004409790039
   vertex 4.3066768646240234 7.0883998870849609 14.924659729003906
   vertex 10.184576034545898 2.3945999145507813 9.8340597152709961
  endloop
 endfacet
 facet normal -0.3716435365786972 -0.8972267755072697 0.23846424266985197
  outer loop
   vertex -1.62090003490448 -5.1312756538391113 7.214144229888916
   vertex -4.7231016159057617 -3.8463015556335449 7.214144229888916
   vertex -4.1166014671325684 -4.9322018623352051 4.0736441612243652
  endloop
 endfacet
 facet normal -0.38268335678638932 -0.92387956381700587 0
  outer loop
   vertex -4.1166014671325684 -4.9322018623352051 4.0736441612243652
   vertex -4.1166014671325684 -4.9322018623352051 2.070955753326416
   vertex -1.0144000053405762 -6.2171754837036133 4.0736441612243652
  endloop
 endfacet
 facet normal -0.45650589573343642 -0.43078791937951288 0.77847552028132738
  outer loop
   vertex -3.6056725978851318 -0.61827248334884644 11.018004417419434
   vertex -2.7084095478057861 -0.47100958228111267 11.625659942626953
   vertex -3.3737726211547852 0.27282753586769104 11.647104263305664
  endloop
 endfacet
 facet normal -0.8822646406538347 0.36544601677267696 -0.29674620920400047
  outer loop
   vertex -6.0080757141113281 -0.74409997463226318 5.2114558219909668
   vertex -4.1166014671325684 1.2722015380859375 2.070955753326416
   vertex -5.4015755653381348 -1.8300000429153442 2.070955753326416
  endloop
 endfacet
 facet normal -0.87305524147123936 -0.4876213134591183 0
  outer loop
   vertex -4.7231016159057617 -3.8463015556335449 7.214144229888916
   vertex -4.7231016159057617 -3.8463015556335449 5.2114558219909668
   vertex -4.1166014671325684 -4.9322018623352051 4.0736441612243652
  endloop
 endfacet
 facet normal 0.32702107206784736 -0.78949884447360019 0.51937346196975231
  outer loop
   vertex 0.86687248945236206 -3.23187255859375 9.0185041427612305
   vertex -1.62090003490448 -4.2623414993286133 9.0185041427612305
   vertex 3.1317999362945557 -3.8212416172027588 6.6965041160583496
  endloop
 endfacet
 facet normal -0.69508356956597228 -0.28791305121351901 0.6587601280134886
  outer loop
   vertex -4.8460416793823242 0.90960001945495605 10.37700366973877
   vertex -3.8155725002288818 -1.5781725645065308 10.37700366973877
   vertex -3.6056725978851318 -0.61827248334884644 11.018004417419434
  endloop
 endfacet
 facet normal -0.77041372275104825 -0.31911582337146238 0.55193096223243765
  outer loop
   vertex -3.8155725002288818 -1.5781725645065308 10.37700366973877
   vertex -4.8460416793823242 0.90960001945495605 10.37700366973877
   vertex -5.0163416862487793 0.12250000238418579 9.6842041015625
  endloop
 endfacet
 facet normal -0.37164343873066108 -0.89722683775242551 0.23846416096602854
  outer loop
   vertex -1.62090003490448 -5.1312756538391113 7.214144229888916
   vertex -4.1166014671325684 -4.9322018623352051 4.0736441612243652
   vertex -1.0144000053405762 -6.2171754837036133 4.0736441612243652
  endloop
 endfacet
 facet normal -0.84410370541228263 -0.34963923824190613 0.40649887772400295
  outer loop
   vertex -4.7231016159057617 -3.8463015556335449 7.214144229888916
   vertex -4.1086726188659668 -3.23187255859375 9.0185041427612305
   vertex -6.0080757141113281 -0.74409997463226318 7.214144229888916
  endloop
 endfacet
 facet normal -0.60368269035799327 -0.25005351129594228 0.75699435324888997
  outer loop
   vertex -2.8384768962860107 2.7606000900268555 12.895759582519531
   vertex -4.4042415618896484 2.7606000900268555 11.647104263305664
   vertex -3.3737726211547852 0.27282753586769104 11.647104263305664
  endloop
 endfacet
 facet normal 0.23165761314868691 -0.60652939663763972 0.76056350246684468
  outer loop
   vertex 8.2320995330810547 -1.1236417293548584 8.5854034423828125
   vertex 8.2320995330810547 0.44212308526039124 9.8340597152709961
   vertex 1.1599725484848022 -1.5781725645065308 10.37700366973877
  endloop
 endfacet
 facet normal -0.975363451652833 0.22034995402766172 -0.010584655869655828
  outer loop
   vertex -5.8852758407592773 0.12250000238418579 5.8771557807922363
   vertex -5.7149758338928223 0.90960001945495605 6.5699558258056641
   vertex -5.5050754547119141 1.8695000410079956 7.2109560966491699
  endloop
 endfacet
 facet normal -0.89879866673701259 0.37229462815743175 -0.23142529359792999
  outer loop
   vertex -4.6003017425537109 3.2247016429901123 5.8771557807922363
   vertex -5.8852758407592773 0.12250000238418579 5.8771557807922363
   vertex -5.5050754547119141 1.8695000410079956 7.2109560966491699
  endloop
 endfacet
 facet normal -0.7692698411383827 -0.32020944623279285 0.55289223367507667
  outer loop
   vertex -3.8155725002288818 -1.5781725645065308 10.37700366973877
   vertex -5.1391415596008301 -0.74409997463226318 9.0185041427612305
   vertex -3.9858725070953369 -2.3652725219726563 9.6842041015625
  endloop
 endfacet
 facet normal -0.69392497977111223 -0.28874000626333601 0.65961908040376616
  outer loop
   vertex -4.6361417770385742 1.8695000410079956 11.018004417419434
   vertex -4.8460416793823242 0.90960001945495605 10.37700366973877
   vertex -3.3737726211547852 0.27282753586769104 11.647104263305664
  endloop
 endfacet
 facet normal -0.84410368681457448 -0.34963912603181618 0.40649901285704332
  outer loop
   vertex -4.1086726188659668 -3.23187255859375 9.0185041427612305
   vertex -5.1391415596008301 -0.74409997463226318 9.0185041427612305
   vertex -6.0080757141113281 -0.74409997463226318 7.214144229888916
  endloop
 endfacet
 facet normal -0.34963923824190613 -0.84410370541228263 0.40649887772400295
  outer loop
   vertex -4.1086726188659668 -3.23187255859375 9.0185041427612305
   vertex -4.7231016159057617 -3.8463015556335449 7.214144229888916
   vertex -1.62090003490448 -5.1312756538391113 7.214144229888916
  endloop
 endfacet
 facet normal -0.76802881874280904 -0.31812789014801801 0.55581146002083825
  outer loop
   vertex -3.9858725070953369 -2.3652725219726563 9.6842041015625
   vertex -5.1391415596008301 -0.74409997463226318 9.0185041427612305
   vertex -4.1086726188659668 -3.23187255859375 9.0185041427612305
  endloop
 endfacet
 facet normal -0.9238795188084733 -0.38268346544660603 0
  outer loop
   vertex -4.7231016159057617 -3.8463015556335449 7.214144229888916
   vertex -6.0080757141113281 -0.74409997463226318 5.2114558219909668
   vertex -4.7231016159057617 -3.8463015556335449 5.2114558219909668
  endloop
 endfacet
 facet normal -0.38268335678638932 -0.92387956381700587 0
  outer loop
   vertex -1.0144000053405762 -6.2171754837036133 4.0736441612243652
   vertex -4.1166014671325684 -4.9322018623352051 2.070955753326416
   vertex -1.0144000053405762 -6.2171754837036133 2.070955753326416
  endloop
 endfacet
 facet normal 0.26496670539426498 -0.63968626615356827 0.72152208970135845
  outer loop
   vertex -1.3278000354766846 -2.6086416244506836 10.37700366973877
   vertex 0.86687248945236206 -3.23187255859375 9.0185041427612305
   vertex 1.1599725484848022 -1.5781725645065308 10.37700366973877
  endloop
 endfacet
 facet normal -0.25005353466520547 -0.60368264122323534 0.75699438471310687
  outer loop
   vertex -1.62090003490448 -2.6965768337249756 10.267159461975098
   vertex -3.0015096664428711 -2.1247096061706543 10.267159461975098
   vertex -4.1086726188659668 -3.23187255859375 9.0185041427612305
  endloop
 endfacet
 facet normal -0.25005350848772134 -0.60368269081017611 0.75699435381590952
  outer loop
   vertex -1.62090003490448 -4.2623414993286133 9.0185041427612305
   vertex -1.62090003490448 -2.6965768337249756 10.267159461975098
   vertex -4.1086726188659668 -3.23187255859375 9.0185041427612305
  endloop
 endfacet
 facet normal -0.34963912603181618 -0.84410368681457448 0.40649901285704332
  outer loop
   vertex -1.62090003490448 -4.2623414993286133 9.0185041427612305
   vertex -4.1086726188659668 -3.23187255859375 9.0185041427612305
   vertex -1.62090003490448 -5.1312756538391113 7.214144229888916
  endloop
 endfacet
 facet normal 0.22681324711658318 -0.64191278685605069 0.73246414588232922
  outer loop
   vertex 0.86687248945236206 -3.23187255859375 9.0185041427612305
   vertex 8.2320995330810547 -1.1236417293548584 8.5854034423828125
   vertex 1.1599725484848022 -1.5781725645065308 10.37700366973877
  endloop
 endfacet
 facet normal -0.88250449633110717 -0.2014143046216208 0.42499187268601707
  outer loop
   vertex -6.0080757141113281 -0.74409997463226318 7.214144229888916
   vertex -5.1391415596008301 -0.74409997463226318 9.0185041427612305
   vertex -5.8852758407592773 0.12250000238418579 7.8798441886901855
  endloop
 endfacet
 facet normal -0.79522009207429389 -0.29446025578749374 0.53001713455596466
  outer loop
   vertex -3.9858725070953369 -2.3652725219726563 9.6842041015625
   vertex -4.1086726188659668 -3.23187255859375 9.0185041427612305
   vertex -3.8155725002288818 -1.5781725645065308 10.37700366973877
  endloop
 endfacet
 facet normal -0.28474861325308776 -0.57785324593746945 0.76485544608767353
  outer loop
   vertex -4.1086726188659668 -3.23187255859375 9.0185041427612305
   vertex -3.0015096664428711 -2.1247096061706543 10.267159461975098
   vertex -3.8155725002288818 -1.5781725645065308 10.37700366973877
  endloop
 endfacet
 facet normal -0.69266757657562217 -0.28691225117101277 0.66173483245846787
  outer loop
   vertex -4.4042415618896484 2.7606000900268555 11.647104263305664
   vertex -4.6361417770385742 1.8695000410079956 11.018004417419434
   vertex -3.3737726211547852 0.27282753586769104 11.647104263305664
  endloop
 endfacet
 facet normal -0.84410373251300874 0.34963924946739555 -0.4064988117934461
  outer loop
   vertex -5.4015755653381348 -1.8300000429153442 2.070955753326416
   vertex -4.1166014671325684 1.2722015380859375 2.070955753326416
   vertex -4.5326418876647949 -1.8300000429153442 0.26659584045410156
  endloop
 endfacet
 facet normal -0.60368264395059179 -0.25005353579491346 0.75699438216494386
  outer loop
   vertex -2.2666096687316895 1.3799904584884644 12.895759582519531
   vertex -2.8384768962860107 2.7606000900268555 12.895759582519531
   vertex -3.3737726211547852 0.27282753586769104 11.647104263305664
  endloop
 endfacet
 facet normal -0.92387951360929343 0.38268347799853508 0
  outer loop
   vertex -5.2731757164001465 2.7606000900268555 9.8427438735961914
   vertex -3.9882016181945801 5.8628015518188477 7.8400559425354004
   vertex -5.2731757164001465 2.7606000900268555 7.8400559425354004
  endloop
 endfacet
 facet normal -0.9677659541707202 0.2518512615573632 0
  outer loop
   vertex -5.5050754547119141 1.8695000410079956 9.2136440277099609
   vertex -5.2731757164001465 2.7606000900268555 9.8427438735961914
   vertex -5.2731757164001465 2.7606000900268555 7.8400559425354004
  endloop
 endfacet
 facet normal -0.80442305724754692 -0.33320291289620296 -0.49181232579714329
  outer loop
   vertex -2.1534416675567627 -1.0414999723434448 -4.1591038703918457
   vertex -1.1229726076126099 -3.5292725563049316 -4.1591038703918457
   vertex -3.5021724700927734 -4.317772388458252 0.26659584045410156
  endloop
 endfacet
 facet normal -0.13821505413192522 -0.33368052269505866 0.93249874401269917
  outer loop
   vertex 0.97359025478363037 5.7077903747558594 14.924659729003906
   vertex -0.88599997758865356 0.80812329053878784 12.895759582519531
   vertex 2.3541998863220215 5.135922908782959 14.924659729003906
  endloop
 endfacet
 facet normal -0.28474878736663062 -0.57785345977988634 0.76485521970739578
  outer loop
   vertex -3.0015096664428711 -2.1247096061706543 10.267159461975098
   vertex -2.7084095478057861 -0.47100958228111267 11.625659942626953
   vertex -3.8155725002288818 -1.5781725645065308 10.37700366973877
  endloop
 endfacet
 facet normal -0.87792926005731697 0.36365023616262604 -0.31144617524393864
  outer loop
   vertex -4.6003017425537109 3.2247016429901123 5.8771557807922363
   vertex -4.7231016159057617 2.3581016063690186 5.2114558219909668
   vertex -5.8852758407592773 0.12250000238418579 5.8771557807922363
  endloop
 endfacet
 facet normal -0.97691653345401219 0.21362136284603175 0
  outer loop
   vertex -5.7149758338928223 0.90960001945495605 8.5726442337036133
   vertex -5.5050754547119141 1.8695000410079956 9.2136440277099609
   vertex -5.5050754547119141 1.8695000410079956 7.2109560966491699
  endloop
 endfacet
 facet normal -0.90321954704544771 0.3667523426165108 -0.22290618883359345
  outer loop
   vertex -4.2201018333435059 4.9717016220092773 7.2109560966491699
   vertex -4.6003017425537109 3.2247016429901123 5.8771557807922363
   vertex -5.2731757164001465 2.7606000900268555 7.8400559425354004
  endloop
 endfacet
 facet normal -0.97738434588086764 0.21147066091311192 0
  outer loop
   vertex -5.8852758407592773 0.12250000238418579 5.8771557807922363
   vertex -5.8852758407592773 0.12250000238418579 7.8798441886901855
   vertex -5.7149758338928223 0.90960001945495605 6.5699558258056641
  endloop
 endfacet
 facet normal -0.9901088330079737 0.14030145686908799 0
  outer loop
   vertex -5.8852758407592773 0.12250000238418579 5.8771557807922363
   vertex -6.0080757141113281 -0.74409997463226318 7.214144229888916
   vertex -5.8852758407592773 0.12250000238418579 7.8798441886901855
  endloop
 endfacet
 facet normal -0.24412226428013661 -0.58936328766296053 0.77010079550526733
  outer loop
   vertex -3.0015096664428711 -2.1247096061706543 10.267159461975098
   vertex -1.62090003490448 -2.6965768337249756 10.267159461975098
   vertex -1.3278000354766846 -1.0428768396377563 11.625659942626953
  endloop
 endfacet
 facet normal -0.4504807888757178 -0.42558145488881571 0.7848232183801841
  outer loop
   vertex -2.7084095478057861 -0.47100958228111267 11.625659942626953
   vertex -2.4985096454620361 0.48889043927192688 12.266659736633301
   vertex -3.3737726211547852 0.27282753586769104 11.647104263305664
  endloop
 endfacet
 facet normal -0.69384337260903761 -0.28601167793623278 0.66089234703589739
  outer loop
   vertex -4.8460416793823242 0.90960001945495605 10.37700366973877
   vertex -3.6056725978851318 -0.61827248334884644 11.018004417419434
   vertex -3.3737726211547852 0.27282753586769104 11.647104263305664
  endloop
 endfacet
 facet normal -0.24412228823779616 -0.58936326389894267 0.77010080609744058
  outer loop
   vertex -2.7084095478057861 -0.47100958228111267 11.625659942626953
   vertex -3.0015096664428711 -2.1247096061706543 10.267159461975098
   vertex -1.3278000354766846 -1.0428768396377563 11.625659942626953
  endloop
 endfacet
 facet normal -0.10535687416698128 -0.62001991400176626 0.77748005460397851
  outer loop
   vertex -1.3278000354766846 -1.0428768396377563 11.625659942626953
   vertex -1.62090003490448 -2.6965768337249756 10.267159461975098
   vertex -1.3278000354766846 -2.6086416244506836 10.37700366973877
  endloop
 endfacet
 facet normal 0.24339047969304681 -0.58759665192903332 0.7716807947827774
  outer loop
   vertex -0.88599997758865356 0.80812329053878784 12.895759582519531
   vertex 0.052809569984674454 -0.47100958228111267 11.625659942626953
   vertex 0.49460962414741516 1.3799904584884644 12.895759582519531
  endloop
 endfacet
 facet normal 0.25005340933614267 0.60368253820969542 0.75699450826282155
  outer loop
   vertex 2.3541998863220215 9.0408763885498047 14.924659729003906
   vertex 3.734809398651123 8.4690093994140625 14.924659729003906
   vertex 2.3541998863220215 10.60664176940918 13.676004409790039
  endloop
 endfacet
 facet normal 0.25005346429430608 0.60368255519050118 0.75699447656709062
  outer loop
   vertex 3.734809398651123 8.4690093994140625 14.924659729003906
   vertex 4.8419723510742188 9.5761728286743164 13.676004409790039
   vertex 2.3541998863220215 10.60664176940918 13.676004409790039
  endloop
 endfacet
 facet normal -0.35579909049339981 0.85897491925797953 -0.36819708756292069
  outer loop
   vertex 2.1022999286651611 10.715775489807129 8.3783559799194336
   vertex 1.6821999549865723 9.231475830078125 5.3215556144714355
   vertex -0.99990171194076538 9.4308013916015625 8.3783559799194336
  endloop
 endfacet
 facet normal -0.84410373673761552 0.34963926465298467 0.40649878995947147
  outer loop
   vertex -3.3737726211547852 5.2483725547790527 11.647104263305664
   vertex -3.9882016181945801 5.8628015518188477 9.8427438735961914
   vertex -5.2731757164001465 2.7606000900268555 9.8427438735961914
  endloop
 endfacet
 facet normal -0.72496264130540145 0.5380182696447563 -0.43007616795162934
  outer loop
   vertex -0.94837254285812378 6.5968723297119141 1.9898958206176758
   vertex -1.1229726076126099 1.446272611618042 -4.1591038703918457
   vertex -1.7374016046524048 2.0607016086578369 -2.3547441959381104
  endloop
 endfacet
 facet normal -0.90567683226336548 0.37514367946014621 -0.19752644193246344
  outer loop
   vertex -3.9882016181945801 5.8628015518188477 7.8400559425354004
   vertex -4.2201018333435059 4.9717016220092773 7.2109560966491699
   vertex -5.2731757164001465 2.7606000900268555 7.8400559425354004
  endloop
 endfacet
 facet normal -0.89712042667288716 -0.092327990148446337 0.43203064970139016
  outer loop
   vertex -5.7149758338928223 0.90960001945495605 8.5726442337036133
   vertex -4.8460416793823242 0.90960001945495605 10.37700366973877
   vertex -5.5050754547119141 1.8695000410079956 9.2136440277099609
  endloop
 endfacet
 facet normal -0.88562297151533342 -0.1837798176190496 0.42649376426890434
  outer loop
   vertex -5.7149758338928223 0.90960001945495605 8.5726442337036133
   vertex -5.0163416862487793 0.12250000238418579 9.6842041015625
   vertex -4.8460416793823242 0.90960001945495605 10.37700366973877
  endloop
 endfacet
 facet normal -0.89681789892909969 0.38599422288810575 -0.21616224475472692
  outer loop
   vertex -4.6003017425537109 3.2247016429901123 5.8771557807922363
   vertex -5.5050754547119141 1.8695000410079956 7.2109560966491699
   vertex -5.2731757164001465 2.7606000900268555 7.8400559425354004
  endloop
 endfacet
 facet normal -0.97720525864605134 0.21229442350125213 -0.00097991059526155258
  outer loop
   vertex -5.5050754547119141 1.8695000410079956 7.2109560966491699
   vertex -5.8852758407592773 0.12250000238418579 7.8798441886901855
   vertex -5.7149758338928223 0.90960001945495605 8.5726442337036133
  endloop
 endfacet
 facet normal -0.9901088330079737 0.14030145686908799 0
  outer loop
   vertex -5.8852758407592773 0.12250000238418579 5.8771557807922363
   vertex -6.0080757141113281 -0.74409997463226318 5.2114558219909668
   vertex -6.0080757141113281 -0.74409997463226318 7.214144229888916
  endloop
 endfacet
 facet normal -0.4457948040485824 -0.43593127802309095 0.78181258209652826
  outer loop
   vertex -2.4985096454620361 0.48889043927192688 12.266659736633301
   vertex -2.2666096687316895 1.3799904584884644 12.895759582519531
   vertex -3.3737726211547852 0.27282753586769104 11.647104263305664
  endloop
 endfacet
 facet normal -0.46013991389905606 -0.4212749829186907 0.78153608259876661
  outer loop
   vertex -3.8155725002288818 -1.5781725645065308 10.37700366973877
   vertex -2.7084095478057861 -0.47100958228111267 11.625659942626953
   vertex -3.6056725978851318 -0.61827248334884644 11.018004417419434
  endloop
 endfacet
 facet normal -0.21141260782077642 -0.51039511989691788 0.83354755763533339
  outer loop
   vertex -2.7084095478057861 -0.47100958228111267 11.625659942626953
   vertex -1.3278000354766846 -1.0428768396377563 11.625659942626953
   vertex -1.117900013923645 -0.082976788282394409 12.266659736633301
  endloop
 endfacet
 facet normal -0.21141259265652954 -0.5103951539562247 0.83354754062635561
  outer loop
   vertex -2.4985096454620361 0.48889043927192688 12.266659736633301
   vertex -2.7084095478057861 -0.47100958228111267 11.625659942626953
   vertex -1.117900013923645 -0.082976788282394409 12.266659736633301
  endloop
 endfacet
 facet normal 0.25005365405357233 -0.60368288658949043 0.75699414960317679
  outer loop
   vertex 0.052809569984674454 -0.47100958228111267 11.625659942626953
   vertex -1.3278000354766846 -1.0428768396377563 11.625659942626953
   vertex 1.1599725484848022 -1.5781725645065308 10.37700366973877
  endloop
 endfacet
 facet normal -0.63990400051132268 -0.32505902371672846 0.69631853431452784
  outer loop
   vertex -1.117900013923645 -0.082976788282394409 12.266659736633301
   vertex -1.3278000354766846 -1.0428768396377563 11.625659942626953
   vertex -0.88599997758865356 0.80812329053878784 12.895759582519531
  endloop
 endfacet
 facet normal 0.24339050968165696 -0.58759663404731155 0.77168079894032149
  outer loop
   vertex -1.3278000354766846 -1.0428768396377563 11.625659942626953
   vertex 0.052809569984674454 -0.47100958228111267 11.625659942626953
   vertex -0.88599997758865356 0.80812329053878784 12.895759582519531
  endloop
 endfacet
 facet normal 0.22740393806555623 -0.58728088531100875 0.77678092838366875
  outer loop
   vertex 1.1599725484848022 -1.5781725645065308 10.37700366973877
   vertex 8.2320995330810547 0.44212308526039124 9.8340597152709961
   vertex 1.6017725467681885 0.27282753586769104 11.647104263305664
  endloop
 endfacet
 facet normal 0.27169668512188933 -0.58774951911208229 0.76205735615981862
  outer loop
   vertex 0.49460962414741516 1.3799904584884644 12.895759582519531
   vertex 0.052809569984674454 -0.47100958228111267 11.625659942626953
   vertex 1.6017725467681885 0.27282753586769104 11.647104263305664
  endloop
 endfacet
 facet normal -0.89865254945221451 -0.071660552193294771 0.43276825278939679
  outer loop
   vertex -4.6361417770385742 1.8695000410079956 11.018004417419434
   vertex -4.4042415618896484 2.7606000900268555 11.647104263305664
   vertex -5.2731757164001465 2.7606000900268555 9.8427438735961914
  endloop
 endfacet
 facet normal -0.72496267474683473 0.53801824772922613 -0.43007613899667602
  outer loop
   vertex -1.7374016046524048 2.0607016086578369 -2.3547441959381104
   vertex -1.5628015995025635 7.211301326751709 3.7942557334899902
   vertex -0.94837254285812378 6.5968723297119141 1.9898958206176758
  endloop
 endfacet
 facet normal -0.81579721377291214 0.45454660092010429 -0.35757837405572052
  outer loop
   vertex -1.5628015995025635 7.211301326751709 3.7942557334899902
   vertex -1.7374016046524048 2.0607016086578369 -2.3547441959381104
   vertex -4.1166014671325684 1.2722015380859375 2.070955753326416
  endloop
 endfacet
 facet normal 0.34963918771042318 0.844103795272097 0.40649873459143387
  outer loop
   vertex 2.3541998863220215 10.60664176940918 13.676004409790039
   vertex 4.8419723510742188 9.5761728286743164 13.676004409790039
   vertex 2.3541998863220215 11.47557544708252 11.871644020080566
  endloop
 endfacet
 facet normal -0.92387951360929343 0.38268347799853508 0
  outer loop
   vertex -3.9882016181945801 5.8628015518188477 9.8427438735961914
   vertex -3.9882016181945801 5.8628015518188477 7.8400559425354004
   vertex -5.2731757164001465 2.7606000900268555 9.8427438735961914
  endloop
 endfacet
 facet normal -0.84410371873045575 0.34963915600584206 0.40649892080168915
  outer loop
   vertex -4.4042415618896484 2.7606000900268555 11.647104263305664
   vertex -3.3737726211547852 5.2483725547790527 11.647104263305664
   vertex -5.2731757164001465 2.7606000900268555 9.8427438735961914
  endloop
 endfacet
 facet normal -0.89865262164198301 -0.071660871167599449 0.43276805006780689
  outer loop
   vertex -5.5050754547119141 1.8695000410079956 9.2136440277099609
   vertex -4.6361417770385742 1.8695000410079956 11.018004417419434
   vertex -5.2731757164001465 2.7606000900268555 9.8427438735961914
  endloop
 endfacet
 facet normal -0.89712056034208487 -0.092328567982971066 0.43203024864668627
  outer loop
   vertex -5.5050754547119141 1.8695000410079956 9.2136440277099609
   vertex -4.8460416793823242 0.90960001945495605 10.37700366973877
   vertex -4.6361417770385742 1.8695000410079956 11.018004417419434
  endloop
 endfacet
 facet normal -0.9677659541707202 0.2518512615573632 0
  outer loop
   vertex -5.5050754547119141 1.8695000410079956 7.2109560966491699
   vertex -5.5050754547119141 1.8695000410079956 9.2136440277099609
   vertex -5.2731757164001465 2.7606000900268555 7.8400559425354004
  endloop
 endfacet
 facet normal -0.76921962207695571 -0.31713114922430613 0.55473327573118969
  outer loop
   vertex -5.0163416862487793 0.12250000238418579 9.6842041015625
   vertex -5.1391415596008301 -0.74409997463226318 9.0185041427612305
   vertex -3.8155725002288818 -1.5781725645065308 10.37700366973877
  endloop
 endfacet
 facet normal -0.97705047713162085 0.21300570968982674 0.00096580350241453922
  outer loop
   vertex -5.7149758338928223 0.90960001945495605 6.5699558258056641
   vertex -5.8852758407592773 0.12250000238418579 7.8798441886901855
   vertex -5.5050754547119141 1.8695000410079956 7.2109560966491699
  endloop
 endfacet
 facet normal 0.22158190062392133 -0.091782273614420262 0.9708127912043899
  outer loop
   vertex 4.3066768646240234 7.0883998870849609 14.924659729003906
   vertex 2.3541998863220215 7.0883998870849609 15.37030029296875
   vertex 3.734809398651123 5.7077903747558594 14.924659729003906
  endloop
 endfacet
 facet normal -0.21729126821501979 -0.52458753237149247 0.82316002431963153
  outer loop
   vertex -2.4985096454620361 0.48889043927192688 12.266659736633301
   vertex -1.117900013923645 -0.082976788282394409 12.266659736633301
   vertex -0.88599997758865356 0.80812329053878784 12.895759582519531
  endloop
 endfacet
 facet normal -0.21729125238260896 -0.52458757147330459 0.82316000357994668
  outer loop
   vertex -2.2666096687316895 1.3799904584884644 12.895759582519531
   vertex -2.4985096454620361 0.48889043927192688 12.266659736633301
   vertex -0.88599997758865356 0.80812329053878784 12.895759582519531
  endloop
 endfacet
 facet normal 0.22994061009417224 -0.97320466286877172 0
  outer loop
   vertex 1.2964999675750732 -5.671175479888916 0.17355585098266602
   vertex 1.2964999675750732 -5.671175479888916 2.1762442588806152
   vertex -1.0144000053405762 -6.2171754837036133 2.070955753326416
  endloop
 endfacet
 facet normal 0.28347394325635467 -0.86401102935250562 0.41608588614842096
  outer loop
   vertex -1.62090003490448 -4.2623414993286133 9.0185041427612305
   vertex -1.62090003490448 -5.1312756538391113 7.214144229888916
   vertex 3.1317999362945557 -3.8212416172027588 6.6965041160583496
  endloop
 endfacet
 facet normal -0.80442297447273026 -0.33320302618187075 -0.49181238443504927
  outer loop
   vertex -4.5326418876647949 -1.8300000429153442 0.26659584045410156
   vertex -2.1534416675567627 -1.0414999723434448 -4.1591038703918457
   vertex -3.5021724700927734 -4.317772388458252 0.26659584045410156
  endloop
 endfacet
 facet normal -0.86686419289660011 0.27253211648687609 -0.41745983825622063
  outer loop
   vertex -3.0223755836486816 -1.0414999723434448 -2.3547441959381104
   vertex -2.1534416675567627 -1.0414999723434448 -4.1591038703918457
   vertex -4.5326418876647949 -1.8300000429153442 0.26659584045410156
  endloop
 endfacet
 facet normal 0.27154916042846361 0.65557749215247874 -0.70461280520131286
  outer loop
   vertex 8.2320995330810547 5.912841796875 2.9739956855773926
   vertex 4.0271725654602051 6.5968723297119141 1.9898958206176758
   vertex 1.5393999814987183 7.6273417472839355 1.9898958206176758
  endloop
 endfacet
 facet normal -0.84410367439823542 0.34963929105713804 -0.40649889669771527
  outer loop
   vertex -4.1166014671325684 1.2722015380859375 2.070955753326416
   vertex -3.5021724700927734 0.6577724814414978 0.26659584045410156
   vertex -4.5326418876647949 -1.8300000429153442 0.26659584045410156
  endloop
 endfacet
 facet normal -0.85265781444671573 0.3531825329039246 -0.38501525932684605
  outer loop
   vertex -3.5021724700927734 0.6577724814414978 0.26659584045410156
   vertex -3.0223755836486816 -1.0414999723434448 -2.3547441959381104
   vertex -4.5326418876647949 -1.8300000429153442 0.26659584045410156
  endloop
 endfacet
 facet normal -0.3588659310575909 -0.86637891008777135 -0.34727917830082172
  outer loop
   vertex -1.7374016046524048 -4.1437015533447266 -2.3547441959381104
   vertex 1.364799976348877 -5.428675651550293 -2.3547441959381104
   vertex -1.0144000053405762 -6.2171754837036133 2.070955753326416
  endloop
 endfacet
 facet normal -0.84410363630333074 -0.34963930040877467 -0.40649896775902977
  outer loop
   vertex -4.1166014671325684 -4.9322018623352051 2.070955753326416
   vertex -4.5326418876647949 -1.8300000429153442 0.26659584045410156
   vertex -3.5021724700927734 -4.317772388458252 0.26659584045410156
  endloop
 endfacet
 facet normal -0.84410374044361169 -0.34963922588096313 -0.40649881561262208
  outer loop
   vertex -4.1166014671325684 -4.9322018623352051 2.070955753326416
   vertex -5.4015755653381348 -1.8300000429153442 2.070955753326416
   vertex -4.5326418876647949 -1.8300000429153442 0.26659584045410156
  endloop
 endfacet
 facet normal -0.35886582462118577 -0.86637894133692106 -0.34727921032919917
  outer loop
   vertex -4.1166014671325684 -4.9322018623352051 2.070955753326416
   vertex -1.7374016046524048 -4.1437015533447266 -2.3547441959381104
   vertex -1.0144000053405762 -6.2171754837036133 2.070955753326416
  endloop
 endfacet
 facet normal 0.22994061009417224 -0.97320466286877172 0
  outer loop
   vertex 1.2964999675750732 -5.671175479888916 2.1762442588806152
   vertex -1.0144000053405762 -6.2171754837036133 4.0736441612243652
   vertex -1.0144000053405762 -6.2171754837036133 2.070955753326416
  endloop
 endfacet
 facet normal 0.26370102406796136 -0.86907859492073847 0.41852618288000032
  outer loop
   vertex 5.2681999206542969 -2.9248416423797607 7.0676040649414063
   vertex 5.2681999206542969 -3.7937755584716797 5.2632441520690918
   vertex 7.4265999794006348 -2.9659755229949951 5.6222443580627441
  endloop
 endfacet
 facet normal 0.37530584169750036 -0.9241284271239798 0.071639202739073302
  outer loop
   vertex 3.1317999362945557 -4.6901755332946777 4.8921442031860352
   vertex 4.3987016677856445 -4.3862018585205078 2.1762442588806152
   vertex 5.2681999206542969 -3.7937755584716797 5.2632441520690918
  endloop
 endfacet
 facet normal 0.26901749005854486 -0.83782252804665314 0.47506105032944546
  outer loop
   vertex 0.86687248945236206 -3.23187255859375 9.0185041427612305
   vertex 3.1317999362945557 -3.8212416172027588 6.6965041160583496
   vertex 5.2681999206542969 -2.9248416423797607 7.0676040649414063
  endloop
 endfacet
 facet normal 0.42465424563044929 -0.90535560509008506 0
  outer loop
   vertex 4.3987016677856445 -4.3862018585205078 2.1762442588806152
   vertex 4.3987016677856445 -4.3862018585205078 0.17355585098266602
   vertex 7.4265999794006348 -2.9659755229949951 3.6195559501647949
  endloop
 endfacet
 facet normal 0.42465424563044929 -0.90535560509008506 0
  outer loop
   vertex 7.4265999794006348 -2.9659755229949951 5.6222443580627441
   vertex 4.3987016677856445 -4.3862018585205078 2.1762442588806152
   vertex 7.4265999794006348 -2.9659755229949951 3.6195559501647949
  endloop
 endfacet
 facet normal 0.87973452358804671 -0.36439800086207663 -0.30541981758725884
  outer loop
   vertex 12.619275093078613 2.3945999145507813 4.778355598449707
   vertex 11.334300994873047 -0.70760172605514526 4.778355598449707
   vertex 11.813776016235352 1.4212000370025635 3.6195559501647949
  endloop
 endfacet
 facet normal 0.49464068670214933 0.49717979917442734 -0.71284138372551176
  outer loop
   vertex 5.5085725784301758 2.2956726551055908 -2.3672041893005371
   vertex 8.9549722671508789 4.0083723068237305 1.2187957763671875
   vertex 9.914372444152832 3.9089725017547607 1.8151960372924805
  endloop
 endfacet
 facet normal 0.84410361027288028 -0.34963909432721463 -0.40649919906727333
  outer loop
   vertex 10.944841384887695 1.4212000370025635 1.8151960372924805
   vertex 11.813776016235352 1.4212000370025635 3.6195559501647949
   vertex 9.914372444152832 -1.0665725469589233 1.8151960372924805
  endloop
 endfacet
 facet normal 0.84410375841159913 0.34963917244230736 -0.40649882426554618
  outer loop
   vertex 12.619275093078613 2.3945999145507813 4.778355598449707
   vertex 11.750341415405273 2.3945999145507813 2.9739956855773926
   vertex 10.71987247467041 4.8823723793029785 2.9739956855773926
  endloop
 endfacet
 facet normal 0.84410377641876022 0.3496392810894553 -0.40649869342328332
  outer loop
   vertex 11.334300994873047 5.4968013763427734 4.778355598449707
   vertex 12.619275093078613 2.3945999145507813 4.778355598449707
   vertex 10.71987247467041 4.8823723793029785 2.9739956855773926
  endloop
 endfacet
 facet normal 0.66525735573456524 0.27555857796189481 -0.69390209738310515
  outer loop
   vertex 10.71987247467041 4.8823723793029785 2.9739956855773926
   vertex 11.750341415405273 2.3945999145507813 2.9739956855773926
   vertex 9.914372444152832 3.9089725017547607 1.8151960372924805
  endloop
 endfacet
 facet normal 0.34963916976411202 -0.84410371571116272 0.40649891523750814
  outer loop
   vertex 7.4265999794006348 -2.0970416069030762 7.4266042709350586
   vertex 7.4265999794006348 -2.9659755229949951 5.6222443580627441
   vertex 10.528801918029785 -1.6810015439987183 5.6222443580627441
  endloop
 endfacet
 facet normal 0.3409001469550394 -0.82300591418551183 0.45436588232579989
  outer loop
   vertex 10.71987247467041 -0.093172632157802582 8.5854034423828125
   vertex 8.2320995330810547 -1.1236417293548584 8.5854034423828125
   vertex 9.914372444152832 -1.0665725469589233 7.4266042709350586
  endloop
 endfacet
 facet normal 0.38230483489713862 -0.9229656159197891 0.044468922227508347
  outer loop
   vertex 7.4265999794006348 -2.9659755229949951 3.6195559501647949
   vertex 4.3987016677856445 -4.3862018585205078 0.17355585098266602
   vertex 10.528801918029785 -1.6810015439987183 3.6195559501647949
  endloop
 endfacet
 facet normal 0.38268339748779151 -0.92387954695793595 0
  outer loop
   vertex 10.528801918029785 -1.6810015439987183 5.6222443580627441
   vertex 7.4265999794006348 -2.9659755229949951 3.6195559501647949
   vertex 10.528801918029785 -1.6810015439987183 3.6195559501647949
  endloop
 endfacet
 facet normal 0.30146660987119828 0.72780458520008706 -0.61596945451417962
  outer loop
   vertex 4.0271725654602051 6.5968723297119141 1.9898958206176758
   vertex 3.0208001136779785 3.3261415958404541 -2.3672041893005371
   vertex 1.5393999814987183 7.6273417472839355 1.9898958206176758
  endloop
 endfacet
 facet normal 0.2955899951412812 0.72819436473550747 -0.61835226363281637
  outer loop
   vertex 1.5393999814987183 7.6273417472839355 1.9898958206176758
   vertex 3.0208001136779785 3.3261415958404541 -2.3672041893005371
   vertex 1.364799976348877 2.4767417907714844 -4.1591038703918457
  endloop
 endfacet
 facet normal -0.8224395296908209 0.45503541994885982 -0.34137367589476814
  outer loop
   vertex -4.2201018333435059 4.9717016220092773 7.2109560966491699
   vertex -3.9882016181945801 5.8628015518188477 7.8400559425354004
   vertex -1.5628015995025635 7.211301326751709 3.7942557334899902
  endloop
 endfacet
 facet normal -0.354209147607563 0.85513612413441176 -0.37852092273941668
  outer loop
   vertex -1.4200016260147095 7.9465012550354004 5.3215556144714355
   vertex 1.5393999814987183 8.4962759017944336 3.7942557334899902
   vertex -1.5628015995025635 7.211301326751709 3.7942557334899902
  endloop
 endfacet
 facet normal -0.82542907119538489 0.45276211744540651 -0.33715473218075426
  outer loop
   vertex -4.1166014671325684 1.2722015380859375 2.070955753326416
   vertex -4.6003017425537109 3.2247016429901123 5.8771557807922363
   vertex -1.5628015995025635 7.211301326751709 3.7942557334899902
  endloop
 endfacet
 facet normal 0.38268347799853508 0.92387951360929343 0
  outer loop
   vertex 2.3541998863220215 11.47557544708252 11.871644020080566
   vertex 5.4564013481140137 10.190601348876953 9.8689565658569336
   vertex 2.3541998863220215 11.47557544708252 9.8689565658569336
  endloop
 endfacet
 facet normal -0.30423712259110913 0.73449336274888122 -0.60659646661955013
  outer loop
   vertex -0.94837254285812378 6.5968723297119141 1.9898958206176758
   vertex 1.364799976348877 2.4767417907714844 -4.1591038703918457
   vertex -1.1229726076126099 1.446272611618042 -4.1591038703918457
  endloop
 endfacet
 facet normal -0.82433819837051614 0.44578818442892476 -0.34891177872180573
  outer loop
   vertex -4.6003017425537109 3.2247016429901123 5.8771557807922363
   vertex -4.2201018333435059 4.9717016220092773 7.2109560966491699
   vertex -1.5628015995025635 7.211301326751709 3.7942557334899902
  endloop
 endfacet
 facet normal -0.85587481596816062 0.32516799824938691 -0.40217418155067347
  outer loop
   vertex -4.1166014671325684 1.2722015380859375 2.070955753326416
   vertex -1.7374016046524048 2.0607016086578369 -2.3547441959381104
   vertex -3.5021724700927734 0.6577724814414978 0.26659584045410156
  endloop
 endfacet
 facet normal 0.22674649340443567 -0.5474145107447328 0.80555780745698002
  outer loop
   vertex -0.88599997758865356 0.80812329053878784 12.895759582519531
   vertex 0.49460962414741516 1.3799904584884644 12.895759582519531
   vertex 2.3541998863220215 5.135922908782959 14.924659729003906
  endloop
 endfacet
 facet normal 0.091782273614420262 -0.22158190062392133 0.9708127912043899
  outer loop
   vertex 2.3541998863220215 7.0883998870849609 15.37030029296875
   vertex 2.3541998863220215 5.135922908782959 14.924659729003906
   vertex 3.734809398651123 5.7077903747558594 14.924659729003906
  endloop
 endfacet
 facet normal 0.6036825275983424 0.2500536134416308 0.75699444930412796
  outer loop
   vertex 3.734809398651123 8.4690093994140625 14.924659729003906
   vertex 4.3066768646240234 7.0883998870849609 14.924659729003906
   vertex 4.8419723510742188 9.5761728286743164 13.676004409790039
  endloop
 endfacet
 facet normal 0.60368262609434631 0.2500535614445446 0.75699438793212526
  outer loop
   vertex 4.3066768646240234 7.0883998870849609 14.924659729003906
   vertex 5.8724417686462402 7.0883998870849609 13.676004409790039
   vertex 4.8419723510742188 9.5761728286743164 13.676004409790039
  endloop
 endfacet
 facet normal 0.28298116644158117 0.85360337154637533 -0.43735905560994492
  outer loop
   vertex 8.2320995330810547 5.912841796875 2.9739956855773926
   vertex 1.5393999814987183 7.6273417472839355 1.9898958206176758
   vertex 1.6821999549865723 8.3625411987304688 3.5171957015991211
  endloop
 endfacet
 facet normal -0.35579919581983432 0.85897483828003007 -0.3681971746982251
  outer loop
   vertex 1.6821999549865723 9.231475830078125 5.3215556144714355
   vertex -1.4200016260147095 7.9465012550354004 5.3215556144714355
   vertex -0.99990171194076538 9.4308013916015625 8.3783559799194336
  endloop
 endfacet
 facet normal 0.28821254229679916 0.86273762034338841 -0.41547241654175227
  outer loop
   vertex 8.2320995330810547 6.7817754745483398 4.778355598449707
   vertex 8.2320995330810547 5.912841796875 2.9739956855773926
   vertex 1.6821999549865723 8.3625411987304688 3.5171957015991211
  endloop
 endfacet
 facet normal -0.354209147607563 0.85513612413441176 -0.37852092273941668
  outer loop
   vertex 1.6821999549865723 9.231475830078125 5.3215556144714355
   vertex 1.5393999814987183 8.4962759017944336 3.7942557334899902
   vertex -1.4200016260147095 7.9465012550354004 5.3215556144714355
  endloop
 endfacet
 facet normal -0.34963927539748496 0.84410363659249954 -0.40649898867136069
  outer loop
   vertex 1.5393999814987183 8.4962759017944336 3.7942557334899902
   vertex 1.5393999814987183 7.6273417472839355 1.9898958206176758
   vertex -0.94837254285812378 6.5968723297119141 1.9898958206176758
  endloop
 endfacet
 facet normal -0.38268345917064184 0.92387952140806318 0
  outer loop
   vertex -0.74800175428390503 10.190601348876953 11.871644020080566
   vertex 2.3541998863220215 11.47557544708252 9.8689565658569336
   vertex -0.74800175428390503 10.190601348876953 9.8689565658569336
  endloop
 endfacet
 facet normal -0.74055992312012342 0.62993537404147393 -0.23399236055808528
  outer loop
   vertex -1.5628015995025635 7.211301326751709 3.7942557334899902
   vertex -3.9882016181945801 5.8628015518188477 7.8400559425354004
   vertex -1.4200016260147095 7.9465012550354004 5.3215556144714355
  endloop
 endfacet
 facet normal -0.81065200356910827 0.4117813384862255 0.4162684931434073
  outer loop
   vertex -3.3737726211547852 5.2483725547790527 11.647104263305664
   vertex -0.13357265293598175 9.5761728286743164 13.676004409790039
   vertex -0.74800175428390503 10.190601348876953 11.871644020080566
  endloop
 endfacet
 facet normal 0.76039490731982573 0.49031669445904774 0.42589802072424165
  outer loop
   vertex 10.71987247467041 4.8823723793029785 8.5854034423828125
   vertex 11.334300994873047 5.4968013763427734 6.7810440063476563
   vertex 5.4564013481140137 10.190601348876953 11.871644020080566
  endloop
 endfacet
 facet normal 0.75192523412256818 0.31145758323813466 0.58103581312444186
  outer loop
   vertex 11.750341415405273 2.3945999145507813 8.5854034423828125
   vertex 10.71987247467041 4.8823723793029785 8.5854034423828125
   vertex 5.8724417686462402 7.0883998870849609 13.676004409790039
  endloop
 endfacet
 facet normal 0.29045169855598957 0.84448686953232843 -0.44997748609616978
  outer loop
   vertex 8.2320995330810547 6.7817754745483398 4.778355598449707
   vertex 1.6821999549865723 8.3625411987304688 3.5171957015991211
   vertex 2.1022999286651611 9.8468418121337891 6.5739955902099609
  endloop
 endfacet
 facet normal -0.22158191743761496 -0.091782237530576988 0.97081279077819671
  outer loop
   vertex 2.3541998863220215 7.0883998870849609 15.37030029296875
   vertex 0.40172305703163147 7.0883998870849609 14.924659729003906
   vertex 0.97359025478363037 5.7077903747558594 14.924659729003906
  endloop
 endfacet
 facet normal 0.62400417287958287 0.78142100831041628 -0
  outer loop
   vertex 11.334300994873047 5.4968013763427734 6.7810440063476563
   vertex 11.334300994873047 5.4968013763427734 4.778355598449707
   vertex 5.4564013481140137 10.190601348876953 9.8689565658569336
  endloop
 endfacet
 facet normal -0.34963927677040435 0.8441038146466191 0.40649861775717611
  outer loop
   vertex -0.13357265293598175 9.5761728286743164 13.676004409790039
   vertex 2.3541998863220215 11.47557544708252 11.871644020080566
   vertex -0.74800175428390503 10.190601348876953 11.871644020080566
  endloop
 endfacet
 facet normal -0.026203371472911612 0.90065936922339895 -0.43373503888152964
  outer loop
   vertex 1.6821999549865723 8.3625411987304688 3.5171957015991211
   vertex 1.6821999549865723 9.231475830078125 5.3215556144714355
   vertex 2.1022999286651611 9.8468418121337891 6.5739955902099609
  endloop
 endfacet
 facet normal 0.001952835248201717 0.90096701446108252 -0.43388319313794238
  outer loop
   vertex 1.5393999814987183 8.4962759017944336 3.7942557334899902
   vertex 1.6821999549865723 9.231475830078125 5.3215556144714355
   vertex 1.6821999549865723 8.3625411987304688 3.5171957015991211
  endloop
 endfacet
 facet normal -0.14843308341167522 0.89098843812805606 -0.42907717589150546
  outer loop
   vertex 2.1022999286651611 10.715775489807129 8.3783559799194336
   vertex 2.3541998863220215 11.47557544708252 9.8689565658569336
   vertex 2.3541998863220215 10.60664176940918 8.0645961761474609
  endloop
 endfacet
 facet normal 0.53204556069576026 -0.22038059557037715 0.81753282162857532
  outer loop
   vertex 10.184576034545898 2.3945999145507813 9.8340597152709961
   vertex 4.3066768646240234 7.0883998870849609 14.924659729003906
   vertex 3.734809398651123 5.7077903747558594 14.924659729003906
  endloop
 endfacet
 facet normal 0.097251167936835872 0.87996510401699979 -0.46497701668713914
  outer loop
   vertex 2.1022999286651611 9.8468418121337891 6.5739955902099609
   vertex 1.6821999549865723 9.231475830078125 5.3215556144714355
   vertex 2.3541998863220215 10.60664176940918 8.0645961761474609
  endloop
 endfacet
 facet normal -0.13165922536403568 0.89871694877994912 -0.41829857082256511
  outer loop
   vertex 1.6821999549865723 9.231475830078125 5.3215556144714355
   vertex 2.1022999286651611 10.715775489807129 8.3783559799194336
   vertex 2.3541998863220215 10.60664176940918 8.0645961761474609
  endloop
 endfacet
 facet normal 0.34963918771042318 0.844103795272097 -0.40649873459143387
  outer loop
   vertex 2.3541998863220215 11.47557544708252 9.8689565658569336
   vertex 4.8419723510742188 9.5761728286743164 8.0645961761474609
   vertex 2.3541998863220215 10.60664176940918 8.0645961761474609
  endloop
 endfacet
 facet normal 0.34963929635756619 0.84410381327923545 0.40649860374918856
  outer loop
   vertex 4.8419723510742188 9.5761728286743164 13.676004409790039
   vertex 5.4564013481140137 10.190601348876953 11.871644020080566
   vertex 2.3541998863220215 11.47557544708252 11.871644020080566
  endloop
 endfacet
 facet normal -0.73299793370173483 0.64603544716732586 -0.21296063061584988
  outer loop
   vertex -1.4200016260147095 7.9465012550354004 5.3215556144714355
   vertex -3.9882016181945801 5.8628015518188477 7.8400559425354004
   vertex -0.99990171194076538 9.4308013916015625 8.3783559799194336
  endloop
 endfacet
 facet normal -0.81065198390523807 0.41178132572564724 0.41626854406035779
  outer loop
   vertex -3.9882016181945801 5.8628015518188477 9.8427438735961914
   vertex -3.3737726211547852 5.2483725547790527 11.647104263305664
   vertex -0.74800175428390503 10.190601348876953 11.871644020080566
  endloop
 endfacet
 facet normal -0.35454267267949535 0.8559416585805667 -0.37638194743588438
  outer loop
   vertex 2.3541998863220215 11.47557544708252 9.8689565658569336
   vertex 2.1022999286651611 10.715775489807129 8.3783559799194336
   vertex -0.74800175428390503 10.190601348876953 9.8689565658569336
  endloop
 endfacet
 facet normal 0.22913143812618605 -0.55317221252450077 0.80093650644291048
  outer loop
   vertex 8.2320995330810547 0.44212308526039124 9.8340597152709961
   vertex 9.6127090454101563 1.0139902830123901 9.8340597152709961
   vertex 4.8419723510742188 4.6006274223327637 13.676004409790039
  endloop
 endfacet
 facet normal -0.73483593047271134 0.64642167366271652 -0.20531725476782769
  outer loop
   vertex -0.99990171194076538 9.4308013916015625 8.3783559799194336
   vertex -3.9882016181945801 5.8628015518188477 7.8400559425354004
   vertex -0.74800175428390503 10.190601348876953 9.8689565658569336
  endloop
 endfacet
 facet normal -0.80050135023657465 0.59933095053519558 0
  outer loop
   vertex -3.9882016181945801 5.8628015518188477 7.8400559425354004
   vertex -3.9882016181945801 5.8628015518188477 9.8427438735961914
   vertex -0.74800175428390503 10.190601348876953 9.8689565658569336
  endloop
 endfacet
 facet normal -0.22158191743761496 0.091782237530576988 0.97081279077819671
  outer loop
   vertex 2.3541998863220215 7.0883998870849609 15.37030029296875
   vertex 0.97359025478363037 8.4690093994140625 14.924659729003906
   vertex 0.40172305703163147 7.0883998870849609 14.924659729003906
  endloop
 endfacet
 facet normal 0.38268347799853508 0.92387951360929343 -0
  outer loop
   vertex 5.4564013481140137 10.190601348876953 11.871644020080566
   vertex 5.4564013481140137 10.190601348876953 9.8689565658569336
   vertex 2.3541998863220215 11.47557544708252 11.871644020080566
  endloop
 endfacet
 facet normal -0.13821498683909395 -0.33368054853614576 0.9324987447400056
  outer loop
   vertex -2.2666096687316895 1.3799904584884644 12.895759582519531
   vertex -0.88599997758865356 0.80812329053878784 12.895759582519531
   vertex 0.97359025478363037 5.7077903747558594 14.924659729003906
  endloop
 endfacet
 facet normal 0.28852512336693859 -0.57494873505102195 0.76562863403174952
  outer loop
   vertex 3.734809398651123 5.7077903747558594 14.924659729003906
   vertex 0.49460962414741516 1.3799904584884644 12.895759582519531
   vertex 4.8419723510742188 4.6006274223327637 13.676004409790039
  endloop
 endfacet
 facet normal 0.22674664166594627 -0.54741454794967892 0.80555774044215089
  outer loop
   vertex 2.3541998863220215 5.135922908782959 14.924659729003906
   vertex 0.49460962414741516 1.3799904584884644 12.895759582519531
   vertex 3.734809398651123 5.7077903747558594 14.924659729003906
  endloop
 endfacet
 facet normal -0.091782265756203116 -0.2215819007850939 0.97081279191053238
  outer loop
   vertex 2.3541998863220215 7.0883998870849609 15.37030029296875
   vertex 0.97359025478363037 5.7077903747558594 14.924659729003906
   vertex 2.3541998863220215 5.135922908782959 14.924659729003906
  endloop
 endfacet
 facet normal 0.2533370965813298 -0.53691585920810603 0.80469974252920151
  outer loop
   vertex 0.49460962414741516 1.3799904584884644 12.895759582519531
   vertex 8.2320995330810547 0.44212308526039124 9.8340597152709961
   vertex 4.8419723510742188 4.6006274223327637 13.676004409790039
  endloop
 endfacet
 facet normal 0.22084644474285825 -0.62426469104011983 0.74934667768998831
  outer loop
   vertex 1.6017725467681885 0.27282753586769104 11.647104263305664
   vertex 8.2320995330810547 0.44212308526039124 9.8340597152709961
   vertex 0.49460962414741516 1.3799904584884644 12.895759582519531
  endloop
 endfacet
 facet normal 0.34963929635756619 0.84410381327923545 -0.40649860374918856
  outer loop
   vertex 5.4564013481140137 10.190601348876953 9.8689565658569336
   vertex 4.8419723510742188 9.5761728286743164 8.0645961761474609
   vertex 2.3541998863220215 11.47557544708252 9.8689565658569336
  endloop
 endfacet
 facet normal 0.35407900385170299 0.85482221382713242 -0.3793508162361931
  outer loop
   vertex 11.334300994873047 5.4968013763427734 4.778355598449707
   vertex 8.2320995330810547 6.7817754745483398 4.778355598449707
   vertex 5.4564013481140137 10.190601348876953 9.8689565658569336
  endloop
 endfacet
 facet normal 0.76039491913193435 0.49031678067737933 0.42589790037579373
  outer loop
   vertex 4.8419723510742188 9.5761728286743164 13.676004409790039
   vertex 10.71987247467041 4.8823723793029785 8.5854034423828125
   vertex 5.4564013481140137 10.190601348876953 11.871644020080566
  endloop
 endfacet
 facet normal 0.75192523033500147 0.31145766609472009 0.5810357736116466
  outer loop
   vertex 5.8724417686462402 7.0883998870849609 13.676004409790039
   vertex 10.71987247467041 4.8823723793029785 8.5854034423828125
   vertex 4.8419723510742188 9.5761728286743164 13.676004409790039
  endloop
 endfacet
 facet normal 0.091782218854618944 0.22158195318261378 0.97081278438528029
  outer loop
   vertex 2.3541998863220215 7.0883998870849609 15.37030029296875
   vertex 3.734809398651123 8.4690093994140625 14.924659729003906
   vertex 2.3541998863220215 9.0408763885498047 14.924659729003906
  endloop
 endfacet
 facet normal -0.38268345917064184 0.92387952140806318 0
  outer loop
   vertex 2.3541998863220215 11.47557544708252 11.871644020080566
   vertex 2.3541998863220215 11.47557544708252 9.8689565658569336
   vertex -0.74800175428390503 10.190601348876953 11.871644020080566
  endloop
 endfacet
 facet normal -0.62037848305869236 0.099775294811680043 0.77793022071586737
  outer loop
   vertex -4.4042415618896484 2.7606000900268555 11.647104263305664
   vertex -2.8384768962860107 2.7606000900268555 12.895759582519531
   vertex -1.1640417575836182 7.0883998870849609 13.676004409790039
  endloop
 endfacet
 facet normal -0.77137502065726571 0.3195139474000096 0.55035571671680383
  outer loop
   vertex -3.3737726211547852 5.2483725547790527 11.647104263305664
   vertex -4.4042415618896484 2.7606000900268555 11.647104263305664
   vertex -1.1640417575836182 7.0883998870849609 13.676004409790039
  endloop
 endfacet
 facet normal -0.62037844815499288 0.099775275850687933 0.77793025098251711
  outer loop
   vertex -2.8384768962860107 2.7606000900268555 12.895759582519531
   vertex 0.40172305703163147 7.0883998870849609 14.924659729003906
   vertex -1.1640417575836182 7.0883998870849609 13.676004409790039
  endloop
 endfacet
 facet normal -0.36948922154405611 -0.15304745030150038 0.91654470328455739
  outer loop
   vertex 0.40172305703163147 7.0883998870849609 14.924659729003906
   vertex -2.8384768962860107 2.7606000900268555 12.895759582519531
   vertex 0.97359025478363037 5.7077903747558594 14.924659729003906
  endloop
 endfacet
 facet normal -0.34963917851923632 0.84410379836250282 0.40649873607969406
  outer loop
   vertex 2.3541998863220215 10.60664176940918 13.676004409790039
   vertex 2.3541998863220215 11.47557544708252 11.871644020080566
   vertex -0.13357265293598175 9.5761728286743164 13.676004409790039
  endloop
 endfacet
 facet normal -0.80050135023657454 0.59933095053519547 0
  outer loop
   vertex -3.9882016181945801 5.8628015518188477 9.8427438735961914
   vertex -0.74800175428390503 10.190601348876953 11.871644020080566
   vertex -0.74800175428390503 10.190601348876953 9.8689565658569336
  endloop
 endfacet
 facet normal 0.35642922251865916 0.86049639184913906 -0.36401122091133009
  outer loop
   vertex 4.8419723510742188 9.5761728286743164 8.0645961761474609
   vertex 8.2320995330810547 6.7817754745483398 4.778355598449707
   vertex 2.3541998863220215 10.60664176940918 8.0645961761474609
  endloop
 endfacet
 facet normal 0.27922500060851885 0.83558521639659422 -0.47310754081353368
  outer loop
   vertex 8.2320995330810547 6.7817754745483398 4.778355598449707
   vertex 2.1022999286651611 9.8468418121337891 6.5739955902099609
   vertex 2.3541998863220215 10.60664176940918 8.0645961761474609
  endloop
 endfacet
 facet normal -0.35454267267949535 0.8559416585805667 -0.37638194743588438
  outer loop
   vertex -0.74800175428390503 10.190601348876953 9.8689565658569336
   vertex 2.1022999286651611 10.715775489807129 8.3783559799194336
   vertex -0.99990171194076538 9.4308013916015625 8.3783559799194336
  endloop
 endfacet
 facet normal -0.091782210996406405 0.22158195334378622 0.97081278509142199
  outer loop
   vertex 2.3541998863220215 7.0883998870849609 15.37030029296875
   vertex 2.3541998863220215 9.0408763885498047 14.924659729003906
   vertex 0.97359025478363037 8.4690093994140625 14.924659729003906
  endloop
 endfacet
 facet normal -0.77137501921388274 0.31951393638402625 0.55035572513526787
  outer loop
   vertex -0.13357265293598175 9.5761728286743164 13.676004409790039
   vertex -3.3737726211547852 5.2483725547790527 11.647104263305664
   vertex -1.1640417575836182 7.0883998870849609 13.676004409790039
  endloop
 endfacet
 facet normal -0.25005346022523373 0.60368256344645932 0.75699447132730036
  outer loop
   vertex 0.97359025478363037 8.4690093994140625 14.924659729003906
   vertex 2.3541998863220215 10.60664176940918 13.676004409790039
   vertex -0.13357265293598175 9.5761728286743164 13.676004409790039
  endloop
 endfacet
 facet normal -0.25005338909519287 0.60368254146891309 0.75699451234975423
  outer loop
   vertex 0.97359025478363037 8.4690093994140625 14.924659729003906
   vertex 2.3541998863220215 9.0408763885498047 14.924659729003906
   vertex 2.3541998863220215 10.60664176940918 13.676004409790039
  endloop
 endfacet
 facet normal -0.60368265731010018 0.25005349844034436 0.75699438385021123
  outer loop
   vertex 0.40172305703163147 7.0883998870849609 14.924659729003906
   vertex -0.13357265293598175 9.5761728286743164 13.676004409790039
   vertex -1.1640417575836182 7.0883998870849609 13.676004409790039
  endloop
 endfacet
 facet normal -0.6036826027016734 0.25005352726871999 0.75699441787625155
  outer loop
   vertex 0.40172305703163147 7.0883998870849609 14.924659729003906
   vertex 0.97359025478363037 8.4690093994140625 14.924659729003906
   vertex -0.13357265293598175 9.5761728286743164 13.676004409790039
  endloop
 endfacet
 facet normal -0.10402482286363758 -0.78816177407103272 0.60661343054814654
  outer loop
   vertex 9.6127090454101563 1.0139902830123901 9.8340597152709961
   vertex 3.734809398651123 5.7077903747558594 14.924659729003906
   vertex 4.8419723510742188 4.6006274223327637 13.676004409790039
  endloop
 endfacet
 facet normal 0.53204564188117454 -0.22038042641086703 0.81753281439353453
  outer loop
   vertex 3.734809398651123 5.7077903747558594 14.924659729003906
   vertex 9.6127090454101563 1.0139902830123901 9.8340597152709961
   vertex 10.184576034545898 2.3945999145507813 9.8340597152709961
  endloop
 endfacet
endsolid
