solid Visualization Toolkit generated SLA File
 facet normal 0.30758533274403244 0.12740597291836978 -0.94295226875248905
  outer loop
   vertex 8.395909309387207 9.1515092849731445 -4.9704599380493164
   vertex 8.9677762985229492 7.770899772644043 -4.9704599380493164
   vertex 6.4919095039367676 3.4080095291137695 -6.3675599098205566
  endloop
 endfacet
 facet normal 0.18541261669468562 0.17379763592444686 -0.96716934572881441
  outer loop
   vertex 7.0345096588134766 8.2694101333618164 -5.3899598121643066
   vertex 8.395909309387207 9.1515092849731445 -4.9704599380493164
   vertex 6.4919095039367676 3.4080095291137695 -6.3675599098205566
  endloop
 endfacet
 facet normal -0.70214885190062881 0.46418032616412347 -0.53992926812388753
  outer loop
   vertex -4.2093725204467773 4.0775723457336426 -2.4952042102813721
   vertex -0.55177253484725952 6.3783726692199707 -5.2737040519714355
   vertex -1.537272572517395 3.0324726104736328 -6.8686041831970215
  endloop
 endfacet
 facet normal 0.47353540426024021 -0.40724304777820886 -0.78097203595801457
  outer loop
   vertex 7.5990724563598633 -0.46037253737449646 -5.1189041137695313
   vertex 3.4382724761962891 -1.9430725574493408 -6.8686041831970215
   vertex 6.4919095039367676 0.64679038524627686 -6.3675599098205566
  endloop
 endfacet
 facet normal -0.61599346024039614 -0.25515286028890977 0.74528455963306495
  outer loop
   vertex -3.5137417316436768 0.90410000085830688 8.8589038848876953
   vertex -2.4832725524902344 -1.5836725234985352 8.8589038848876953
   vertex -1.486541748046875 1.1675000190734863 10.624604225158691
  endloop
 endfacet
 facet normal -0.094168967701866696 0.45084214080740947 -0.88762242513027856
  outer loop
   vertex 1.9359999895095825 5.8430767059326172 -6.5223598480224609
   vertex 4.3853998184204102 7.832676887512207 -5.7716598510742188
   vertex 0.9505000114440918 2.4971768856048584 -8.1172599792480469
  endloop
 endfacet
 facet normal -0.32959083325081739 0.66035488535900355 -0.67476018556189976
  outer loop
   vertex 4.3853998184204102 7.832676887512207 -5.7716598510742188
   vertex 1.9359999895095825 5.8430767059326172 -6.5223598480224609
   vertex 3.0704998970031738 6.8382768630981445 -6.1025595664978027
  endloop
 endfacet
 facet normal -0.26677966309889262 0.60295188388064003 -0.75184947767596977
  outer loop
   vertex 1.6898902654647827 6.2664093971252441 -6.1025595664978027
   vertex 1.9359999895095825 7.408841609954834 -5.2737040519714355
   vertex 3.0047903060913086 7.2608094215393066 -5.7716598510742188
  endloop
 endfacet
 facet normal -0.31339433227069147 0.75660096060384796 -0.57388063124132527
  outer loop
   vertex 7.0152997970581055 11.289141654968262 -3.721804141998291
   vertex 5.653900146484375 10.407041549682617 -4.1413040161132813
   vertex 4.5275273323059082 10.258672714233398 -3.721804141998291
  endloop
 endfacet
 facet normal -0.25059227428748027 0.60329333501305404 -0.75712658386577281
  outer loop
   vertex 0.58272737264633179 7.3735723495483398 -4.8539037704467773
   vertex 1.9359999895095825 7.408841609954834 -5.2737040519714355
   vertex 1.6898902654647827 6.2664093971252441 -6.1025595664978027
  endloop
 endfacet
 facet normal -0.84410368434225103 0.34963913338476471 0.40649901166643476
  outer loop
   vertex -5.3607416152954102 0.63980001211166382 7.0043039321899414
   vertex -4.3302726745605469 3.1275725364685059 7.0043039321899414
   vertex -6.2296757698059082 0.63980001211166382 5.199944019317627
  endloop
 endfacet
 facet normal -0.84410370264469647 0.34963924381338363 0.40649887867879703
  outer loop
   vertex -4.3302726745605469 3.1275725364685059 7.0043039321899414
   vertex -4.9447016716003418 3.7420015335083008 5.199944019317627
   vertex -6.2296757698059082 0.63980001211166382 5.199944019317627
  endloop
 endfacet
 facet normal -0.82554716688323049 -0.38530504477391153 -0.41232499041756554
  outer loop
   vertex -4.8238015174865723 -1.5124015808105469 -0.69084417819976807
   vertex -4.2093725204467773 -0.89797252416610718 -2.4952042102813721
   vertex -2.1517016887664795 -2.5575015544891357 -5.064244270324707
  endloop
 endfacet
 facet normal 0.43518136554063813 -0.18025802175356478 -0.88211349875153644
  outer loop
   vertex 2.3311095237731934 -0.83590960502624512 -8.1172599792480469
   vertex 2.9029767513275146 0.544700026512146 -8.1172599792480469
   vertex 6.4919095039367676 0.64679038524627686 -6.3675599098205566
  endloop
 endfacet
 facet normal -0.58961739381604494 0.80428396150461379 -0.074017823367215158
  outer loop
   vertex 1.2831982374191284 8.9824018478393555 -0.71595585346221924
   vertex -0.031701724976301193 7.9880013465881348 -1.0468556880950928
   vertex -4.8238015174865723 4.6920018196105957 1.3118442296981812
  endloop
 endfacet
 facet normal -0.25036357329267406 0.60443139268559332 -0.75629410463408864
  outer loop
   vertex 1.6898902654647827 6.2664093971252441 -6.1025595664978027
   vertex 1.9359999895095825 5.8430767059326172 -6.5223598480224609
   vertex 0.55539035797119141 5.271209716796875 -6.5223598480224609
  endloop
 endfacet
 facet normal 0.47009995388110215 -0.41087421668514662 -0.78114557633283255
  outer loop
   vertex 7.5990724563598633 -0.46037253737449646 -5.1189041137695313
   vertex 6.4919095039367676 0.64679038524627686 -6.3675599098205566
   vertex 8.6162099838256836 1.4017902612686157 -5.486259937286377
  endloop
 endfacet
 facet normal -0.4815557131883802 0.76647912785246897 -0.42498687234095717
  outer loop
   vertex 1.2831982374191284 8.9824018478393555 -2.7186441421508789
   vertex 2.5516984462738037 9.991002082824707 -2.3369441032409668
   vertex 3.1661276817321777 9.3765726089477539 -4.1413040161132813
  endloop
 endfacet
 facet normal 0.27212227265967148 -0.96226268176758034 0
  outer loop
   vertex 4.3847999572753906 -2.8712756633758545 0.40034419298171997
   vertex 0.9505000114440918 -3.8424756526947021 -3.0615558624267578
   vertex 4.3847999572753906 -2.8712756633758545 -1.6023441553115845
  endloop
 endfacet
 facet normal -0.24970236405381968 0.60393650680392552 -0.75690780491114351
  outer loop
   vertex 0.55539035797119141 5.271209716796875 -6.5223598480224609
   vertex -0.55177253484725952 6.3783726692199707 -5.2737040519714355
   vertex 1.6898902654647827 6.2664093971252441 -6.1025595664978027
  endloop
 endfacet
 facet normal -0.24970236405381968 0.60393650680392552 -0.75690780491114351
  outer loop
   vertex 1.6898902654647827 6.2664093971252441 -6.1025595664978027
   vertex -0.55177253484725952 6.3783726692199707 -5.2737040519714355
   vertex 0.58272737264633179 7.3735723495483398 -4.8539037704467773
  endloop
 endfacet
 facet normal 0.45659658175618589 -0.78313542738039732 -0.42215928736708991
  outer loop
   vertex 4.052701473236084 -2.5575015544891357 -5.064244270324707
   vertex 3.4382724761962891 -1.9430725574493408 -6.8686041831970215
   vertex 7.5990724563598633 -0.46037253737449646 -5.1189041137695313
  endloop
 endfacet
 facet normal -0.8441037002537195 -0.34963922938730996 0.40649889605191664
  outer loop
   vertex -4.3302726745605469 -1.8479725122451782 7.0043039321899414
   vertex -6.2296757698059082 0.63980001211166382 5.199944019317627
   vertex -4.9447016716003418 -2.4624016284942627 5.199944019317627
  endloop
 endfacet
 facet normal -0.84410368434225103 -0.34963913338476471 0.40649901166643476
  outer loop
   vertex -4.3302726745605469 -1.8479725122451782 7.0043039321899414
   vertex -5.3607416152954102 0.63980001211166382 7.0043039321899414
   vertex -6.2296757698059082 0.63980001211166382 5.199944019317627
  endloop
 endfacet
 facet normal -0.40133336081520604 0.81664692841820663 -0.41475212814629403
  outer loop
   vertex 2.5516984462738037 9.991002082824707 -2.3369441032409668
   vertex 3.9130980968475342 10.873101234436035 -1.9174442291259766
   vertex 4.5275273323059082 10.258672714233398 -3.721804141998291
  endloop
 endfacet
 facet normal 0.11464748579320816 0.27678360957664494 -0.95406854443012623
  outer loop
   vertex 8.395909309387207 9.1515092849731445 -4.9704599380493164
   vertex 7.0345096588134766 8.2694101333618164 -5.3899598121643066
   vertex 7.0152997970581055 9.7233762741088867 -4.9704599380493164
  endloop
 endfacet
 facet normal 0.099519156344332685 0.24026057897763928 -0.96559349195706679
  outer loop
   vertex 7.0345096588134766 8.2694101333618164 -5.3899598121643066
   vertex 5.7660093307495117 7.2608094215393066 -5.7716598510742188
   vertex 5.653900146484375 8.8412771224975586 -5.3899598121643066
  endloop
 endfacet
 facet normal -0.62235952530183603 0.7827315128868092 0
  outer loop
   vertex 1.2831982374191284 8.9824018478393555 -0.71595585346221924
   vertex 2.5516984462738037 9.991002082824707 -0.33425581455230713
   vertex 2.5516984462738037 9.991002082824707 -2.3369441032409668
  endloop
 endfacet
 facet normal 0.3376500976322796 0.14920476392927867 -0.92937094315979152
  outer loop
   vertex 2.3311095237731934 1.9253096580505371 -8.1172599792480469
   vertex 7.0345096588134766 8.2694101333618164 -5.3899598121643066
   vertex 6.4919095039367676 3.4080095291137695 -6.3675599098205566
  endloop
 endfacet
 facet normal -0.23839556492946445 0.57553752262991198 -0.78225578595941692
  outer loop
   vertex 4.3853998184204102 7.832676887512207 -5.7716598510742188
   vertex 3.0704998970031738 6.8382768630981445 -6.1025595664978027
   vertex 3.0047903060913086 7.2608094215393066 -5.7716598510742188
  endloop
 endfacet
 facet normal -0.25136202758260312 0.6027363414132475 -0.75731501624445285
  outer loop
   vertex 1.8976272344589233 8.3679723739624023 -4.5230040550231934
   vertex 3.1661276817321777 9.3765726089477539 -4.1413040161132813
   vertex 4.2732906341552734 8.2694101333618164 -5.3899598121643066
  endloop
 endfacet
 facet normal -0.25136208451538272 0.6027361491187877 -0.757315150392184
  outer loop
   vertex 3.0047903060913086 7.2608094215393066 -5.7716598510742188
   vertex 1.8976272344589233 8.3679723739624023 -4.5230040550231934
   vertex 4.2732906341552734 8.2694101333618164 -5.3899598121643066
  endloop
 endfacet
 facet normal -0.47582105746256986 0.77039397059480119 -0.42436711859706866
  outer loop
   vertex -0.031701724976301193 7.9880013465881348 -3.049544095993042
   vertex 1.2831982374191284 8.9824018478393555 -2.7186441421508789
   vertex 1.8976272344589233 8.3679723739624023 -4.5230040550231934
  endloop
 endfacet
 facet normal -0.47582099387262422 0.77039406983211944 -0.42436700974224134
  outer loop
   vertex 0.58272737264633179 7.3735723495483398 -4.8539037704467773
   vertex -0.031701724976301193 7.9880013465881348 -3.049544095993042
   vertex 1.8976272344589233 8.3679723739624023 -4.5230040550231934
  endloop
 endfacet
 facet normal -0.27414793532310228 0.58590776069354888 -0.76259753836289779
  outer loop
   vertex 1.9359999895095825 7.408841609954834 -5.2737040519714355
   vertex 1.8976272344589233 8.3679723739624023 -4.5230040550231934
   vertex 3.0047903060913086 7.2608094215393066 -5.7716598510742188
  endloop
 endfacet
 facet normal -0.31339433227069147 0.75660096060384796 -0.57388063124132527
  outer loop
   vertex 5.653900146484375 10.407041549682617 -4.1413040161132813
   vertex 3.1661276817321777 9.3765726089477539 -4.1413040161132813
   vertex 4.5275273323059082 10.258672714233398 -3.721804141998291
  endloop
 endfacet
 facet normal -0.24870095950922513 0.6004173193063701 -0.76003083846390296
  outer loop
   vertex 5.653900146484375 10.407041549682617 -4.1413040161132813
   vertex 4.3853998184204102 9.3984413146972656 -4.5230040550231934
   vertex 3.1661276817321777 9.3765726089477539 -4.1413040161132813
  endloop
 endfacet
 facet normal -0.2187840633660311 0.5803111085991266 -0.7844568508551002
  outer loop
   vertex 3.0704998970031738 6.8382768630981445 -6.1025595664978027
   vertex 1.9359999895095825 5.8430767059326172 -6.5223598480224609
   vertex 3.0047903060913086 7.2608094215393066 -5.7716598510742188
  endloop
 endfacet
 facet normal -0.26204584748033999 0.59843981402395297 -0.7571008934146668
  outer loop
   vertex 1.9359999895095825 5.8430767059326172 -6.5223598480224609
   vertex 1.6898902654647827 6.2664093971252441 -6.1025595664978027
   vertex 3.0047903060913086 7.2608094215393066 -5.7716598510742188
  endloop
 endfacet
 facet normal 0.60368267031537359 0.25005346405608758 -0.7569943848368037
  outer loop
   vertex 10.533541679382324 7.770899772644043 -3.721804141998291
   vertex 8.9677762985229492 7.770899772644043 -4.9704599380493164
   vertex 8.395909309387207 9.1515092849731445 -4.9704599380493164
  endloop
 endfacet
 facet normal -0.82872314973561945 -0.34326846730381461 -0.442023416175166
  outer loop
   vertex -4.2093725204467773 -0.89797252416610718 -2.4952042102813721
   vertex -5.2398419380187988 1.5898000001907349 -2.4952042102813721
   vertex -3.4366755485534668 0.544700026512146 -5.064244270324707
  endloop
 endfacet
 facet normal -0.60368257123605473 0.25005363151697196 0.75699440853351085
  outer loop
   vertex 4.7057905197143555 2.9768095016479492 15.544259071350098
   vertex 3.5986275672912598 4.0839724540710449 14.29560375213623
   vertex 4.1339230537414551 1.5961999893188477 15.544259071350098
  endloop
 endfacet
 facet normal -0.16094316000037137 0.61536165820964284 -0.77163937746500066
  outer loop
   vertex 5.653900146484375 10.407041549682617 -4.1413040161132813
   vertex 7.0152997970581055 11.289141654968262 -3.721804141998291
   vertex 7.0152997970581055 9.7233762741088867 -4.9704599380493164
  endloop
 endfacet
 facet normal -0.24765417918161164 0.60541320552506139 -0.75640085808369628
  outer loop
   vertex 3.1661276817321777 9.3765726089477539 -4.1413040161132813
   vertex 4.3853998184204102 9.3984413146972656 -4.5230040550231934
   vertex 4.2732906341552734 8.2694101333618164 -5.3899598121643066
  endloop
 endfacet
 facet normal 0.25005346405168793 0.60368267031401412 -0.75699438483934101
  outer loop
   vertex 9.5030727386474609 10.258672714233398 -3.721804141998291
   vertex 8.395909309387207 9.1515092849731445 -4.9704599380493164
   vertex 7.0152997970581055 11.289141654968262 -3.721804141998291
  endloop
 endfacet
 facet normal -0.25207464505805421 0.60335603842961283 -0.75658434044683986
  outer loop
   vertex 4.3853998184204102 9.3984413146972656 -4.5230040550231934
   vertex 5.653900146484375 10.407041549682617 -4.1413040161132813
   vertex 5.653900146484375 8.8412771224975586 -5.3899598121643066
  endloop
 endfacet
 facet normal -0.6186574123602685 0.78542106920733645 -0.019410053500730093
  outer loop
   vertex 1.2831982374191284 8.9824018478393555 -2.7186441421508789
   vertex -0.031701724976301193 7.9880013465881348 -1.0468556880950928
   vertex 2.5516984462738037 9.991002082824707 -2.3369441032409668
  endloop
 endfacet
 facet normal -0.60629375550225029 0.79498427736719368 0.020196058475309711
  outer loop
   vertex -0.031701724976301193 7.9880013465881348 -1.0468556880950928
   vertex 1.2831982374191284 8.9824018478393555 -0.71595585346221924
   vertex 2.5516984462738037 9.991002082824707 -2.3369441032409668
  endloop
 endfacet
 facet normal -0.48155568100194729 0.76647917965191725 -0.42498681538945976
  outer loop
   vertex 1.8976272344589233 8.3679723739624023 -4.5230040550231934
   vertex 1.2831982374191284 8.9824018478393555 -2.7186441421508789
   vertex 3.1661276817321777 9.3765726089477539 -4.1413040161132813
  endloop
 endfacet
 facet normal -0.34963917244230736 0.84410375841159913 -0.40649882426554618
  outer loop
   vertex 7.0152997970581055 12.158075332641602 -1.9174442291259766
   vertex 7.0152997970581055 11.289141654968262 -3.721804141998291
   vertex 4.5275273323059082 10.258672714233398 -3.721804141998291
  endloop
 endfacet
 facet normal -0.2487010678841042 0.60041719537769778 -0.76003090090343406
  outer loop
   vertex 4.2732906341552734 8.2694101333618164 -5.3899598121643066
   vertex 4.3853998184204102 7.832676887512207 -5.7716598510742188
   vertex 3.0047903060913086 7.2608094215393066 -5.7716598510742188
  endloop
 endfacet
 facet normal -0.24870088485028019 0.60041725413784885 -0.7600309143766808
  outer loop
   vertex 5.653900146484375 8.8412771224975586 -5.3899598121643066
   vertex 4.3853998184204102 7.832676887512207 -5.7716598510742188
   vertex 4.2732906341552734 8.2694101333618164 -5.3899598121643066
  endloop
 endfacet
 facet normal -0.60318848945881254 0.79759867488881653 0
  outer loop
   vertex -0.031701724976301193 7.9880013465881348 -3.049544095993042
   vertex -0.031701724976301193 7.9880013465881348 -1.0468556880950928
   vertex 1.2831982374191284 8.9824018478393555 -2.7186441421508789
  endloop
 endfacet
 facet normal -0.25321512056939721 0.58995774957436542 -0.76670199975751729
  outer loop
   vertex 1.8976272344589233 8.3679723739624023 -4.5230040550231934
   vertex 1.9359999895095825 7.408841609954834 -5.2737040519714355
   vertex 0.58272737264633179 7.3735723495483398 -4.8539037704467773
  endloop
 endfacet
 facet normal 0.41866971814936599 -0.17341860124038255 -0.8914267529351807
  outer loop
   vertex 8.6162099838256836 1.4017902612686157 -5.486259937286377
   vertex 9.1880769729614258 2.7823998928070068 -5.486259937286377
   vertex 10.833309173583984 2.0303905010223389 -4.5672597885131836
  endloop
 endfacet
 facet normal -0.63261991580248933 -0.26203976407434759 0.72878474474560151
  outer loop
   vertex 2.5681583881378174 1.5961999893188477 14.29560375213623
   vertex 1.5249274969100952 -1.0426726341247559 12.441204071044922
   vertex 3.5986275672912598 -0.89157253503799438 14.29560375213623
  endloop
 endfacet
 facet normal 0.60368267031401412 0.25005346405168793 -0.75699438483934101
  outer loop
   vertex 9.5030727386474609 10.258672714233398 -3.721804141998291
   vertex 10.533541679382324 7.770899772644043 -3.721804141998291
   vertex 8.395909309387207 9.1515092849731445 -4.9704599380493164
  endloop
 endfacet
 facet normal 0.73121786224436125 0.35491382886487405 -0.58254322759367938
  outer loop
   vertex 11.940472602844238 5.8987727165222168 -3.3186039924621582
   vertex 9.5030727386474609 10.258672714233398 -3.721804141998291
   vertex 12.195672988891602 10.775873184204102 -0.026904096826910973
  endloop
 endfacet
 facet normal 0.52526995016198585 0.21757386298987311 -0.82265004321429946
  outer loop
   vertex 10.533541679382324 7.770899772644043 -3.721804141998291
   vertex 9.5030727386474609 10.258672714233398 -3.721804141998291
   vertex 11.940472602844238 5.8987727165222168 -3.3186039924621582
  endloop
 endfacet
 facet normal 0.25005352888697918 0.60368257514814561 0.75699443931489507
  outer loop
   vertex 6.086400032043457 3.5486767292022705 15.544259071350098
   vertex 7.4670095443725586 2.9768095016479492 15.544259071350098
   vertex 6.086400032043457 5.1144418716430664 14.29560375213623
  endloop
 endfacet
 facet normal 0.844103778190189 0.34963911361872085 0.40649883379041024
  outer loop
   vertex 11.984341621398926 7.1929998397827148 9.2103042602539063
   vertex 12.853275299072266 7.1929998397827148 7.4059443473815918
   vertex 10.953872680664063 9.6807727813720703 9.2103042602539063
  endloop
 endfacet
 facet normal 0.087810033551344244 -0.99465624614898573 0.054298710891881929
  outer loop
   vertex -1.8424999713897705 -3.74737548828125 3.1972556114196777
   vertex 0.9505000114440918 -3.8424756526947021 -3.0615558624267578
   vertex 0.0044999998062849045 -3.4830756187438965 5.0518555641174316
  endloop
 endfacet
 facet normal 0.35430250041347849 0.85536178218233416 -0.37792321942772722
  outer loop
   vertex 12.810101509094238 11.390301704406738 1.7774558067321777
   vertex 10.117501258850098 10.873101234436035 -1.9174442291259766
   vertex 9.7079000473022461 12.675275802612305 1.7774558067321777
  endloop
 endfacet
 facet normal 0.41715516649471107 0.80750817534968877 -0.41702771347979517
  outer loop
   vertex 12.195672988891602 10.775873184204102 -0.026904096826910973
   vertex 10.117501258850098 10.873101234436035 -1.9174442291259766
   vertex 12.810101509094238 11.390301704406738 1.7774558067321777
  endloop
 endfacet
 facet normal 0.34963911361872085 0.844103778190189 -0.40649883379041024
  outer loop
   vertex 7.0152997970581055 12.158075332641602 -1.9174442291259766
   vertex 9.5030727386474609 10.258672714233398 -3.721804141998291
   vertex 7.0152997970581055 11.289141654968262 -3.721804141998291
  endloop
 endfacet
 facet normal 0.34963929422192741 0.84410380812334806 -0.40649861629242279
  outer loop
   vertex 10.117501258850098 10.873101234436035 -1.9174442291259766
   vertex 9.5030727386474609 10.258672714233398 -3.721804141998291
   vertex 7.0152997970581055 12.158075332641602 -1.9174442291259766
  endloop
 endfacet
 facet normal -0.38268345289467776 0.92387952400765272 0
  outer loop
   vertex 7.0152997970581055 12.158075332641602 0.085244178771972656
   vertex 7.0152997970581055 12.158075332641602 -1.9174442291259766
   vertex 3.9130980968475342 10.873101234436035 0.085244178771972656
  endloop
 endfacet
 facet normal 0.25005346405608758 0.60368267031537359 -0.7569943848368037
  outer loop
   vertex 7.0152997970581055 11.289141654968262 -3.721804141998291
   vertex 8.395909309387207 9.1515092849731445 -4.9704599380493164
   vertex 7.0152997970581055 9.7233762741088867 -4.9704599380493164
  endloop
 endfacet
 facet normal -0.38268345289467776 0.92387952400765272 0
  outer loop
   vertex 3.9130980968475342 10.873101234436035 0.085244178771972656
   vertex 7.0152997970581055 12.158075332641602 -1.9174442291259766
   vertex 3.9130980968475342 10.873101234436035 -1.9174442291259766
  endloop
 endfacet
 facet normal -0.54376977435964136 0.83923443238040751 0
  outer loop
   vertex 2.5516984462738037 9.991002082824707 -0.33425581455230713
   vertex 3.9130980968475342 10.873101234436035 0.085244178771972656
   vertex 3.9130980968475342 10.873101234436035 -1.9174442291259766
  endloop
 endfacet
 facet normal -0.54376977435964136 0.83923443238040751 0
  outer loop
   vertex 2.5516984462738037 9.991002082824707 -2.3369441032409668
   vertex 2.5516984462738037 9.991002082824707 -0.33425581455230713
   vertex 3.9130980968475342 10.873101234436035 -1.9174442291259766
  endloop
 endfacet
 facet normal -0.40133359981276751 0.8166466061529114 -0.41475253142115576
  outer loop
   vertex 3.1661276817321777 9.3765726089477539 -4.1413040161132813
   vertex 2.5516984462738037 9.991002082824707 -2.3369441032409668
   vertex 4.5275273323059082 10.258672714233398 -3.721804141998291
  endloop
 endfacet
 facet normal -0.34963925223730813 0.84410377163681216 -0.40649872816952887
  outer loop
   vertex 3.9130980968475342 10.873101234436035 -1.9174442291259766
   vertex 7.0152997970581055 12.158075332641602 -1.9174442291259766
   vertex 4.5275273323059082 10.258672714233398 -3.721804141998291
  endloop
 endfacet
 facet normal -0.25065203121714535 0.60512773976687861 -0.755641434684036
  outer loop
   vertex 4.2732906341552734 8.2694101333618164 -5.3899598121643066
   vertex 4.3853998184204102 9.3984413146972656 -4.5230040550231934
   vertex 5.653900146484375 8.8412771224975586 -5.3899598121643066
  endloop
 endfacet
 facet normal -0.16094293953748662 0.61536190972728388 -0.7716392228689668
  outer loop
   vertex 5.653900146484375 8.8412771224975586 -5.3899598121643066
   vertex 5.653900146484375 10.407041549682617 -4.1413040161132813
   vertex 7.0152997970581055 9.7233762741088867 -4.9704599380493164
  endloop
 endfacet
 facet normal 0.11464748579320816 0.27678360957664494 -0.95406854443012623
  outer loop
   vertex 7.0152997970581055 9.7233762741088867 -4.9704599380493164
   vertex 7.0345096588134766 8.2694101333618164 -5.3899598121643066
   vertex 5.653900146484375 8.8412771224975586 -5.3899598121643066
  endloop
 endfacet
 facet normal 0.92387952010826824 -0.38268346230862393 0
  outer loop
   vertex 13.839875221252441 3.4110000133514404 -1.5142441987991333
   vertex 13.839875221252441 3.4110000133514404 0.48844420909881592
   vertex 12.554901123046875 0.3087984025478363 0.48844420909881592
  endloop
 endfacet
 facet normal 0.35057439667923707 -0.93510740221559452 -0.051688864512496803
  outer loop
   vertex 9.4526996612548828 -0.97617560625076294 0.48844420909881592
   vertex 6.086400032043457 -2.7909755706787109 10.488555908203125
   vertex 4.3847999572753906 -2.8712756633758545 0.40034419298171997
  endloop
 endfacet
 facet normal 0.077193377941070535 -0.99700317500476265 -0.0050844303977586203
  outer loop
   vertex 6.086400032043457 -2.7909755706787109 10.488555908203125
   vertex 4.012700080871582 -2.9420757293701172 8.6341562271118164
   vertex 4.3847999572753906 -2.8712756633758545 0.40034419298171997
  endloop
 endfacet
 facet normal 0.34061938525727536 0.14108923846230351 -0.92955487260144198
  outer loop
   vertex 7.063776969909668 2.027400016784668 -6.3675599098205566
   vertex 2.9029767513275146 0.544700026512146 -8.1172599792480469
   vertex 6.4919095039367676 3.4080095291137695 -6.3675599098205566
  endloop
 endfacet
 facet normal -0.091782235059403569 0.22158191427357635 -0.97081279173399748
  outer loop
   vertex -0.43010959029197693 1.9253096580505371 -8.1172599792480469
   vertex 0.9505000114440918 2.4971768856048584 -8.1172599792480469
   vertex 0.9505000114440918 0.544700026512146 -8.5629005432128906
  endloop
 endfacet
 facet normal 0.33675030503934072 0.13948647177748758 -0.93120500226694392
  outer loop
   vertex 9.1880769729614258 2.7823998928070068 -5.486259937286377
   vertex 7.063776969909668 2.027400016784668 -6.3675599098205566
   vertex 8.6162099838256836 4.1630096435546875 -5.486259937286377
  endloop
 endfacet
 facet normal 0.34963922759637811 -0.84410369626588777 -0.40649890587315746
  outer loop
   vertex 0.9505000114440918 -3.8424756526947021 -5.064244270324707
   vertex 0.9505000114440918 -2.9735417366027832 -6.8686041831970215
   vertex 3.4382724761962891 -1.9430725574493408 -6.8686041831970215
  endloop
 endfacet
 facet normal -0.63209934553779457 -0.2618241078083034 0.72931375548598965
  outer loop
   vertex 0.49445840716362 1.445099949836731 12.441204071044922
   vertex -0.45607265830039978 -1.3202725648880005 10.624604225158691
   vertex 1.5249274969100952 -1.0426726341247559 12.441204071044922
  endloop
 endfacet
 facet normal -0.38268339228860998 -0.92387954911150716 -0
  outer loop
   vertex -1.8424999713897705 -3.74737548828125 3.1972556114196777
   vertex -1.8424999713897705 -3.74737548828125 5.199944019317627
   vertex -4.9447016716003418 -2.4624016284942627 3.1972556114196777
  endloop
 endfacet
 facet normal 0.90572005806453459 -0.37516156615516916 0.19729413498524673
  outer loop
   vertex 12.554901123046875 0.3087984025478363 0.48844420909881592
   vertex 13.839875221252441 3.4110000133514404 0.48844420909881592
   vertex 10.473575592041016 1.5961999893188477 12.491243362426758
  endloop
 endfacet
 facet normal -0.39235479970410037 0.48739935733885831 -0.78006382919272899
  outer loop
   vertex -1.537272572517395 3.0324726104736328 -6.8686041831970215
   vertex 0.55539035797119141 5.271209716796875 -6.5223598480224609
   vertex -0.43010959029197693 1.9253096580505371 -8.1172599792480469
  endloop
 endfacet
 facet normal -0.61374942304078417 0.77111347764524918 -0.16939790527321885
  outer loop
   vertex -0.031701724976301193 7.9880013465881348 -3.049544095993042
   vertex -1.1662015914916992 6.9928016662597656 -3.4693441390991211
   vertex -4.8238015174865723 4.6920018196105957 -0.69084417819976807
  endloop
 endfacet
 facet normal -0.34052427318654072 -0.82209842539712574 0.45628653095433858
  outer loop
   vertex -2.4832725524902344 -1.5836725234985352 8.8589038848876953
   vertex -4.3302726745605469 -1.8479725122451782 7.0043039321899414
   vertex -1.8424999713897705 -2.8784415721893311 7.0043039321899414
  endloop
 endfacet
 facet normal -0.56669587289390622 0.82392705238086072 0
  outer loop
   vertex -0.031701724976301193 7.9880013465881348 -1.0468556880950928
   vertex -0.031701724976301193 7.9880013465881348 -3.049544095993042
   vertex -4.8238015174865723 4.6920018196105957 -0.69084417819976807
  endloop
 endfacet
 facet normal -0.56669587289390622 0.82392705238086072 0
  outer loop
   vertex -4.8238015174865723 4.6920018196105957 1.3118442296981812
   vertex -0.031701724976301193 7.9880013465881348 -1.0468556880950928
   vertex -4.8238015174865723 4.6920018196105957 -0.69084417819976807
  endloop
 endfacet
 facet normal -0.3923548106319818 0.48739936587840427 -0.78006381836056937
  outer loop
   vertex -0.55177253484725952 6.3783726692199707 -5.2737040519714355
   vertex 0.55539035797119141 5.271209716796875 -6.5223598480224609
   vertex -1.537272572517395 3.0324726104736328 -6.8686041831970215
  endloop
 endfacet
 facet normal -0.92387952920683158 0.38268344034275026 0
  outer loop
   vertex -6.1087756156921387 1.5898000001907349 -0.69084417819976807
   vertex -6.1087756156921387 1.5898000001907349 1.3118442296981812
   vertex -4.8238015174865723 4.6920018196105957 -0.69084417819976807
  endloop
 endfacet
 facet normal -0.84410374965873802 0.34963922969799349 -0.40649879319409105
  outer loop
   vertex -6.1087756156921387 1.5898000001907349 -0.69084417819976807
   vertex -4.8238015174865723 4.6920018196105957 -0.69084417819976807
   vertex -5.2398419380187988 1.5898000001907349 -2.4952042102813721
  endloop
 endfacet
 facet normal -0.84410364551846284 0.34963930422580874 -0.40649894534049363
  outer loop
   vertex -4.8238015174865723 4.6920018196105957 -0.69084417819976807
   vertex -4.2093725204467773 4.0775723457336426 -2.4952042102813721
   vertex -5.2398419380187988 1.5898000001907349 -2.4952042102813721
  endloop
 endfacet
 facet normal -0.088646040840067858 0.44813776352071377 -0.88955855588602706
  outer loop
   vertex 5.7660093307495117 7.2608094215393066 -5.7716598510742188
   vertex 7.0345096588134766 8.2694101333618164 -5.3899598121643066
   vertex 2.3311095237731934 1.9253096580505371 -8.1172599792480469
  endloop
 endfacet
 facet normal -0.62686336685307298 -0.7521464976439165 -0.2032682104501819
  outer loop
   vertex -4.8238015174865723 -1.5124015808105469 -0.69084417819976807
   vertex -2.1517016887664795 -2.5575015544891357 -5.064244270324707
   vertex -4.9447016716003418 -2.4624016284942627 3.1972556114196777
  endloop
 endfacet
 facet normal 0.12884985117702549 -0.99166411443172553 0
  outer loop
   vertex 0.0044999998062849045 -3.4830756187438965 7.0545439720153809
   vertex 0.0044999998062849045 -3.4830756187438965 5.0518555641174316
   vertex 2.0316998958587646 -3.2196755409240723 6.8175559043884277
  endloop
 endfacet
 facet normal -0.84410368361336452 -0.34963929487417061 -0.40649887427918141
  outer loop
   vertex -4.8238015174865723 -1.5124015808105469 -0.69084417819976807
   vertex -5.2398419380187988 1.5898000001907349 -2.4952042102813721
   vertex -4.2093725204467773 -0.89797252416610718 -2.4952042102813721
  endloop
 endfacet
 facet normal -0.84410374172813463 -0.34963925328442608 -0.40649878937491513
  outer loop
   vertex -6.1087756156921387 1.5898000001907349 -0.69084417819976807
   vertex -5.2398419380187988 1.5898000001907349 -2.4952042102813721
   vertex -4.8238015174865723 -1.5124015808105469 -0.69084417819976807
  endloop
 endfacet
 facet normal -0.60368279221148435 0.25005357941683143 -0.75699424952147176
  outer loop
   vertex -1.0019768476486206 0.544700026512146 -8.1172599792480469
   vertex -2.5677416324615479 0.544700026512146 -6.8686041831970215
   vertex -1.537272572517395 3.0324726104736328 -6.8686041831970215
  endloop
 endfacet
 facet normal 0.38137144290970648 -0.92071198114605524 -0.082736148732427628
  outer loop
   vertex 0.9505000114440918 -3.8424756526947021 -5.064244270324707
   vertex 4.052701473236084 -2.5575015544891357 -5.064244270324707
   vertex 2.9407999515533447 -3.1006755828857422 -4.1449441909790039
  endloop
 endfacet
 facet normal 0.38178751964231156 0.0046359374615872317 -0.92423849623851084
  outer loop
   vertex 7.5990724563598633 -0.46037253737449646 -5.1189041137695313
   vertex 9.7233724594116211 0.29462733864784241 -4.2376041412353516
   vertex 11.940472602844238 0.92322748899459839 -3.3186039924621582
  endloop
 endfacet
 facet normal 0.42873964678612458 -0.80058875212437319 -0.4186167283394775
  outer loop
   vertex 8.2135019302368164 -1.0748015642166138 -3.3145442008972168
   vertex 7.5990724563598633 -0.46037253737449646 -5.1189041137695313
   vertex 11.940472602844238 0.92322748899459839 -3.3186039924621582
  endloop
 endfacet
 facet normal 0.84410376817799337 -0.34963926088139258 -0.40649872791686087
  outer loop
   vertex 13.839875221252441 3.4110000133514404 -1.5142441987991333
   vertex 12.554901123046875 0.3087984025478363 -1.5142441987991333
   vertex 11.940472602844238 0.92322748899459839 -3.3186039924621582
  endloop
 endfacet
 facet normal -0.51759601441062109 0.80792811884269367 0.28168514453117016
  outer loop
   vertex 2.5516984462738037 9.991002082824707 -0.33425581455230713
   vertex -4.8238015174865723 4.6920018196105957 1.3118442296981812
   vertex -3.9549016952514648 5.0774016380310059 1.8030441999435425
  endloop
 endfacet
 facet normal -0.59649895933496877 0.79416464307774004 -0.11615296465224099
  outer loop
   vertex 2.5516984462738037 9.991002082824707 -0.33425581455230713
   vertex 1.2831982374191284 8.9824018478393555 -0.71595585346221924
   vertex -4.8238015174865723 4.6920018196105957 1.3118442296981812
  endloop
 endfacet
 facet normal -0.33143808647159773 -0.8001623794233661 0.49988894905927128
  outer loop
   vertex -0.45607265830039978 -1.3202725648880005 10.624604225158691
   vertex 0.0044999998062849045 -2.6141417026519775 8.8589038848876953
   vertex 2.0316998958587646 -2.3507416248321533 10.624604225158691
  endloop
 endfacet
 facet normal -0.6616202039491853 -0.27405207743063603 0.69796430036370138
  outer loop
   vertex -3.5137417316436768 0.90410000085830688 8.8589038848876953
   vertex -4.3302726745605469 -1.8479725122451782 7.0043039321899414
   vertex -2.4832725524902344 -1.5836725234985352 8.8589038848876953
  endloop
 endfacet
 facet normal -0.69207212591653511 0.57793363171891354 -0.43246836862082139
  outer loop
   vertex -4.8238015174865723 4.6920018196105957 -0.69084417819976807
   vertex -1.1662015914916992 6.9928016662597656 -3.4693441390991211
   vertex -4.2093725204467773 4.0775723457336426 -2.4952042102813721
  endloop
 endfacet
 facet normal -0.92387952920683158 0.38268344034275026 0
  outer loop
   vertex -6.1087756156921387 1.5898000001907349 1.3118442296981812
   vertex -4.8238015174865723 4.6920018196105957 1.3118442296981812
   vertex -4.8238015174865723 4.6920018196105957 -0.69084417819976807
  endloop
 endfacet
 facet normal -0.99199908024541794 0.12624509809194476 0
  outer loop
   vertex -6.1087756156921387 1.5898000001907349 1.3118442296981812
   vertex -6.1087756156921387 1.5898000001907349 -0.69084417819976807
   vertex -6.2296757698059082 0.63980001211166382 3.1972556114196777
  endloop
 endfacet
 facet normal -0.99199908024541794 0.12624509809194476 0
  outer loop
   vertex -6.2296757698059082 0.63980001211166382 5.199944019317627
   vertex -6.1087756156921387 1.5898000001907349 1.3118442296981812
   vertex -6.2296757698059082 0.63980001211166382 3.1972556114196777
  endloop
 endfacet
 facet normal -0.34963916268139883 -0.84410371809262397 0.40649891638435937
  outer loop
   vertex -1.8424999713897705 -2.8784415721893311 7.0043039321899414
   vertex -4.3302726745605469 -1.8479725122451782 7.0043039321899414
   vertex -1.8424999713897705 -3.74737548828125 5.199944019317627
  endloop
 endfacet
 facet normal -0.37856136965634535 0.91392786513430591 0.1463801446063018
  outer loop
   vertex 9.7079000473022461 12.675275802612305 3.780144214630127
   vertex 6.6056985855102539 11.390301704406738 3.780144214630127
   vertex 8.466099739074707 11.580175399780273 7.4059443473815918
  endloop
 endfacet
 facet normal -0.92387952140806318 -0.38268345917064184 0
  outer loop
   vertex -4.9447016716003418 -2.4624016284942627 5.199944019317627
   vertex -6.2296757698059082 0.63980001211166382 3.1972556114196777
   vertex -4.9447016716003418 -2.4624016284942627 3.1972556114196777
  endloop
 endfacet
 facet normal 0.35112820879592394 0.098897491136043125 -0.93108982769374204
  outer loop
   vertex 6.4919095039367676 3.4080095291137695 -6.3675599098205566
   vertex 8.9677762985229492 7.770899772644043 -4.9704599380493164
   vertex 8.6162099838256836 4.1630096435546875 -5.486259937286377
  endloop
 endfacet
 facet normal -0.37856136965634535 0.91392786513430591 0.1463801446063018
  outer loop
   vertex 8.466099739074707 11.580175399780273 7.4059443473815918
   vertex 6.6056985855102539 11.390301704406738 3.780144214630127
   vertex 5.3638982772827148 10.295201301574707 7.4059443473815918
  endloop
 endfacet
 facet normal 0.33675019175947851 0.1394865652508093 -0.93120502923066639
  outer loop
   vertex 7.063776969909668 2.027400016784668 -6.3675599098205566
   vertex 6.4919095039367676 3.4080095291137695 -6.3675599098205566
   vertex 8.6162099838256836 4.1630096435546875 -5.486259937286377
  endloop
 endfacet
 facet normal -0.018966761748992336 0.37466085871697646 -0.92696790823318942
  outer loop
   vertex 4.3853998184204102 7.832676887512207 -5.7716598510742188
   vertex 5.653900146484375 8.8412771224975586 -5.3899598121643066
   vertex 2.3311095237731934 1.9253096580505371 -8.1172599792480469
  endloop
 endfacet
 facet normal 0.25903765322884448 0.2440714376882335 -0.93452053349003061
  outer loop
   vertex 5.653900146484375 8.8412771224975586 -5.3899598121643066
   vertex 5.7660093307495117 7.2608094215393066 -5.7716598510742188
   vertex 2.3311095237731934 1.9253096580505371 -8.1172599792480469
  endloop
 endfacet
 facet normal -0.692072140981702 0.57793367469016166 -0.43246828708719154
  outer loop
   vertex -1.1662015914916992 6.9928016662597656 -3.4693441390991211
   vertex -0.55177253484725952 6.3783726692199707 -5.2737040519714355
   vertex -4.2093725204467773 4.0775723457336426 -2.4952042102813721
  endloop
 endfacet
 facet normal 0.091782240953064489 -0.22158191415269698 -0.9708127912043909
  outer loop
   vertex 0.9505000114440918 -1.4077768325805664 -8.1172599792480469
   vertex 0.9505000114440918 0.544700026512146 -8.5629005432128906
   vertex 2.3311095237731934 -0.83590960502624512 -8.1172599792480469
  endloop
 endfacet
 facet normal 0.1345783968738751 0.32490096638808347 -0.9361239325724704
  outer loop
   vertex 4.3853998184204102 7.832676887512207 -5.7716598510742188
   vertex 2.3311095237731934 1.9253096580505371 -8.1172599792480469
   vertex 0.9505000114440918 2.4971768856048584 -8.1172599792480469
  endloop
 endfacet
 facet normal -0.19388233815250716 0.4680735704697187 -0.86215820565615819
  outer loop
   vertex 0.55539035797119141 5.271209716796875 -6.5223598480224609
   vertex 1.9359999895095825 5.8430767059326172 -6.5223598480224609
   vertex 0.9505000114440918 2.4971768856048584 -8.1172599792480469
  endloop
 endfacet
 facet normal 0.091782240953064489 0.22158191415269698 -0.9708127912043909
  outer loop
   vertex 2.3311095237731934 1.9253096580505371 -8.1172599792480469
   vertex 0.9505000114440918 0.544700026512146 -8.5629005432128906
   vertex 0.9505000114440918 2.4971768856048584 -8.1172599792480469
  endloop
 endfacet
 facet normal -0.19388241645329213 0.46807355425482899 -0.86215819685106754
  outer loop
   vertex 0.55539035797119141 5.271209716796875 -6.5223598480224609
   vertex 0.9505000114440918 2.4971768856048584 -8.1172599792480469
   vertex -0.43010959029197693 1.9253096580505371 -8.1172599792480469
  endloop
 endfacet
 facet normal -0.034029747556019202 -0.99942082041614166 -0
  outer loop
   vertex 0.9505000114440918 -3.8424756526947021 -5.064244270324707
   vertex 0.9505000114440918 -3.8424756526947021 -3.0615558624267578
   vertex -1.8424999713897705 -3.74737548828125 3.1972556114196777
  endloop
 endfacet
 facet normal -0.38001386840235879 -0.91743457732546452 -0.11791206956677897
  outer loop
   vertex -2.1517016887664795 -2.5575015544891357 -5.064244270324707
   vertex 0.9505000114440918 -3.8424756526947021 -5.064244270324707
   vertex -1.8424999713897705 -3.74737548828125 3.1972556114196777
  endloop
 endfacet
 facet normal -0.86529850869872882 -0.27859428560524058 -0.41670578934286662
  outer loop
   vertex -2.5677416324615479 0.544700026512146 -6.8686041831970215
   vertex -4.2093725204467773 -0.89797252416610718 -2.4952042102813721
   vertex -3.4366755485534668 0.544700026512146 -5.064244270324707
  endloop
 endfacet
 facet normal -0.80972354367555754 -0.43851201524891525 -0.38994229739774661
  outer loop
   vertex -3.4366755485534668 0.544700026512146 -5.064244270324707
   vertex -5.2398419380187988 1.5898000001907349 -2.4952042102813721
   vertex -2.5677416324615479 0.544700026512146 -6.8686041831970215
  endloop
 endfacet
 facet normal -0.77252113240869003 0.31998884576455766 -0.54846899508382541
  outer loop
   vertex -5.2398419380187988 1.5898000001907349 -2.4952042102813721
   vertex -4.2093725204467773 4.0775723457336426 -2.4952042102813721
   vertex -2.5677416324615479 0.544700026512146 -6.8686041831970215
  endloop
 endfacet
 facet normal -0.22158191421659326 0.091782237837701675 -0.97081279148433852
  outer loop
   vertex -1.0019768476486206 0.544700026512146 -8.1172599792480469
   vertex -0.43010959029197693 1.9253096580505371 -8.1172599792480469
   vertex 0.9505000114440918 0.544700026512146 -8.5629005432128906
  endloop
 endfacet
 facet normal -0.77252121594820011 0.31998873864805782 -0.54846893991213319
  outer loop
   vertex -4.2093725204467773 4.0775723457336426 -2.4952042102813721
   vertex -1.537272572517395 3.0324726104736328 -6.8686041831970215
   vertex -2.5677416324615479 0.544700026512146 -6.8686041831970215
  endloop
 endfacet
 facet normal -0.60368275949706285 0.25005359668713556 -0.75699426990555141
  outer loop
   vertex -1.537272572517395 3.0324726104736328 -6.8686041831970215
   vertex -0.43010959029197693 1.9253096580505371 -8.1172599792480469
   vertex -1.0019768476486206 0.544700026512146 -8.1172599792480469
  endloop
 endfacet
 facet normal -0.38001380795726819 -0.9174346016221343 -0.11791207532840826
  outer loop
   vertex -4.9447016716003418 -2.4624016284942627 3.1972556114196777
   vertex -2.1517016887664795 -2.5575015544891357 -5.064244270324707
   vertex -1.8424999713897705 -3.74737548828125 3.1972556114196777
  endloop
 endfacet
 facet normal -0.82554717375741504 -0.38530497798217184 -0.41232503906906071
  outer loop
   vertex -2.1517016887664795 -2.5575015544891357 -5.064244270324707
   vertex -4.2093725204467773 -0.89797252416610718 -2.4952042102813721
   vertex -1.537272572517395 -1.9430725574493408 -6.8686041831970215
  endloop
 endfacet
 facet normal -0.83515566956938592 -0.34593277668402733 -0.42760439848274423
  outer loop
   vertex -4.2093725204467773 -0.89797252416610718 -2.4952042102813721
   vertex -2.5677416324615479 0.544700026512146 -6.8686041831970215
   vertex -1.537272572517395 -1.9430725574493408 -6.8686041831970215
  endloop
 endfacet
 facet normal -0.60368275949706285 -0.25005359668713556 -0.75699426990555141
  outer loop
   vertex -1.537272572517395 -1.9430725574493408 -6.8686041831970215
   vertex -1.0019768476486206 0.544700026512146 -8.1172599792480469
   vertex -0.43010959029197693 -0.83590960502624512 -8.1172599792480469
  endloop
 endfacet
 facet normal -0.60368279221148435 -0.25005357941683143 -0.75699424952147176
  outer loop
   vertex -1.537272572517395 -1.9430725574493408 -6.8686041831970215
   vertex -2.5677416324615479 0.544700026512146 -6.8686041831970215
   vertex -1.0019768476486206 0.544700026512146 -8.1172599792480469
  endloop
 endfacet
 facet normal -0.3496391653698625 -0.84410371853821009 0.40649891314667996
  outer loop
   vertex -4.3302726745605469 -1.8479725122451782 7.0043039321899414
   vertex -4.9447016716003418 -2.4624016284942627 5.199944019317627
   vertex -1.8424999713897705 -3.74737548828125 5.199944019317627
  endloop
 endfacet
 facet normal -0.25005359024506535 -0.60368276237358076 -0.75699426973957717
  outer loop
   vertex 0.9505000114440918 -2.9735417366027832 -6.8686041831970215
   vertex -0.43010959029197693 -0.83590960502624512 -8.1172599792480469
   vertex 0.9505000114440918 -1.4077768325805664 -8.1172599792480469
  endloop
 endfacet
 facet normal -0.25005359682729755 -0.60368276440733737 -0.75699426594343944
  outer loop
   vertex 0.9505000114440918 -2.9735417366027832 -6.8686041831970215
   vertex -1.537272572517395 -1.9430725574493408 -6.8686041831970215
   vertex -0.43010959029197693 -0.83590960502624512 -8.1172599792480469
  endloop
 endfacet
 facet normal 0.84410375166879481 -0.34963916127232747 -0.40649884787468804
  outer loop
   vertex 12.970941543579102 3.4110000133514404 -3.3186039924621582
   vertex 13.839875221252441 3.4110000133514404 -1.5142441987991333
   vertex 11.940472602844238 0.92322748899459839 -3.3186039924621582
  endloop
 endfacet
 facet normal 0.22158192706443708 -0.09178223837630807 -0.97081278850097819
  outer loop
   vertex 2.3311095237731934 -0.83590960502624512 -8.1172599792480469
   vertex 0.9505000114440918 0.544700026512146 -8.5629005432128906
   vertex 2.9029767513275146 0.544700026512146 -8.1172599792480469
  endloop
 endfacet
 facet normal 0.22158192706443708 0.09178223837630807 -0.97081278850097819
  outer loop
   vertex 2.3311095237731934 1.9253096580505371 -8.1172599792480469
   vertex 2.9029767513275146 0.544700026512146 -8.1172599792480469
   vertex 0.9505000114440918 0.544700026512146 -8.5629005432128906
  endloop
 endfacet
 facet normal 0.25005360600230186 -0.60368276132098952 -0.7569942653739925
  outer loop
   vertex 2.3311095237731934 -0.83590960502624512 -8.1172599792480469
   vertex 3.4382724761962891 -1.9430725574493408 -6.8686041831970215
   vertex 0.9505000114440918 -1.4077768325805664 -8.1172599792480469
  endloop
 endfacet
 facet normal 0.25005360685888262 -0.60368275969840413 -0.75699426638501166
  outer loop
   vertex 3.4382724761962891 -1.9430725574493408 -6.8686041831970215
   vertex 0.9505000114440918 -2.9735417366027832 -6.8686041831970215
   vertex 0.9505000114440918 -1.4077768325805664 -8.1172599792480469
  endloop
 endfacet
 facet normal -0.091782235059403569 -0.22158191427357635 -0.97081279173399748
  outer loop
   vertex -0.43010959029197693 -0.83590960502624512 -8.1172599792480469
   vertex 0.9505000114440918 0.544700026512146 -8.5629005432128906
   vertex 0.9505000114440918 -1.4077768325805664 -8.1172599792480469
  endloop
 endfacet
 facet normal 0.34963924938486124 -0.84410369987710998 -0.40649887963359105
  outer loop
   vertex 4.052701473236084 -2.5575015544891357 -5.064244270324707
   vertex 0.9505000114440918 -3.8424756526947021 -5.064244270324707
   vertex 3.4382724761962891 -1.9430725574493408 -6.8686041831970215
  endloop
 endfacet
 facet normal 0.35025440547898512 -0.93665460626773334 0
  outer loop
   vertex 9.4526996612548828 -0.97617560625076294 -1.5142441987991333
   vertex 4.3847999572753906 -2.8712756633758545 0.40034419298171997
   vertex 4.3847999572753906 -2.8712756633758545 -1.6023441553115845
  endloop
 endfacet
 facet normal -0.34963922381583296 -0.84410370302130566 -0.40649889509712239
  outer loop
   vertex -2.1517016887664795 -2.5575015544891357 -5.064244270324707
   vertex -1.537272572517395 -1.9430725574493408 -6.8686041831970215
   vertex 0.9505000114440918 -3.8424756526947021 -5.064244270324707
  endloop
 endfacet
 facet normal 0.47353540150151952 -0.40724304380059118 -0.78097203970489526
  outer loop
   vertex 3.4382724761962891 -1.9430725574493408 -6.8686041831970215
   vertex 2.3311095237731934 -0.83590960502624512 -8.1172599792480469
   vertex 6.4919095039367676 0.64679038524627686 -6.3675599098205566
  endloop
 endfacet
 facet normal 0.34061942545988466 0.14108918411052926 -0.92955486611947935
  outer loop
   vertex 2.9029767513275146 0.544700026512146 -8.1172599792480469
   vertex 2.3311095237731934 1.9253096580505371 -8.1172599792480469
   vertex 6.4919095039367676 3.4080095291137695 -6.3675599098205566
  endloop
 endfacet
 facet normal 0.14165389217608834 -0.98991624637206821 0
  outer loop
   vertex 0.0044999998062849045 -3.4830756187438965 7.0545439720153809
   vertex -1.8424999713897705 -3.74737548828125 5.199944019317627
   vertex 0.0044999998062849045 -3.4830756187438965 5.0518555641174316
  endloop
 endfacet
 facet normal -0.29325688701026381 -0.86135658672807269 0.41480745981866518
  outer loop
   vertex -1.8424999713897705 -2.8784415721893311 7.0043039321899414
   vertex -1.8424999713897705 -3.74737548828125 5.199944019317627
   vertex 0.0044999998062849045 -3.4830756187438965 7.0545439720153809
  endloop
 endfacet
 facet normal 0.40234922790994587 -0.90452999122210553 -0.14121116733462755
  outer loop
   vertex 5.111299991607666 -2.3597755432128906 -3.3145442008972168
   vertex 4.052701473236084 -2.5575015544891357 -5.064244270324707
   vertex 6.043001651763916 -1.8157016038894653 -4.1449441909790039
  endloop
 endfacet
 facet normal 0.36222455771927126 -0.92402622391224509 -0.12234748590615104
  outer loop
   vertex 2.9407999515533447 -3.1006755828857422 -4.1449441909790039
   vertex 5.111299991607666 -2.3597755432128906 -3.3145442008972168
   vertex 4.3847999572753906 -2.8712756633758545 -1.6023441553115845
  endloop
 endfacet
 facet normal 0.35934345677112578 -0.92637231318714774 -0.11272363299712765
  outer loop
   vertex 2.9407999515533447 -3.1006755828857422 -4.1449441909790039
   vertex 4.052701473236084 -2.5575015544891357 -5.064244270324707
   vertex 5.111299991607666 -2.3597755432128906 -3.3145442008972168
  endloop
 endfacet
 facet normal 0.43518136132863389 -0.18025809516071212 -0.88211348582888627
  outer loop
   vertex 2.9029767513275146 0.544700026512146 -8.1172599792480469
   vertex 7.063776969909668 2.027400016784668 -6.3675599098205566
   vertex 6.4919095039367676 0.64679038524627686 -6.3675599098205566
  endloop
 endfacet
 facet normal 0.45659655451712822 -0.7831353841744364 -0.42215939697825627
  outer loop
   vertex 8.2135019302368164 -1.0748015642166138 -3.3145442008972168
   vertex 4.052701473236084 -2.5575015544891357 -5.064244270324707
   vertex 7.5990724563598633 -0.46037253737449646 -5.1189041137695313
  endloop
 endfacet
 facet normal 0.17406047021096738 -0.91574778770321663 0.36208968782140316
  outer loop
   vertex 6.043001651763916 -1.8157016038894653 -4.1449441909790039
   vertex 4.052701473236084 -2.5575015544891357 -5.064244270324707
   vertex 8.2135019302368164 -1.0748015642166138 -3.3145442008972168
  endloop
 endfacet
 facet normal 0.42873967788824424 -0.80058880985084424 -0.41861658608551722
  outer loop
   vertex 12.554901123046875 0.3087984025478363 -1.5142441987991333
   vertex 8.2135019302368164 -1.0748015642166138 -3.3145442008972168
   vertex 11.940472602844238 0.92322748899459839 -3.3186039924621582
  endloop
 endfacet
 facet normal 0.38268345527125924 -0.92387952302324039 0
  outer loop
   vertex 9.4526996612548828 -0.97617560625076294 0.48844420909881592
   vertex 9.4526996612548828 -0.97617560625076294 -1.5142441987991333
   vertex 12.554901123046875 0.3087984025478363 0.48844420909881592
  endloop
 endfacet
 facet normal 0.43045428000293651 -0.17830007316997593 -0.88482664784393483
  outer loop
   vertex 6.4919095039367676 0.64679038524627686 -6.3675599098205566
   vertex 7.063776969909668 2.027400016784668 -6.3675599098205566
   vertex 8.6162099838256836 1.4017902612686157 -5.486259937286377
  endloop
 endfacet
 facet normal 0.92387952010826824 -0.38268346230862393 0
  outer loop
   vertex 13.839875221252441 3.4110000133514404 -1.5142441987991333
   vertex 12.554901123046875 0.3087984025478363 0.48844420909881592
   vertex 12.554901123046875 0.3087984025478363 -1.5142441987991333
  endloop
 endfacet
 facet normal 0.36726894410886651 -0.91150257535520784 -0.18513934701727208
  outer loop
   vertex 5.111299991607666 -2.3597755432128906 -3.3145442008972168
   vertex 6.043001651763916 -1.8157016038894653 -4.1449441909790039
   vertex 9.4526996612548828 -0.97617560625076294 -1.5142441987991333
  endloop
 endfacet
 facet normal 0.38916761593018945 -0.89479088318126065 -0.21885575634858737
  outer loop
   vertex 6.043001651763916 -1.8157016038894653 -4.1449441909790039
   vertex 8.2135019302368164 -1.0748015642166138 -3.3145442008972168
   vertex 9.4526996612548828 -0.97617560625076294 -1.5142441987991333
  endloop
 endfacet
 facet normal 0.4304543316102154 -0.17829994587541534 -0.88482664838872627
  outer loop
   vertex 7.063776969909668 2.027400016784668 -6.3675599098205566
   vertex 9.1880769729614258 2.7823998928070068 -5.486259937286377
   vertex 8.6162099838256836 1.4017902612686157 -5.486259937286377
  endloop
 endfacet
 facet normal 0.95268199286354904 -0.18814804934817761 0.23874114014977019
  outer loop
   vertex 10.473575592041016 1.5961999893188477 12.491243362426758
   vertex 13.839875221252441 3.4110000133514404 0.48844420909881592
   vertex 12.853275299072266 7.1929998397827148 7.4059443473815918
  endloop
 endfacet
 facet normal 0.34423245111558348 0.14258567656477636 -0.9279942588386646
  outer loop
   vertex 11.405176162719727 3.4110000133514404 -4.5672597885131836
   vertex 9.1880769729614258 2.7823998928070068 -5.486259937286377
   vertex 10.833309173583984 4.7916097640991211 -4.5672597885131836
  endloop
 endfacet
 facet normal 0.60368270062393237 0.25005350057062747 -0.75699434860490922
  outer loop
   vertex 11.940472602844238 5.8987727165222168 -3.3186039924621582
   vertex 12.970941543579102 3.4110000133514404 -3.3186039924621582
   vertex 10.833309173583984 4.7916097640991211 -4.5672597885131836
  endloop
 endfacet
 facet normal 0.60368267683381227 0.25005342357418336 -0.75699439301067017
  outer loop
   vertex 12.970941543579102 3.4110000133514404 -3.3186039924621582
   vertex 11.405176162719727 3.4110000133514404 -4.5672597885131836
   vertex 10.833309173583984 4.7916097640991211 -4.5672597885131836
  endloop
 endfacet
 facet normal 0.37712722796141901 0.11171840591269661 -0.91939874467526972
  outer loop
   vertex 9.1880769729614258 2.7823998928070068 -5.486259937286377
   vertex 8.9677762985229492 7.770899772644043 -4.9704599380493164
   vertex 10.833309173583984 4.7916097640991211 -4.5672597885131836
  endloop
 endfacet
 facet normal 0.26745062093514044 0.11078161750910001 -0.95718211359358107
  outer loop
   vertex 8.9677762985229492 7.770899772644043 -4.9704599380493164
   vertex 9.1880769729614258 2.7823998928070068 -5.486259937286377
   vertex 8.6162099838256836 4.1630096435546875 -5.486259937286377
  endloop
 endfacet
 facet normal 0.5911400239162754 0.2671576564185375 -0.761038933788029
  outer loop
   vertex 8.9677762985229492 7.770899772644043 -4.9704599380493164
   vertex 11.940472602844238 5.8987727165222168 -3.3186039924621582
   vertex 10.833309173583984 4.7916097640991211 -4.5672597885131836
  endloop
 endfacet
 facet normal 0.59716545020783318 0.28750472647310926 -0.74882204650617668
  outer loop
   vertex 8.9677762985229492 7.770899772644043 -4.9704599380493164
   vertex 10.533541679382324 7.770899772644043 -3.721804141998291
   vertex 11.940472602844238 5.8987727165222168 -3.3186039924621582
  endloop
 endfacet
 facet normal 0.87494697531724386 0.23860039659588964 -0.42135215809046273
  outer loop
   vertex 13.839875221252441 3.4110000133514404 -1.5142441987991333
   vertex 12.970941543579102 3.4110000133514404 -3.3186039924621582
   vertex 13.226141929626465 8.2881002426147461 -0.026904096826910973
  endloop
 endfacet
 facet normal 0.7786433179016915 0.32252454333379499 -0.53823090066845125
  outer loop
   vertex 12.970941543579102 3.4110000133514404 -3.3186039924621582
   vertex 11.940472602844238 5.8987727165222168 -3.3186039924621582
   vertex 13.226141929626465 8.2881002426147461 -0.026904096826910973
  endloop
 endfacet
 facet normal -0.69854915105810744 0.28934848210375774 0.65445132703681541
  outer loop
   vertex -4.3302726745605469 3.1275725364685059 7.0043039321899414
   vertex -5.3607416152954102 0.63980001211166382 7.0043039321899414
   vertex -3.5137417316436768 0.90410000085830688 8.8589038848876953
  endloop
 endfacet
 facet normal 0.13877521659406347 -0.99032390623435473 0
  outer loop
   vertex 2.0316998958587646 -3.2196755409240723 8.8202438354492188
   vertex 2.0316998958587646 -3.2196755409240723 6.8175559043884277
   vertex 4.012700080871582 -2.9420757293701172 8.6341562271118164
  endloop
 endfacet
 facet normal 0.60368267031537359 -0.25005346405608758 -0.7569943848368037
  outer loop
   vertex 11.405176162719727 3.4110000133514404 -4.5672597885131836
   vertex 12.970941543579102 3.4110000133514404 -3.3186039924621582
   vertex 10.833309173583984 2.0303905010223389 -4.5672597885131836
  endloop
 endfacet
 facet normal 0.60368268517340207 -0.2500535121439359 -0.75699435710334972
  outer loop
   vertex 12.970941543579102 3.4110000133514404 -3.3186039924621582
   vertex 11.940472602844238 0.92322748899459839 -3.3186039924621582
   vertex 10.833309173583984 2.0303905010223389 -4.5672597885131836
  endloop
 endfacet
 facet normal 0.38268345527125924 -0.92387952302324039 0
  outer loop
   vertex 12.554901123046875 0.3087984025478363 0.48844420909881592
   vertex 9.4526996612548828 -0.97617560625076294 -1.5142441987991333
   vertex 12.554901123046875 0.3087984025478363 -1.5142441987991333
  endloop
 endfacet
 facet normal 0.37430244195274121 -0.90364596842215272 -0.2081385252724838
  outer loop
   vertex 9.4526996612548828 -0.97617560625076294 -1.5142441987991333
   vertex 8.2135019302368164 -1.0748015642166138 -3.3145442008972168
   vertex 12.554901123046875 0.3087984025478363 -1.5142441987991333
  endloop
 endfacet
 facet normal 0.4736812158466564 -0.44701106759431125 -0.75881961703834955
  outer loop
   vertex 9.7233724594116211 0.29462733864784241 -4.2376041412353516
   vertex 7.5990724563598633 -0.46037253737449646 -5.1189041137695313
   vertex 10.833309173583984 2.0303905010223389 -4.5672597885131836
  endloop
 endfacet
 facet normal 0.44550274727083206 -0.40122560629228826 -0.80034074932464028
  outer loop
   vertex 7.5990724563598633 -0.46037253737449646 -5.1189041137695313
   vertex 8.6162099838256836 1.4017902612686157 -5.486259937286377
   vertex 10.833309173583984 2.0303905010223389 -4.5672597885131836
  endloop
 endfacet
 facet normal 0.44724248628253149 -0.43446914192530833 -0.78179966946686907
  outer loop
   vertex 11.940472602844238 0.92322748899459839 -3.3186039924621582
   vertex 9.7233724594116211 0.29462733864784241 -4.2376041412353516
   vertex 10.833309173583984 2.0303905010223389 -4.5672597885131836
  endloop
 endfacet
 facet normal 0.41866971248919888 -0.17341861386976498 -0.89142675313662245
  outer loop
   vertex 9.1880769729614258 2.7823998928070068 -5.486259937286377
   vertex 11.405176162719727 3.4110000133514404 -4.5672597885131836
   vertex 10.833309173583984 2.0303905010223389 -4.5672597885131836
  endloop
 endfacet
 facet normal -0.61599348488924011 -0.25515284224765827 0.74528454543680911
  outer loop
   vertex -1.486541748046875 1.1675000190734863 10.624604225158691
   vertex -2.4832725524902344 -1.5836725234985352 8.8589038848876953
   vertex -0.45607265830039978 -1.3202725648880005 10.624604225158691
  endloop
 endfacet
 facet normal -0.48693867285983738 0.8518471869292894 0.19299507505155789
  outer loop
   vertex -4.9447016716003418 3.7420015335083008 5.199944019317627
   vertex -3.9549016952514648 5.0774016380310059 1.8030441999435425
   vertex -4.8238015174865723 4.6920018196105957 1.3118442296981812
  endloop
 endfacet
 facet normal -0.33143812249056703 -0.8001623732153812 0.49988893511484828
  outer loop
   vertex -0.45607265830039978 -1.3202725648880005 10.624604225158691
   vertex -2.4832725524902344 -1.5836725234985352 8.8589038848876953
   vertex 0.0044999998062849045 -2.6141417026519775 8.8589038848876953
  endloop
 endfacet
 facet normal -0.92194739184829555 0.38188312282493048 0.064639671762816014
  outer loop
   vertex -4.8238015174865723 4.6920018196105957 1.3118442296981812
   vertex -6.1087756156921387 1.5898000001907349 1.3118442296981812
   vertex -4.9447016716003418 3.7420015335083008 5.199944019317627
  endloop
 endfacet
 facet normal -0.53567466432032085 0.72679844631315538 0.42990309657188464
  outer loop
   vertex -4.3302726745605469 3.1275725364685059 7.0043039321899414
   vertex -2.4832725524902344 3.3918726444244385 8.8589038848876953
   vertex -3.0977015495300293 4.0063014030456543 7.0545439720153809
  endloop
 endfacet
 facet normal -0.917054325940028 -0.37985637770836217 -0.12132804947316526
  outer loop
   vertex -6.1087756156921387 1.5898000001907349 -0.69084417819976807
   vertex -4.8238015174865723 -1.5124015808105469 -0.69084417819976807
   vertex -6.2296757698059082 0.63980001211166382 3.1972556114196777
  endloop
 endfacet
 facet normal -0.37847439527797722 0.91371789043980522 0.14790790651348348
  outer loop
   vertex 9.7079000473022461 12.675275802612305 3.780144214630127
   vertex 7.0152997970581055 12.158075332641602 0.085244178771972656
   vertex 6.6056985855102539 11.390301704406738 3.780144214630127
  endloop
 endfacet
 facet normal -0.18863380384055228 0.98204749785773804 0
  outer loop
   vertex 9.7079000473022461 12.675275802612305 1.7774558067321777
   vertex 7.0152997970581055 12.158075332641602 0.085244178771972656
   vertex 9.7079000473022461 12.675275802612305 3.780144214630127
  endloop
 endfacet
 facet normal -0.92194738014193767 0.38188315466285977 0.064639650634575774
  outer loop
   vertex -4.9447016716003418 3.7420015335083008 5.199944019317627
   vertex -6.1087756156921387 1.5898000001907349 1.3118442296981812
   vertex -6.2296757698059082 0.63980001211166382 5.199944019317627
  endloop
 endfacet
 facet normal -0.92387952140806318 -0.38268345917064184 0
  outer loop
   vertex -6.2296757698059082 0.63980001211166382 5.199944019317627
   vertex -6.2296757698059082 0.63980001211166382 3.1972556114196777
   vertex -4.9447016716003418 -2.4624016284942627 5.199944019317627
  endloop
 endfacet
 facet normal -0.91705432803292708 -0.37985637127683847 -0.12132805379000108
  outer loop
   vertex -6.2296757698059082 0.63980001211166382 3.1972556114196777
   vertex -4.8238015174865723 -1.5124015808105469 -0.69084417819976807
   vertex -4.9447016716003418 -2.4624016284942627 3.1972556114196777
  endloop
 endfacet
 facet normal 0.14071193625869441 -0.99004823659178698 -0.0021541160187141702
  outer loop
   vertex 4.012700080871582 -2.9420757293701172 8.6341562271118164
   vertex 2.0316998958587646 -3.2196755409240723 6.8175559043884277
   vertex 4.3847999572753906 -2.8712756633758545 0.40034419298171997
  endloop
 endfacet
 facet normal 0.25005354202313146 0.60368257920691282 0.75699443173894965
  outer loop
   vertex 7.4670095443725586 2.9768095016479492 15.544259071350098
   vertex 8.5741729736328125 4.0839724540710449 14.29560375213623
   vertex 6.086400032043457 5.1144418716430664 14.29560375213623
  endloop
 endfacet
 facet normal -0.53567464472372073 0.72679841433884751 0.42990317504602421
  outer loop
   vertex -3.0977015495300293 4.0063014030456543 7.0545439720153809
   vertex -4.9447016716003418 3.7420015335083008 5.199944019317627
   vertex -4.3302726745605469 3.1275725364685059 7.0043039321899414
  endloop
 endfacet
 facet normal 0.38239509658229021 -0.92318336361432241 -0.038813235571987424
  outer loop
   vertex 9.4526996612548828 -0.97617560625076294 0.48844420909881592
   vertex 12.554901123046875 0.3087984025478363 0.48844420909881592
   vertex 9.1886014938354492 -1.5060015916824341 10.488555908203125
  endloop
 endfacet
 facet normal -0.66162025889606946 -0.27405203678323337 0.69796426423797608
  outer loop
   vertex -5.3607416152954102 0.63980001211166382 7.0043039321899414
   vertex -4.3302726745605469 -1.8479725122451782 7.0043039321899414
   vertex -3.5137417316436768 0.90410000085830688 8.8589038848876953
  endloop
 endfacet
 facet normal -0.6985491112355422 0.28934851868995592 0.65445135336704907
  outer loop
   vertex -2.4832725524902344 3.3918726444244385 8.8589038848876953
   vertex -4.3302726745605469 3.1275725364685059 7.0043039321899414
   vertex -3.5137417316436768 0.90410000085830688 8.8589038848876953
  endloop
 endfacet
 facet normal 0.12884985117702549 -0.99166411443172553 0
  outer loop
   vertex 2.0316998958587646 -3.2196755409240723 8.8202438354492188
   vertex 0.0044999998062849045 -3.4830756187438965 7.0545439720153809
   vertex 2.0316998958587646 -3.2196755409240723 6.8175559043884277
  endloop
 endfacet
 facet normal -0.38268339228860998 -0.92387954911150716 -0
  outer loop
   vertex -1.8424999713897705 -3.74737548828125 5.199944019317627
   vertex -4.9447016716003418 -2.4624016284942627 5.199944019317627
   vertex -4.9447016716003418 -2.4624016284942627 3.1972556114196777
  endloop
 endfacet
 facet normal -0.29325688701026381 -0.86135658672807269 0.41480745981866518
  outer loop
   vertex 0.0044999998062849045 -2.6141417026519775 8.8589038848876953
   vertex -1.8424999713897705 -2.8784415721893311 7.0043039321899414
   vertex 0.0044999998062849045 -3.4830756187438965 7.0545439720153809
  endloop
 endfacet
 facet normal -0.2621248991617533 -0.86946559853284011 0.41871244333954394
  outer loop
   vertex 4.012700080871582 -2.9420757293701172 10.636843681335449
   vertex 2.0316998958587646 -2.3507416248321533 10.624604225158691
   vertex 2.0316998958587646 -3.2196755409240723 8.8202438354492188
  endloop
 endfacet
 facet normal 0.3826834476955005 -0.9238795261612226 0
  outer loop
   vertex 9.1886014938354492 -1.5060015916824341 12.491243362426758
   vertex 6.086400032043457 -2.7909755706787109 10.488555908203125
   vertex 9.1886014938354492 -1.5060015916824341 10.488555908203125
  endloop
 endfacet
 facet normal -0.25240331352170509 -0.8717974101045366 0.41983549523389052
  outer loop
   vertex 0.0044999998062849045 -2.6141417026519775 8.8589038848876953
   vertex 0.0044999998062849045 -3.4830756187438965 7.0545439720153809
   vertex 2.0316998958587646 -3.2196755409240723 8.8202438354492188
  endloop
 endfacet
 facet normal 0.14165389217608834 -0.98991624637206821 0
  outer loop
   vertex 0.0044999998062849045 -3.4830756187438965 5.0518555641174316
   vertex -1.8424999713897705 -3.74737548828125 5.199944019317627
   vertex -1.8424999713897705 -3.74737548828125 3.1972556114196777
  endloop
 endfacet
 facet normal 0.23912749267824585 -0.97035708134385434 0.035002527498052723
  outer loop
   vertex 2.0316998958587646 -3.2196755409240723 6.8175559043884277
   vertex 0.9505000114440918 -3.8424756526947021 -3.0615558624267578
   vertex 4.3847999572753906 -2.8712756633758545 0.40034419298171997
  endloop
 endfacet
 facet normal 0.082525190003097479 -0.99514093230172362 0.053703983768515623
  outer loop
   vertex 2.0316998958587646 -3.2196755409240723 6.8175559043884277
   vertex 0.0044999998062849045 -3.4830756187438965 5.0518555641174316
   vertex 0.9505000114440918 -3.8424756526947021 -3.0615558624267578
  endloop
 endfacet
 facet normal 0.35025440547898506 -0.93665460626773334 0
  outer loop
   vertex 4.3847999572753906 -2.8712756633758545 0.40034419298171997
   vertex 9.4526996612548828 -0.97617560625076294 -1.5142441987991333
   vertex 9.4526996612548828 -0.97617560625076294 0.48844420909881592
  endloop
 endfacet
 facet normal 0.27212227265967143 -0.96226268176758023 0
  outer loop
   vertex 0.9505000114440918 -3.8424756526947021 -3.0615558624267578
   vertex 0.9505000114440918 -3.8424756526947021 -5.064244270324707
   vertex 4.3847999572753906 -2.8712756633758545 -1.6023441553115845
  endloop
 endfacet
 facet normal 0.40487432189463096 -0.90222715241535401 -0.14853601891408114
  outer loop
   vertex 0.9505000114440918 -3.8424756526947021 -5.064244270324707
   vertex 2.9407999515533447 -3.1006755828857422 -4.1449441909790039
   vertex 4.3847999572753906 -2.8712756633758545 -1.6023441553115845
  endloop
 endfacet
 facet normal -0.65264310654436419 0.27033364819716865 0.70779707129411829
  outer loop
   vertex 3.5986275672912598 4.0839724540710449 14.29560375213623
   vertex 1.5249274969100952 3.9328725337982178 12.441204071044922
   vertex 2.5681583881378174 1.5961999893188477 14.29560375213623
  endloop
 endfacet
 facet normal -0.65210056561983254 0.27010889693417528 0.70838269044020097
  outer loop
   vertex -0.45607265830039978 3.6552724838256836 10.624604225158691
   vertex -2.4832725524902344 3.3918726444244385 8.8589038848876953
   vertex -1.486541748046875 1.1675000190734863 10.624604225158691
  endloop
 endfacet
 facet normal -0.3405243294922593 -0.82209841636988357 0.4562865051981887
  outer loop
   vertex -2.4832725524902344 -1.5836725234985352 8.8589038848876953
   vertex -1.8424999713897705 -2.8784415721893311 7.0043039321899414
   vertex 0.0044999998062849045 -2.6141417026519775 8.8589038848876953
  endloop
 endfacet
 facet normal -0.65210056257169946 0.27010889969250296 0.70838269219439465
  outer loop
   vertex -2.4832725524902344 3.3918726444244385 8.8589038848876953
   vertex -3.5137417316436768 0.90410000085830688 8.8589038848876953
   vertex -1.486541748046875 1.1675000190734863 10.624604225158691
  endloop
 endfacet
 facet normal -0.63209934553779457 -0.2618241078083034 0.72931375548598965
  outer loop
   vertex -1.486541748046875 1.1675000190734863 10.624604225158691
   vertex -0.45607265830039978 -1.3202725648880005 10.624604225158691
   vertex 0.49445840716362 1.445099949836731 12.441204071044922
  endloop
 endfacet
 facet normal -0.091782246234522913 0.22158192690326459 0.97081278779483615
  outer loop
   vertex 6.086400032043457 1.5961999893188477 15.989899635314941
   vertex 6.086400032043457 3.5486767292022705 15.544259071350098
   vertex 4.7057905197143555 2.9768095016479492 15.544259071350098
  endloop
 endfacet
 facet normal -0.36591941227556596 -0.80063655074027362 0.47443028712195634
  outer loop
   vertex 1.5249274969100952 -1.0426726341247559 12.441204071044922
   vertex 2.0316998958587646 -2.3507416248321533 10.624604225158691
   vertex 3.5986275672912598 -0.89157253503799438 14.29560375213623
  endloop
 endfacet
 facet normal -0.30682457109807654 -0.83224266145975412 0.46176924433841054
  outer loop
   vertex 2.0316998958587646 -2.3507416248321533 10.624604225158691
   vertex 4.012700080871582 -2.0731418132781982 12.441204071044922
   vertex 3.5986275672912598 -0.89157253503799438 14.29560375213623
  endloop
 endfacet
 facet normal -0.25240332725988934 -0.87179745024779509 0.41983540361620336
  outer loop
   vertex 2.0316998958587646 -3.2196755409240723 8.8202438354492188
   vertex 2.0316998958587646 -2.3507416248321533 10.624604225158691
   vertex 0.0044999998062849045 -2.6141417026519775 8.8589038848876953
  endloop
 endfacet
 facet normal -0.63261993964743934 -0.26203974493757781 0.72878473092780927
  outer loop
   vertex 0.49445840716362 1.445099949836731 12.441204071044922
   vertex 1.5249274969100952 -1.0426726341247559 12.441204071044922
   vertex 2.5681583881378174 1.5961999893188477 14.29560375213623
  endloop
 endfacet
 facet normal -0.33410749573463411 -0.80660690392055001 0.4876038185265123
  outer loop
   vertex -0.45607265830039978 -1.3202725648880005 10.624604225158691
   vertex 2.0316998958587646 -2.3507416248321533 10.624604225158691
   vertex 1.5249274969100952 -1.0426726341247559 12.441204071044922
  endloop
 endfacet
 facet normal 0.3826834476955005 -0.9238795261612226 0
  outer loop
   vertex 6.086400032043457 -2.7909755706787109 12.491243362426758
   vertex 6.086400032043457 -2.7909755706787109 10.488555908203125
   vertex 9.1886014938354492 -1.5060015916824341 12.491243362426758
  endloop
 endfacet
 facet normal -0.30091464592334649 -0.8374953128046223 0.45612714992545089
  outer loop
   vertex 4.012700080871582 -2.0731418132781982 12.441204071044922
   vertex 2.0316998958587646 -2.3507416248321533 10.624604225158691
   vertex 6.086400032043457 -2.7909755706787109 12.491243362426758
  endloop
 endfacet
 facet normal -0.26764317587419151 -0.88892464455080422 0.3717258488701084
  outer loop
   vertex 2.0316998958587646 -2.3507416248321533 10.624604225158691
   vertex 4.012700080871582 -2.9420757293701172 10.636843681335449
   vertex 6.086400032043457 -2.7909755706787109 12.491243362426758
  endloop
 endfacet
 facet normal -0.091782242273429043 -0.22158191734033877 0.9708127903520023
  outer loop
   vertex 6.086400032043457 1.5961999893188477 15.989899635314941
   vertex 4.7057905197143555 0.21559038758277893 15.544259071350098
   vertex 6.086400032043457 -0.35627683997154236 15.544259071350098
  endloop
 endfacet
 facet normal 0.84410379774442179 -0.34963918035747371 0.4064987357820421
  outer loop
   vertex 10.473575592041016 1.5961999893188477 12.491243362426758
   vertex 9.6046419143676758 1.5961999893188477 14.29560375213623
   vertex 8.5741729736328125 -0.89157253503799438 14.29560375213623
  endloop
 endfacet
 facet normal -0.67014312420711075 0.27758235606163068 0.68837215856047462
  outer loop
   vertex 1.5249274969100952 3.9328725337982178 12.441204071044922
   vertex -0.45607265830039978 3.6552724838256836 10.624604225158691
   vertex 0.49445840716362 1.445099949836731 12.441204071044922
  endloop
 endfacet
 facet normal 0.38268347799853508 0.92387951360929355 -0
  outer loop
   vertex 12.810101509094238 11.390301704406738 3.780144214630127
   vertex 12.810101509094238 11.390301704406738 1.7774558067321777
   vertex 9.7079000473022461 12.675275802612305 3.780144214630127
  endloop
 endfacet
 facet normal -0.53958467599524518 0.68958034758191211 0.48303966882639721
  outer loop
   vertex -0.45607265830039978 3.6552724838256836 10.624604225158691
   vertex 1.5249274969100952 3.9328725337982178 12.441204071044922
   vertex 5.9783272743225098 9.6807727813720703 9.2103042602539063
  endloop
 endfacet
 facet normal -0.51173716645295608 0.6867008416175322 0.51630129439356687
  outer loop
   vertex 1.5249274969100952 3.9328725337982178 12.441204071044922
   vertex 3.5986275672912598 4.0839724540710449 14.29560375213623
   vertex 5.9783272743225098 9.6807727813720703 9.2103042602539063
  endloop
 endfacet
 facet normal -0.67014311426748896 0.27758236524571922 0.68837216453344707
  outer loop
   vertex -0.45607265830039978 3.6552724838256836 10.624604225158691
   vertex -1.486541748046875 1.1675000190734863 10.624604225158691
   vertex 0.49445840716362 1.445099949836731 12.441204071044922
  endloop
 endfacet
 facet normal -0.60368268026811422 0.25005357395777655 0.75699434059657844
  outer loop
   vertex 4.1339230537414551 1.5961999893188477 15.544259071350098
   vertex 3.5986275672912598 4.0839724540710449 14.29560375213623
   vertex 2.5681583881378174 1.5961999893188477 14.29560375213623
  endloop
 endfacet
 facet normal -0.30680392214841712 -0.85751765689428749 0.41295861955997359
  outer loop
   vertex 6.086400032043457 -1.922041654586792 14.29560375213623
   vertex 4.012700080871582 -2.0731418132781982 12.441204071044922
   vertex 6.086400032043457 -2.7909755706787109 12.491243362426758
  endloop
 endfacet
 facet normal 0.25005353593437035 -0.60368259216205167 0.7569944234188416
  outer loop
   vertex 7.4670095443725586 0.21559038758277893 15.544259071350098
   vertex 6.086400032043457 -0.35627683997154236 15.544259071350098
   vertex 8.5741729736328125 -0.89157253503799438 14.29560375213623
  endloop
 endfacet
 facet normal 0.25005350183016684 -0.60368265676426724 0.75699438316575818
  outer loop
   vertex 6.086400032043457 -0.35627683997154236 15.544259071350098
   vertex 6.086400032043457 -1.922041654586792 14.29560375213623
   vertex 8.5741729736328125 -0.89157253503799438 14.29560375213623
  endloop
 endfacet
 facet normal 0.34963924692090803 -0.8441037722375816 0.40649873149478027
  outer loop
   vertex 8.5741729736328125 -0.89157253503799438 14.29560375213623
   vertex 6.086400032043457 -2.7909755706787109 12.491243362426758
   vertex 9.1886014938354492 -1.5060015916824341 12.491243362426758
  endloop
 endfacet
 facet normal 0.34963916628931807 -0.84410375887371392 0.40649882859828473
  outer loop
   vertex 8.5741729736328125 -0.89157253503799438 14.29560375213623
   vertex 6.086400032043457 -1.922041654586792 14.29560375213623
   vertex 6.086400032043457 -2.7909755706787109 12.491243362426758
  endloop
 endfacet
 facet normal 0.22158195318261378 0.091782218854618944 0.97081278438528029
  outer loop
   vertex 6.086400032043457 1.5961999893188477 15.989899635314941
   vertex 8.0388765335083008 1.5961999893188477 15.544259071350098
   vertex 7.4670095443725586 2.9768095016479492 15.544259071350098
  endloop
 endfacet
 facet normal 0.60368255519050118 0.25005346429430608 0.75699447656709062
  outer loop
   vertex 7.4670095443725586 2.9768095016479492 15.544259071350098
   vertex 9.6046419143676758 1.5961999893188477 14.29560375213623
   vertex 8.5741729736328125 4.0839724540710449 14.29560375213623
  endloop
 endfacet
 facet normal 0.60368253820969542 0.25005340933614267 0.75699450826282155
  outer loop
   vertex 7.4670095443725586 2.9768095016479492 15.544259071350098
   vertex 8.0388765335083008 1.5961999893188477 15.544259071350098
   vertex 9.6046419143676758 1.5961999893188477 14.29560375213623
  endloop
 endfacet
 facet normal -0.34963917244230736 0.84410375841159913 0.40649882426554618
  outer loop
   vertex 8.466099739074707 10.711241722106934 9.2103042602539063
   vertex 8.466099739074707 11.580175399780273 7.4059443473815918
   vertex 5.9783272743225098 9.6807727813720703 9.2103042602539063
  endloop
 endfacet
 facet normal 0.091782246234522913 0.22158192690326459 0.97081278779483615
  outer loop
   vertex 6.086400032043457 1.5961999893188477 15.989899635314941
   vertex 7.4670095443725586 2.9768095016479492 15.544259071350098
   vertex 6.086400032043457 3.5486767292022705 15.544259071350098
  endloop
 endfacet
 facet normal -0.5497575904460924 0.71561225845617338 0.43088941422847865
  outer loop
   vertex -2.4832725524902344 3.3918726444244385 8.8589038848876953
   vertex 5.9783272743225098 9.6807727813720703 9.2103042602539063
   vertex 5.3638982772827148 10.295201301574707 7.4059443473815918
  endloop
 endfacet
 facet normal -0.22158190062392133 0.091782273614420262 0.9708127912043899
  outer loop
   vertex 6.086400032043457 1.5961999893188477 15.989899635314941
   vertex 4.7057905197143555 2.9768095016479492 15.544259071350098
   vertex 4.1339230537414551 1.5961999893188477 15.544259071350098
  endloop
 endfacet
 facet normal -0.25005359698572477 0.60368259618908204 0.75699440004065466
  outer loop
   vertex 4.7057905197143555 2.9768095016479492 15.544259071350098
   vertex 6.086400032043457 5.1144418716430664 14.29560375213623
   vertex 3.5986275672912598 4.0839724540710449 14.29560375213623
  endloop
 endfacet
 facet normal -0.25005352888697918 0.60368257514814561 0.75699443931489507
  outer loop
   vertex 4.7057905197143555 2.9768095016479492 15.544259071350098
   vertex 6.086400032043457 3.5486767292022705 15.544259071350098
   vertex 6.086400032043457 5.1144418716430664 14.29560375213623
  endloop
 endfacet
 facet normal -0.65264313416077036 0.27033362322733401 0.70779705536657078
  outer loop
   vertex 1.5249274969100952 3.9328725337982178 12.441204071044922
   vertex 0.49445840716362 1.445099949836731 12.441204071044922
   vertex 2.5681583881378174 1.5961999893188477 14.29560375213623
  endloop
 endfacet
 facet normal -0.22158190074480075 -0.091782267720757274 0.97081279173399671
  outer loop
   vertex 6.086400032043457 1.5961999893188477 15.989899635314941
   vertex 4.1339230537414551 1.5961999893188477 15.544259071350098
   vertex 4.7057905197143555 0.21559038758277893 15.544259071350098
  endloop
 endfacet
 facet normal -0.60368268117248025 -0.25005356834133335 0.75699434173061786
  outer loop
   vertex 4.1339230537414551 1.5961999893188477 15.544259071350098
   vertex 2.5681583881378174 1.5961999893188477 14.29560375213623
   vertex 3.5986275672912598 -0.89157253503799438 14.29560375213623
  endloop
 endfacet
 facet normal -0.60368258296934163 -0.25005362018382482 0.75699440292014541
  outer loop
   vertex 4.7057905197143555 0.21559038758277893 15.544259071350098
   vertex 4.1339230537414551 1.5961999893188477 15.544259071350098
   vertex 3.5986275672912598 -0.89157253503799438 14.29560375213623
  endloop
 endfacet
 facet normal -0.25005355400969975 -0.60368263579975368 0.75699438264823349
  outer loop
   vertex 4.7057905197143555 0.21559038758277893 15.544259071350098
   vertex 3.5986275672912598 -0.89157253503799438 14.29560375213623
   vertex 6.086400032043457 -0.35627683997154236 15.544259071350098
  endloop
 endfacet
 facet normal 0.077319483052477322 -0.99470606672273898 0.067687062024256034
  outer loop
   vertex 4.012700080871582 -2.9420757293701172 10.636843681335449
   vertex 2.0316998958587646 -3.2196755409240723 8.8202438354492188
   vertex 6.086400032043457 -2.7909755706787109 10.488555908203125
  endloop
 endfacet
 facet normal 0.13225599823052245 -0.98892709641597942 -0.067316780272887289
  outer loop
   vertex 2.0316998958587646 -3.2196755409240723 8.8202438354492188
   vertex 4.012700080871582 -2.9420757293701172 8.6341562271118164
   vertex 6.086400032043457 -2.7909755706787109 10.488555908203125
  endloop
 endfacet
 facet normal 0.22158195330349312 -0.091782212960959411 0.97081278491488654
  outer loop
   vertex 8.0388765335083008 1.5961999893188477 15.544259071350098
   vertex 6.086400032043457 1.5961999893188477 15.989899635314941
   vertex 7.4670095443725586 0.21559038758277893 15.544259071350098
  endloop
 endfacet
 facet normal -0.34184120088410264 -0.8252776436907322 0.44951240717291402
  outer loop
   vertex 3.5986275672912598 -0.89157253503799438 14.29560375213623
   vertex 4.012700080871582 -2.0731418132781982 12.441204071044922
   vertex 6.086400032043457 -1.922041654586792 14.29560375213623
  endloop
 endfacet
 facet normal 0.091782242273429043 -0.22158191734033877 0.9708127903520023
  outer loop
   vertex 6.086400032043457 1.5961999893188477 15.989899635314941
   vertex 6.086400032043457 -0.35627683997154236 15.544259071350098
   vertex 7.4670095443725586 0.21559038758277893 15.544259071350098
  endloop
 endfacet
 facet normal -0.25005354676170127 -0.60368264952934203 0.75699437409344561
  outer loop
   vertex 6.086400032043457 -0.35627683997154236 15.544259071350098
   vertex 3.5986275672912598 -0.89157253503799438 14.29560375213623
   vertex 6.086400032043457 -1.922041654586792 14.29560375213623
  endloop
 endfacet
 facet normal 0.3492931044893951 -0.92808471717754659 -0.12904683218751981
  outer loop
   vertex 5.111299991607666 -2.3597755432128906 -3.3145442008972168
   vertex 9.4526996612548828 -0.97617560625076294 -1.5142441987991333
   vertex 4.3847999572753906 -2.8712756633758545 -1.6023441553115845
  endloop
 endfacet
 facet normal 0.90572005677081024 -0.37516156922340421 0.19729413509000471
  outer loop
   vertex 12.554901123046875 0.3087984025478363 0.48844420909881592
   vertex 10.473575592041016 1.5961999893188477 12.491243362426758
   vertex 9.1886014938354492 -1.5060015916824341 12.491243362426758
  endloop
 endfacet
 facet normal 0.072672341097083662 -0.997355869707232 0
  outer loop
   vertex 6.086400032043457 -2.7909755706787109 12.491243362426758
   vertex 4.012700080871582 -2.9420757293701172 10.636843681335449
   vertex 6.086400032043457 -2.7909755706787109 10.488555908203125
  endloop
 endfacet
 facet normal 0.60368256124979669 -0.2500534608131067 0.75699447288489075
  outer loop
   vertex 9.6046419143676758 1.5961999893188477 14.29560375213623
   vertex 7.4670095443725586 0.21559038758277893 15.544259071350098
   vertex 8.5741729736328125 -0.89157253503799438 14.29560375213623
  endloop
 endfacet
 facet normal 0.60368254065410876 -0.25005339415542999 0.7569945113280212
  outer loop
   vertex 7.4670095443725586 0.21559038758277893 15.544259071350098
   vertex 9.6046419143676758 1.5961999893188477 14.29560375213623
   vertex 8.0388765335083008 1.5961999893188477 15.544259071350098
  endloop
 endfacet
 facet normal 0.38239508900680702 -0.923183366736824 -0.038813235937488713
  outer loop
   vertex 6.086400032043457 -2.7909755706787109 10.488555908203125
   vertex 9.4526996612548828 -0.97617560625076294 0.48844420909881592
   vertex 9.1886014938354492 -1.5060015916824341 10.488555908203125
  endloop
 endfacet
 facet normal 0.84410381485133656 -0.34963928357305113 0.40649861148095456
  outer loop
   vertex 10.473575592041016 1.5961999893188477 12.491243362426758
   vertex 8.5741729736328125 -0.89157253503799438 14.29560375213623
   vertex 9.1886014938354492 -1.5060015916824341 12.491243362426758
  endloop
 endfacet
 facet normal 0.47454108694903496 -0.88023335360416122 0
  outer loop
   vertex 12.554901123046875 0.3087984025478363 0.48844420909881592
   vertex 9.1886014938354492 -1.5060015916824341 12.491243362426758
   vertex 9.1886014938354492 -1.5060015916824341 10.488555908203125
  endloop
 endfacet
 facet normal -0.22158191421659326 -0.091782237837701675 -0.97081279148433852
  outer loop
   vertex -0.43010959029197693 -0.83590960502624512 -8.1172599792480469
   vertex -1.0019768476486206 0.544700026512146 -8.1172599792480469
   vertex 0.9505000114440918 0.544700026512146 -8.5629005432128906
  endloop
 endfacet
 facet normal -0.34963921289047811 -0.84410370121053735 -0.40649890825437518
  outer loop
   vertex 0.9505000114440918 -2.9735417366027832 -6.8686041831970215
   vertex 0.9505000114440918 -3.8424756526947021 -5.064244270324707
   vertex -1.537272572517395 -1.9430725574493408 -6.8686041831970215
  endloop
 endfacet
 facet normal -0.50183040165221682 0.75220460896163055 -0.42702982827251673
  outer loop
   vertex -0.55177253484725952 6.3783726692199707 -5.2737040519714355
   vertex -1.1662015914916992 6.9928016662597656 -3.4693441390991211
   vertex 0.58272737264633179 7.3735723495483398 -4.8539037704467773
  endloop
 endfacet
 facet normal -0.50183043675081085 0.75220455138757492 -0.42702988844143858
  outer loop
   vertex -1.1662015914916992 6.9928016662597656 -3.4693441390991211
   vertex -0.031701724976301193 7.9880013465881348 -3.049544095993042
   vertex 0.58272737264633179 7.3735723495483398 -4.8539037704467773
  endloop
 endfacet
 facet normal -0.3496392810894553 0.84410377641876022 0.40649869342328332
  outer loop
   vertex 5.9783272743225098 9.6807727813720703 9.2103042602539063
   vertex 8.466099739074707 11.580175399780273 7.4059443473815918
   vertex 5.3638982772827148 10.295201301574707 7.4059443473815918
  endloop
 endfacet
 facet normal 0.38268347799853508 0.92387951360929355 0
  outer loop
   vertex 9.7079000473022461 12.675275802612305 3.780144214630127
   vertex 12.810101509094238 11.390301704406738 1.7774558067321777
   vertex 9.7079000473022461 12.675275802612305 1.7774558067321777
  endloop
 endfacet
 facet normal 0.99863378648197454 -0.052254765301109229 0
  outer loop
   vertex 14.095075607299805 8.2881002426147461 3.780144214630127
   vertex 13.839875221252441 3.4110000133514404 0.48844420909881592
   vertex 14.095075607299805 8.2881002426147461 1.7774558067321777
  endloop
 endfacet
 facet normal 0.94042596030822023 0.04802094489927472 0.33659025836964201
  outer loop
   vertex 12.195672988891602 10.775873184204102 5.5845041275024414
   vertex 12.810101509094238 11.390301704406738 3.780144214630127
   vertex 11.568301200866699 10.295201301574707 7.4059443473815918
  endloop
 endfacet
 facet normal 0.35406561725687158 0.85478989573285147 0.37943612483464373
  outer loop
   vertex 12.810101509094238 11.390301704406738 3.780144214630127
   vertex 9.7079000473022461 12.675275802612305 3.780144214630127
   vertex 11.568301200866699 10.295201301574707 7.4059443473815918
  endloop
 endfacet
 facet normal 0.87494698641194102 0.23860039179520987 -0.42135213777057667
  outer loop
   vertex 14.095075607299805 8.2881002426147461 1.7774558067321777
   vertex 13.839875221252441 3.4110000133514404 -1.5142441987991333
   vertex 13.226141929626465 8.2881002426147461 -0.026904096826910973
  endloop
 endfacet
 facet normal 0.99863378648197454 -0.052254765301109229 0
  outer loop
   vertex 13.839875221252441 3.4110000133514404 0.48844420909881592
   vertex 13.839875221252441 3.4110000133514404 -1.5142441987991333
   vertex 14.095075607299805 8.2881002426147461 1.7774558067321777
  endloop
 endfacet
 facet normal 0.84410380740341695 0.34963929392372217 -0.40649861804387011
  outer loop
   vertex 12.810101509094238 11.390301704406738 1.7774558067321777
   vertex 14.095075607299805 8.2881002426147461 1.7774558067321777
   vertex 12.195672988891602 10.775873184204102 -0.026904096826910973
  endloop
 endfacet
 facet normal 0.84410377747025711 0.34963911332051539 -0.40649883554185812
  outer loop
   vertex 14.095075607299805 8.2881002426147461 1.7774558067321777
   vertex 13.226141929626465 8.2881002426147461 -0.026904096826910973
   vertex 12.195672988891602 10.775873184204102 -0.026904096826910973
  endloop
 endfacet
 facet normal 0.25005340933614267 0.60368253820969542 0.75699450826282155
  outer loop
   vertex 8.466099739074707 9.1454763412475586 10.458959579467773
   vertex 9.8467092514038086 8.5736093521118164 10.458959579467773
   vertex 8.466099739074707 10.711241722106934 9.2103042602539063
  endloop
 endfacet
 facet normal -0.29335064609694983 0.70821088664307896 0.64217033447110139
  outer loop
   vertex 3.5986275672912598 4.0839724540710449 14.29560375213623
   vertex 6.086400032043457 5.1144418716430664 14.29560375213623
   vertex 5.9783272743225098 9.6807727813720703 9.2103042602539063
  endloop
 endfacet
 facet normal 0.41715516469392694 0.80750817735553315 -0.41702771139712952
  outer loop
   vertex 9.5030727386474609 10.258672714233398 -3.721804141998291
   vertex 10.117501258850098 10.873101234436035 -1.9174442291259766
   vertex 12.195672988891602 10.775873184204102 -0.026904096826910973
  endloop
 endfacet
 facet normal 0.92387951360929355 0.38268347799853508 0
  outer loop
   vertex 12.810101509094238 11.390301704406738 3.780144214630127
   vertex 14.095075607299805 8.2881002426147461 1.7774558067321777
   vertex 12.810101509094238 11.390301704406738 1.7774558067321777
  endloop
 endfacet
 facet normal 0.77864333506679295 0.32252451953430017 -0.53823089009757763
  outer loop
   vertex 13.226141929626465 8.2881002426147461 -0.026904096826910973
   vertex 11.940472602844238 5.8987727165222168 -3.3186039924621582
   vertex 12.195672988891602 10.775873184204102 -0.026904096826910973
  endloop
 endfacet
 facet normal 0.84410380812334806 0.34963929422192741 0.40649861629242279
  outer loop
   vertex 12.195672988891602 10.775873184204102 5.5845041275024414
   vertex 14.095075607299805 8.2881002426147461 3.780144214630127
   vertex 12.810101509094238 11.390301704406738 3.780144214630127
  endloop
 endfacet
 facet normal 0.844103778190189 0.34963911361872085 0.40649883379041024
  outer loop
   vertex 13.226141929626465 8.2881002426147461 5.5845041275024414
   vertex 14.095075607299805 8.2881002426147461 3.780144214630127
   vertex 12.195672988891602 10.775873184204102 5.5845041275024414
  endloop
 endfacet
 facet normal -0.18863380384055228 0.98204749785773804 0
  outer loop
   vertex 9.7079000473022461 12.675275802612305 1.7774558067321777
   vertex 7.0152997970581055 12.158075332641602 -1.9174442291259766
   vertex 7.0152997970581055 12.158075332641602 0.085244178771972656
  endloop
 endfacet
 facet normal 0.35430250041347849 0.85536178218233416 -0.37792321942772722
  outer loop
   vertex 10.117501258850098 10.873101234436035 -1.9174442291259766
   vertex 7.0152997970581055 12.158075332641602 -1.9174442291259766
   vertex 9.7079000473022461 12.675275802612305 1.7774558067321777
  endloop
 endfacet
 facet normal -0.3784743701765374 0.91371790006303288 0.14790791129576186
  outer loop
   vertex 7.0152997970581055 12.158075332641602 0.085244178771972656
   vertex 3.9130980968475342 10.873101234436035 0.085244178771972656
   vertex 6.6056985855102539 11.390301704406738 3.780144214630127
  endloop
 endfacet
 facet normal -0.54655583766602223 0.71062519737379037 0.44304463112721998
  outer loop
   vertex -4.9447016716003418 3.7420015335083008 5.199944019317627
   vertex -3.0977015495300293 4.0063014030456543 7.0545439720153809
   vertex 5.3638982772827148 10.295201301574707 7.4059443473815918
  endloop
 endfacet
 facet normal -0.55371954706496818 0.81720330362993188 0.15991692760459125
  outer loop
   vertex -3.9549016952514648 5.0774016380310059 1.8030441999435425
   vertex -4.9447016716003418 3.7420015335083008 5.199944019317627
   vertex 5.3638982772827148 10.295201301574707 7.4059443473815918
  endloop
 endfacet
 facet normal 0.24402046176821884 0.58911743680028772 0.77032114075642766
  outer loop
   vertex 6.086400032043457 5.1144418716430664 14.29560375213623
   vertex 8.5741729736328125 4.0839724540710449 14.29560375213623
   vertex 8.466099739074707 9.1454763412475586 10.458959579467773
  endloop
 endfacet
 facet normal -0.55749761170670253 0.81245593306250885 0.17062171541996374
  outer loop
   vertex 2.5516984462738037 9.991002082824707 -0.33425581455230713
   vertex -3.9549016952514648 5.0774016380310059 1.8030441999435425
   vertex 5.3638982772827148 10.295201301574707 7.4059443473815918
  endloop
 endfacet
 facet normal -0.29335052257739014 0.70821091615654208 0.64217035834759872
  outer loop
   vertex 6.086400032043457 5.1144418716430664 14.29560375213623
   vertex 8.466099739074707 10.711241722106934 9.2103042602539063
   vertex 5.9783272743225098 9.6807727813720703 9.2103042602539063
  endloop
 endfacet
 facet normal 0.94109923337858636 -0.22161049822263498 0.25538406373881789
  outer loop
   vertex 13.839875221252441 3.4110000133514404 0.48844420909881592
   vertex 14.095075607299805 8.2881002426147461 3.780144214630127
   vertex 12.853275299072266 7.1929998397827148 7.4059443473815918
  endloop
 endfacet
 facet normal -0.52835294177793757 0.68268498704918323 0.50476170355154293
  outer loop
   vertex -2.4832725524902344 3.3918726444244385 8.8589038848876953
   vertex -0.45607265830039978 3.6552724838256836 10.624604225158691
   vertex 5.9783272743225098 9.6807727813720703 9.2103042602539063
  endloop
 endfacet
 facet normal 0.70272124395690017 0.29107662623972402 0.64919738981958863
  outer loop
   vertex 8.5741729736328125 4.0839724540710449 14.29560375213623
   vertex 9.6046419143676758 1.5961999893188477 14.29560375213623
   vertex 11.984341621398926 7.1929998397827148 9.2103042602539063
  endloop
 endfacet
 facet normal 0.90091298505142836 0.011147137056722304 0.43385658310225456
  outer loop
   vertex 9.6046419143676758 1.5961999893188477 14.29560375213623
   vertex 10.473575592041016 1.5961999893188477 12.491243362426758
   vertex 11.984341621398926 7.1929998397827148 9.2103042602539063
  endloop
 endfacet
 facet normal 0.35406561725687158 0.85478989573285147 0.37943612483464373
  outer loop
   vertex 11.568301200866699 10.295201301574707 7.4059443473815918
   vertex 9.7079000473022461 12.675275802612305 3.780144214630127
   vertex 8.466099739074707 11.580175399780273 7.4059443473815918
  endloop
 endfacet
 facet normal 0.83218606139014617 0.38322073250841021 0.40075956557975401
  outer loop
   vertex 14.095075607299805 8.2881002426147461 3.780144214630127
   vertex 13.226141929626465 8.2881002426147461 5.5845041275024414
   vertex 12.853275299072266 7.1929998397827148 7.4059443473815918
  endloop
 endfacet
 facet normal 0.24402035498014937 0.58911745158899209 0.77032116327454847
  outer loop
   vertex 8.5741729736328125 4.0839724540710449 14.29560375213623
   vertex 9.8467092514038086 8.5736093521118164 10.458959579467773
   vertex 8.466099739074707 9.1454763412475586 10.458959579467773
  endloop
 endfacet
 facet normal -0.57298811739715161 0.80028229501109049 0.17672822528801099
  outer loop
   vertex 5.3638982772827148 10.295201301574707 7.4059443473815918
   vertex 3.9130980968475342 10.873101234436035 0.085244178771972656
   vertex 2.5516984462738037 9.991002082824707 -0.33425581455230713
  endloop
 endfacet
 facet normal 0.85204137297876348 0.35292697191037803 0.38661098177707648
  outer loop
   vertex 13.226141929626465 8.2881002426147461 5.5845041275024414
   vertex 12.195672988891602 10.775873184204102 5.5845041275024414
   vertex 11.568301200866699 10.295201301574707 7.4059443473815918
  endloop
 endfacet
 facet normal 0.25005340933174308 0.60368253820833606 0.75699450826535897
  outer loop
   vertex 9.8467092514038086 8.5736093521118164 10.458959579467773
   vertex 10.953872680664063 9.6807727813720703 9.2103042602539063
   vertex 8.466099739074707 10.711241722106934 9.2103042602539063
  endloop
 endfacet
 facet normal 0.29223521390281348 0.57207698080280456 0.76637230364276887
  outer loop
   vertex 9.8467092514038086 8.5736093521118164 10.458959579467773
   vertex 8.5741729736328125 4.0839724540710449 14.29560375213623
   vertex 10.953872680664063 9.6807727813720703 9.2103042602539063
  endloop
 endfacet
 facet normal 0.70272127092967152 0.2910765816208819 0.64919738062848731
  outer loop
   vertex 8.5741729736328125 4.0839724540710449 14.29560375213623
   vertex 11.984341621398926 7.1929998397827148 9.2103042602539063
   vertex 10.953872680664063 9.6807727813720703 9.2103042602539063
  endloop
 endfacet
 facet normal 0.84410380812334806 0.34963929422192741 0.40649861629242279
  outer loop
   vertex 10.953872680664063 9.6807727813720703 9.2103042602539063
   vertex 12.853275299072266 7.1929998397827148 7.4059443473815918
   vertex 11.568301200866699 10.295201301574707 7.4059443473815918
  endloop
 endfacet
 facet normal 0.85204138355251957 0.35292714607637998 0.38661079948223098
  outer loop
   vertex 12.853275299072266 7.1929998397827148 7.4059443473815918
   vertex 13.226141929626465 8.2881002426147461 5.5845041275024414
   vertex 11.568301200866699 10.295201301574707 7.4059443473815918
  endloop
 endfacet
 facet normal 0.92387951360929355 0.38268347799853508 0
  outer loop
   vertex 12.810101509094238 11.390301704406738 3.780144214630127
   vertex 14.095075607299805 8.2881002426147461 3.780144214630127
   vertex 14.095075607299805 8.2881002426147461 1.7774558067321777
  endloop
 endfacet
 facet normal 0.2002166318162924 0.61086489290686519 0.76600090271358268
  outer loop
   vertex 8.466099739074707 10.711241722106934 9.2103042602539063
   vertex 6.086400032043457 5.1144418716430664 14.29560375213623
   vertex 8.466099739074707 9.1454763412475586 10.458959579467773
  endloop
 endfacet
 facet normal 0.34963929422192741 0.84410380812334806 0.40649861629242279
  outer loop
   vertex 10.953872680664063 9.6807727813720703 9.2103042602539063
   vertex 11.568301200866699 10.295201301574707 7.4059443473815918
   vertex 8.466099739074707 11.580175399780273 7.4059443473815918
  endloop
 endfacet
 facet normal 0.34963911361872085 0.844103778190189 0.40649883379041024
  outer loop
   vertex 8.466099739074707 10.711241722106934 9.2103042602539063
   vertex 10.953872680664063 9.6807727813720703 9.2103042602539063
   vertex 8.466099739074707 11.580175399780273 7.4059443473815918
  endloop
 endfacet
 facet normal -0.37728368258742562 0.91436470558479288 0.14694967857775582
  outer loop
   vertex 5.3638982772827148 10.295201301574707 7.4059443473815918
   vertex 6.6056985855102539 11.390301704406738 3.780144214630127
   vertex 3.9130980968475342 10.873101234436035 0.085244178771972656
  endloop
 endfacet
 facet normal -0.54975755788355873 0.71561223750811975 0.43088949056402864
  outer loop
   vertex -3.0977015495300293 4.0063014030456543 7.0545439720153809
   vertex -2.4832725524902344 3.3918726444244385 8.8589038848876953
   vertex 5.3638982772827148 10.295201301574707 7.4059443473815918
  endloop
 endfacet
 facet normal 0.90091293956156226 0.011147203706591112 0.43385667585052634
  outer loop
   vertex 11.984341621398926 7.1929998397827148 9.2103042602539063
   vertex 10.473575592041016 1.5961999893188477 12.491243362426758
   vertex 12.853275299072266 7.1929998397827148 7.4059443473815918
  endloop
 endfacet
endsolid
