solid Visualization Toolkit generated SLA File
 facet normal -0.34963924651909128 -0.8441037335043341 0.40649881227084311
  outer loop
   vertex -0.067000001668930054 -6.2889418601989746 1.7341041564941406
   vertex -3.1692016124725342 -5.872901439666748 -0.070255756378173828
   vertex -0.067000001668930054 -7.1578755378723145 -0.070255756378173828
  endloop
 endfacet
 facet normal 0.78421676718627253 -0.50635460655784403 -0.35862107367186691
  outer loop
   vertex 6.1208014488220215 -4.4019017219543457 2.2886557579040527
   vertex 5.3118014335632324 -4.8342018127441406 1.1299557685852051
   vertex 5.3714017868041992 -0.4161016047000885 -4.97784423828125
  endloop
 endfacet
 facet normal -0.89734769505713396 -0.089567874995946387 -0.43213968799956248
  outer loop
   vertex -5.6116418838500977 5.6417999267578125 -4.3736038208007813
   vertex -5.0533418655395508 0.84109997749328613 -4.5379042625427246
   vertex -5.9222755432128906 0.84109997749328613 -2.7335441112518311
  endloop
 endfacet
 facet normal -0.70327906392283723 -0.29130767582093509 0.64848931853625991
  outer loop
   vertex -0.24214175343513489 -0.13240000605583191 7.035304069519043
   vertex -4.1612415313720703 -0.57870000600814819 2.584604024887085
   vertex -3.130772590637207 -3.0664725303649902 2.584604024887085
  endloop
 endfacet
 facet normal -0.89327471255925062 -0.13041019766866288 -0.43017841443546245
  outer loop
   vertex -3.1692016124725342 0.33150163292884827 -0.070255756378173828
   vertex -0.067000001668930054 -2.7706999778747559 -5.5715999603271484
   vertex -3.5852415561676025 -2.7706999778747559 1.7341041564941406
  endloop
 endfacet
 facet normal 0.25005367377409199 -0.60368271234763604 -0.75699428204226304
  outer loop
   vertex 2.4207725524902344 -5.2584724426269531 -3.8773040771484375
   vertex -0.067000001668930054 -4.7231769561767578 -5.1259598731994629
   vertex 1.3136096000671387 -4.1513094902038574 -5.1259598731994629
  endloop
 endfacet
 facet normal -0.38268346230862393 -0.92387952010826824 0
  outer loop
   vertex -3.1692016124725342 -5.872901439666748 -0.070255756378173828
   vertex -3.1692016124725342 -5.872901439666748 -2.072944164276123
   vertex -0.067000001668930054 -7.1578755378723145 -0.070255756378173828
  endloop
 endfacet
 facet normal -0.54802246046104963 0.65397359225591356 0.52152653188703002
  outer loop
   vertex -3.5852415561676025 -2.7706999778747559 1.7341041564941406
   vertex -0.067000001668930054 -0.81822317838668823 2.982759952545166
   vertex -0.067000001668930054 1.6164755821228027 -0.070255756378173828
  endloop
 endfacet
 facet normal 0.4194555386582548 -0.88501604554292856 0.20199913420723001
  outer loop
   vertex -0.067000001668930054 -2.7706999778747559 -5.5715999603271484
   vertex -0.067000001668930054 -0.81822317838668823 2.982759952545166
   vertex -3.5852415561676025 -2.7706999778747559 1.7341041564941406
  endloop
 endfacet
 facet normal -0.25005366546551988 -0.60368271835158926 -0.75699427999879465
  outer loop
   vertex -2.5547726154327393 -5.2584724426269531 -3.8773040771484375
   vertex -1.4476096630096436 -4.1513094902038574 -5.1259598731994629
   vertex -0.067000001668930054 -4.7231769561767578 -5.1259598731994629
  endloop
 endfacet
 facet normal -0.17950387378558497 0.17950386922396058 -0.96724181062937742
  outer loop
   vertex -3.5852415561676025 -2.7706999778747559 1.7341041564941406
   vertex -0.067000001668930054 0.74754166603088379 1.7341041564941406
   vertex 3.0352015495300293 -5.872901439666748 -0.070255756378173828
  endloop
 endfacet
 facet normal -0.52907709808098313 0.52907708463586389 0.66344168002878801
  outer loop
   vertex -0.067000001668930054 -0.81822317838668823 2.982759952545166
   vertex -0.067000001668930054 0.74754166603088379 1.7341041564941406
   vertex -3.5852415561676025 -2.7706999778747559 1.7341041564941406
  endloop
 endfacet
 facet normal 0.41508806147163868 -0.90978123811371114 0
  outer loop
   vertex 3.0352015495300293 -5.872901439666748 -0.070255756378173828
   vertex 3.0352015495300293 -5.872901439666748 -2.072944164276123
   vertex 5.3118014335632324 -4.8342018127441406 1.1299557685852051
  endloop
 endfacet
 facet normal 0.38261409849177674 -0.92371204330836021 0.019039765818383916
  outer loop
   vertex 0.57920002937316895 -6.869175910949707 -1.0524442195892334
   vertex -0.067000001668930054 -7.1578755378723145 -2.072944164276123
   vertex 3.0352015495300293 -5.872901439666748 -2.072944164276123
  endloop
 endfacet
 facet normal -0.27202193668333274 -0.86699432715841918 0.41752233789124282
  outer loop
   vertex -0.067000001668930054 -6.2889418601989746 1.7341041564941406
   vertex -0.067000001668930054 -7.1578755378723145 -0.070255756378173828
   vertex 0.57920002937316895 -6.869175910949707 0.95024418830871582
  endloop
 endfacet
 facet normal 0.40790702924251182 -0.91302346930106271 0
  outer loop
   vertex -0.067000001668930054 -7.1578755378723145 -0.070255756378173828
   vertex -0.067000001668930054 -7.1578755378723145 -2.072944164276123
   vertex 0.57920002937316895 -6.869175910949707 -1.0524442195892334
  endloop
 endfacet
 facet normal -0.30809223094554317 0.74380046048005655 -0.59316106768790366
  outer loop
   vertex -0.067000001668930054 1.6164755821228027 -0.070255756378173828
   vertex -0.067000001668930054 -2.7706999778747559 -5.5715999603271484
   vertex -3.1692016124725342 0.33150163292884827 -0.070255756378173828
  endloop
 endfacet
 facet normal -0.34963928227741931 -0.84410368353799703 -0.40649888527044686
  outer loop
   vertex -3.1692016124725342 -5.872901439666748 -2.072944164276123
   vertex -2.5547726154327393 -5.2584724426269531 -3.8773040771484375
   vertex -0.067000001668930054 -6.2889418601989746 -3.8773040771484375
  endloop
 endfacet
 facet normal -0.21225778685838931 0.51243564020169419 0.83207953139652369
  outer loop
   vertex -3.5852415561676025 -2.7706999778747559 1.7341041564941406
   vertex -0.067000001668930054 1.6164755821228027 -0.070255756378173828
   vertex -3.1692016124725342 0.33150163292884827 -0.070255756378173828
  endloop
 endfacet
 facet normal -0.25005364705494587 -0.60368275322598564 -0.75699425826885525
  outer loop
   vertex -0.067000001668930054 -6.2889418601989746 -3.8773040771484375
   vertex -2.5547726154327393 -5.2584724426269531 -3.8773040771484375
   vertex -0.067000001668930054 -4.7231769561767578 -5.1259598731994629
  endloop
 endfacet
 facet normal -0.34963928227741931 -0.84410368353799703 0.40649888527044686
  outer loop
   vertex -2.5547726154327393 -5.2584724426269531 1.7341041564941406
   vertex -3.1692016124725342 -5.872901439666748 -0.070255756378173828
   vertex -0.067000001668930054 -6.2889418601989746 1.7341041564941406
  endloop
 endfacet
 facet normal -0.33684419484884387 -0.81321398431857028 0.4745724434744924
  outer loop
   vertex -1.1181725263595581 -4.6097726821899414 3.9325039386749268
   vertex -1.9085725545883179 -4.9697728157043457 2.7546041011810303
   vertex 0.57920002937316895 -6.000241756439209 2.7546041011810303
  endloop
 endfacet
 facet normal 0.2500536526713904 -0.60368275232161883 -0.75699425713481516
  outer loop
   vertex 2.4207725524902344 -5.2584724426269531 -3.8773040771484375
   vertex -0.067000001668930054 -6.2889418601989746 -3.8773040771484375
   vertex -0.067000001668930054 -4.7231769561767578 -5.1259598731994629
  endloop
 endfacet
 facet normal 1 0 0
  outer loop
   vertex -0.067000001668930054 -0.81822317838668823 2.982759952545166
   vertex -0.067000001668930054 -2.7706999778747559 -5.5715999603271484
   vertex -0.067000001668930054 1.6164755821228027 -0.070255756378173828
  endloop
 endfacet
 facet normal -0.34177683975818668 -0.82512207297964979 0.44984681446762775
  outer loop
   vertex -2.5547726154327393 -5.2584724426269531 1.7341041564941406
   vertex -0.067000001668930054 -6.2889418601989746 1.7341041564941406
   vertex -1.9085725545883179 -4.9697728157043457 2.7546041011810303
  endloop
 endfacet
 facet normal -0.38268346230862393 -0.92387952010826824 -0
  outer loop
   vertex -0.067000001668930054 -7.1578755378723145 -2.072944164276123
   vertex -0.067000001668930054 -7.1578755378723145 -0.070255756378173828
   vertex -3.1692016124725342 -5.872901439666748 -2.072944164276123
  endloop
 endfacet
 facet normal 0.76451032348818282 -0.52581217784315404 -0.37288807826455589
  outer loop
   vertex 5.3118014335632324 -4.8342018127441406 1.1299557685852051
   vertex 3.0352015495300293 -5.872901439666748 -2.072944164276123
   vertex 5.3714017868041992 -0.4161016047000885 -4.97784423828125
  endloop
 endfacet
 facet normal -0.82973136162650862 -0.37754151770495392 0.41110615410433815
  outer loop
   vertex -3.1692016124725342 -5.872901439666748 -0.070255756378173828
   vertex -2.5547726154327393 -5.2584724426269531 1.7341041564941406
   vertex -3.130772590637207 -3.0664725303649902 2.584604024887085
  endloop
 endfacet
 facet normal -0.85243681906522761 -0.35309087533794509 0.38558825611659903
  outer loop
   vertex -4.4541754722595215 -2.7706999778747559 -0.070255756378173828
   vertex -3.1692016124725342 -5.872901439666748 -0.070255756378173828
   vertex -3.130772590637207 -3.0664725303649902 2.584604024887085
  endloop
 endfacet
 facet normal 0.38438061471234541 -0.92285946877315417 0.024123514028661287
  outer loop
   vertex 0.57920002937316895 -6.869175910949707 0.95024418830871582
   vertex 3.0352015495300293 -5.872901439666748 -0.070255756378173828
   vertex 1.3696000576019287 -6.5091757774353027 2.1281440258026123
  endloop
 endfacet
 facet normal -0.34963924651909128 -0.8441037335043341 -0.40649881227084311
  outer loop
   vertex -0.067000001668930054 -6.2889418601989746 -3.8773040771484375
   vertex -0.067000001668930054 -7.1578755378723145 -2.072944164276123
   vertex -3.1692016124725342 -5.872901439666748 -2.072944164276123
  endloop
 endfacet
 facet normal -0.31991232033334566 -0.77233661794947572 0.54877341031914117
  outer loop
   vertex 0.53082746267318726 -3.7874724864959717 6.0957040786743164
   vertex 3.0185999870300293 -4.8179416656494141 6.0957040786743164
   vertex 2.945427417755127 -2.2594726085662842 9.653803825378418
  endloop
 endfacet
 facet normal 0.38260858283212479 -0.92369872732949954 -0.01978215036480839
  outer loop
   vertex 3.0352015495300293 -5.872901439666748 -0.070255756378173828
   vertex -0.067000001668930054 -7.1578755378723145 -0.070255756378173828
   vertex 0.57920002937316895 -6.869175910949707 -1.0524442195892334
  endloop
 endfacet
 facet normal 0.34963925241569976 -0.84410373152168316 -0.40649881131604904
  outer loop
   vertex -0.067000001668930054 -7.1578755378723145 -2.072944164276123
   vertex -0.067000001668930054 -6.2889418601989746 -3.8773040771484375
   vertex 3.0352015495300293 -5.872901439666748 -2.072944164276123
  endloop
 endfacet
 facet normal 0.34963928922493842 -0.84410368008687287 -0.40649888646105548
  outer loop
   vertex 3.0352015495300293 -5.872901439666748 -2.072944164276123
   vertex -0.067000001668930054 -6.2889418601989746 -3.8773040771484375
   vertex 2.4207725524902344 -5.2584724426269531 -3.8773040771484375
  endloop
 endfacet
 facet normal -0.22158147052692057 0.091782052414101853 -0.97081291028384165
  outer loop
   vertex 0.31672325730323792 2.6861000061035156 -8.0308599472045898
   vertex 0.88859045505523682 4.0667095184326172 -8.0308599472045898
   vertex 2.2692000865936279 2.6861000061035156 -8.4764995574951172
  endloop
 endfacet
 facet normal -0.11632998778960166 -0.90121955883546745 0.41745735196936756
  outer loop
   vertex 3.0185999870300293 -5.6868758201599121 4.291344165802002
   vertex 1.3696000576019287 -5.6402416229248047 3.9325039386749268
   vertex 2.2095999717712402 -6.1191754341125488 3.1326441764831543
  endloop
 endfacet
 facet normal -0.22158192702414398 0.091782240340861659 0.97081278832444284
  outer loop
   vertex 5.4331998825073242 0.22830000519752502 11.348100662231445
   vertex 4.0525903701782227 1.6089096069335938 10.902460098266602
   vertex 3.4807231426239014 0.22830000519752502 10.902460098266602
  endloop
 endfacet
 facet normal -0.52155020914301675 -0.35398628625097389 -0.77632408727870794
  outer loop
   vertex -1.4476096630096436 -4.1513094902038574 -5.1259598731994629
   vertex -2.5547726154327393 -5.2584724426269531 -3.8773040771484375
   vertex -4.0228724479675293 -1.6466726064682007 -4.5379042625427246
  endloop
 endfacet
 facet normal 0.38261409849177674 -0.92371204330836021 0.019039765818383916
  outer loop
   vertex 0.57920002937316895 -6.869175910949707 0.95024418830871582
   vertex -0.067000001668930054 -7.1578755378723145 -0.070255756378173828
   vertex 3.0352015495300293 -5.872901439666748 -0.070255756378173828
  endloop
 endfacet
 facet normal 0.38153919385725038 -0.92111730951677906 0.077270600226281488
  outer loop
   vertex 2.2095999717712402 -6.1191754341125488 3.1326441764831543
   vertex 5.3118014335632324 -4.8342018127441406 3.1326441764831543
   vertex 3.0185999870300293 -5.6868758201599121 4.291344165802002
  endloop
 endfacet
 facet normal 0.38239733050725544 -0.9231890351349501 0.038656008944597142
  outer loop
   vertex 2.2095999717712402 -6.1191754341125488 3.1326441764831543
   vertex 4.4718017578125 -5.2242016792297363 2.1281440258026123
   vertex 5.3118014335632324 -4.8342018127441406 3.1326441764831543
  endloop
 endfacet
 facet normal -0.6628073824091516 -0.37532988881500728 0.64793043483544044
  outer loop
   vertex -1.1181725263595581 -4.6097726821899414 3.9325039386749268
   vertex 0.53082746267318726 -3.7874724864959717 6.0957040786743164
   vertex 0.78832739591598511 -2.6201725006103516 7.035304069519043
  endloop
 endfacet
 facet normal 0.38258625740818719 -0.92364487336071366 0.022536715751585695
  outer loop
   vertex 1.3696000576019287 -6.5091757774353027 2.1281440258026123
   vertex 3.0352015495300293 -5.872901439666748 -0.070255756378173828
   vertex 4.4718017578125 -5.2242016792297363 2.1281440258026123
  endloop
 endfacet
 facet normal -0.12220328542172218 -0.88646782328681251 0.44636437504495979
  outer loop
   vertex 3.0185999870300293 -5.6868758201599121 4.291344165802002
   vertex 2.2095999717712402 -5.250241756439209 4.9370040893554688
   vertex 1.3696000576019287 -5.6402416229248047 3.9325039386749268
  endloop
 endfacet
 facet normal -0.22990996614866613 -0.87683358488700402 0.42226090498615204
  outer loop
   vertex 0.57920002937316895 -6.000241756439209 2.7546041011810303
   vertex 0.57920002937316895 -6.869175910949707 0.95024418830871582
   vertex 1.3696000576019287 -6.5091757774353027 2.1281440258026123
  endloop
 endfacet
 facet normal -0.2720216532970805 -0.86699430976660552 0.41752255863587778
  outer loop
   vertex 0.57920002937316895 -6.000241756439209 2.7546041011810303
   vertex -0.067000001668930054 -6.2889418601989746 1.7341041564941406
   vertex 0.57920002937316895 -6.869175910949707 0.95024418830871582
  endloop
 endfacet
 facet normal 0.37589893839074534 -0.92666066503154787 0
  outer loop
   vertex 3.0352015495300293 -5.872901439666748 -2.072944164276123
   vertex 3.0352015495300293 -5.872901439666748 -0.070255756378173828
   vertex 0.57920002937316895 -6.869175910949707 -1.0524442195892334
  endloop
 endfacet
 facet normal 0.32176246909816647 -0.5485715870712301 -0.77171116833826048
  outer loop
   vertex 2.4207725524902344 -5.2584724426269531 -3.8773040771484375
   vertex 1.3136096000671387 -4.1513094902038574 -5.1259598731994629
   vertex 4.7569727897644043 0.19832746684551239 -6.7822041511535645
  endloop
 endfacet
 facet normal -0.12719077018222541 0.61842597317554449 -0.77548167204798146
  outer loop
   vertex -2.0934000015258789 9.1600418090820313 -4.3736038208007813
   vertex 5.988800048828125 9.3421764373779297 -5.553959846496582
   vertex -2.0934000015258789 7.5942769050598145 -5.6222596168518066
  endloop
 endfacet
 facet normal 0.60368285045717673 -0.2500537201854669 0.75699415657276126
  outer loop
   vertex 7.3856768608093262 0.22830000519752502 10.902460098266602
   vertex 6.8138093948364258 -1.1523096561431885 10.902460098266602
   vertex 7.9209723472595215 -2.2594726085662842 9.653803825378418
  endloop
 endfacet
 facet normal -0.84712097914006501 -0.37043239272168843 0.38100641611823588
  outer loop
   vertex -5.0301756858825684 -0.57870000600814819 0.78024417161941528
   vertex -4.4541754722595215 -2.7706999778747559 -0.070255756378173828
   vertex -3.130772590637207 -3.0664725303649902 2.584604024887085
  endloop
 endfacet
 facet normal -0.34177666095181664 -0.82512201323358481 0.44984705990590057
  outer loop
   vertex -1.9085725545883179 -4.9697728157043457 2.7546041011810303
   vertex -0.067000001668930054 -6.2889418601989746 1.7341041564941406
   vertex 0.57920002937316895 -6.000241756439209 2.7546041011810303
  endloop
 endfacet
 facet normal -0.22158192710473021 -0.091782236411754578 0.97081278867751375
  outer loop
   vertex 5.4331998825073242 0.22830000519752502 11.348100662231445
   vertex 3.4807231426239014 0.22830000519752502 10.902460098266602
   vertex 4.0525903701782227 -1.1523096561431885 10.902460098266602
  endloop
 endfacet
 facet normal 0.38239742282274319 -0.92318898637214242 0.038656260291193886
  outer loop
   vertex 2.2095999717712402 -6.1191754341125488 3.1326441764831543
   vertex 1.3696000576019287 -6.5091757774353027 2.1281440258026123
   vertex 4.4718017578125 -5.2242016792297363 2.1281440258026123
  endloop
 endfacet
 facet normal -0.10004110239449164 -0.8964489399618466 0.43170716449113561
  outer loop
   vertex 1.3696000576019287 -5.6402416229248047 3.9325039386749268
   vertex 1.3696000576019287 -6.5091757774353027 2.1281440258026123
   vertex 2.2095999717712402 -6.1191754341125488 3.1326441764831543
  endloop
 endfacet
 facet normal -0.22990996614866613 -0.87683358488700402 0.42226090498615204
  outer loop
   vertex 1.3696000576019287 -5.6402416229248047 3.9325039386749268
   vertex 0.57920002937316895 -6.000241756439209 2.7546041011810303
   vertex 1.3696000576019287 -6.5091757774353027 2.1281440258026123
  endloop
 endfacet
 facet normal 0.47129546676955464 -0.88197538684617938 0
  outer loop
   vertex 6.1208014488220215 -4.4019017219543457 2.2886557579040527
   vertex 6.1208014488220215 -4.4019017219543457 4.291344165802002
   vertex 5.3118014335632324 -4.8342018127441406 3.1326441764831543
  endloop
 endfacet
 facet normal -0.3218967956896065 -0.77712756499228275 0.54079127272352401
  outer loop
   vertex 0.53082746267318726 -3.7874724864959717 6.0957040786743164
   vertex 1.3696000576019287 -5.6402416229248047 3.9325039386749268
   vertex 3.0185999870300293 -4.8179416656494141 6.0957040786743164
  endloop
 endfacet
 facet normal 0.1047300882298411 -0.9534978465725813 0.28261893991878917
  outer loop
   vertex 1.3696000576019287 -5.6402416229248047 3.9325039386749268
   vertex 2.2095999717712402 -5.250241756439209 4.9370040893554688
   vertex 3.0185999870300293 -4.8179416656494141 6.0957040786743164
  endloop
 endfacet
 facet normal 0.72417122216365615 -0.53902467784561314 -0.43014932019408053
  outer loop
   vertex 3.0352015495300293 -5.872901439666748 -2.072944164276123
   vertex 2.4207725524902344 -5.2584724426269531 -3.8773040771484375
   vertex 5.3714017868041992 -0.4161016047000885 -4.97784423828125
  endloop
 endfacet
 facet normal -0.069047712151691282 -0.89881853607736373 0.43284830212253567
  outer loop
   vertex 3.0185999870300293 -4.8179416656494141 6.0957040786743164
   vertex 3.0185999870300293 -5.6868758201599121 4.291344165802002
   vertex 5.4331998825073242 -4.1588754653930664 7.8494443893432617
  endloop
 endfacet
 facet normal -0.71657979457476728 -0.29681707589675571 0.63119966845942155
  outer loop
   vertex 1.9149582386016846 0.22830000519752502 9.653803825378418
   vertex 0.78832739591598511 -2.6201725006103516 7.035304069519043
   vertex 2.945427417755127 -2.2594726085662842 9.653803825378418
  endloop
 endfacet
 facet normal -0.25005361825104899 -0.60368292687501357 0.75699412930297927
  outer loop
   vertex 5.4331998825073242 -1.7241767644882202 10.902460098266602
   vertex 2.945427417755127 -2.2594726085662842 9.653803825378418
   vertex 5.4331998825073242 -3.2899415493011475 9.653803825378418
  endloop
 endfacet
 facet normal -0.25005362060489228 -0.60368292241622812 0.75699413208121158
  outer loop
   vertex 4.0525903701782227 -1.1523096561431885 10.902460098266602
   vertex 2.945427417755127 -2.2594726085662842 9.653803825378418
   vertex 5.4331998825073242 -1.7241767644882202 10.902460098266602
  endloop
 endfacet
 facet normal 0.84410364667746696 -0.34963926700928394 0.40649897494460291
  outer loop
   vertex 8.951441764831543 0.22830000519752502 9.653803825378418
   vertex 7.9209723472595215 -2.2594726085662842 9.653803825378418
   vertex 8.5354013442993164 -2.8739016056060791 7.8494443893432617
  endloop
 endfacet
 facet normal -0.32189671646894324 -0.77712757215911676 0.54079130957938804
  outer loop
   vertex -1.1181725263595581 -4.6097726821899414 3.9325039386749268
   vertex 1.3696000576019287 -5.6402416229248047 3.9325039386749268
   vertex 0.53082746267318726 -3.7874724864959717 6.0957040786743164
  endloop
 endfacet
 facet normal -0.33684419484884387 -0.81321398431857028 0.4745724434744924
  outer loop
   vertex 1.3696000576019287 -5.6402416229248047 3.9325039386749268
   vertex -1.1181725263595581 -4.6097726821899414 3.9325039386749268
   vertex 0.57920002937316895 -6.000241756439209 2.7546041011810303
  endloop
 endfacet
 facet normal 0.25005366072223384 0.60368289342658132 0.75699414194795511
  outer loop
   vertex 6.8138093948364258 1.6089096069335938 10.902460098266602
   vertex 7.9209723472595215 2.7160725593566895 9.653803825378418
   vertex 5.4331998825073242 2.180776834487915 10.902460098266602
  endloop
 endfacet
 facet normal -0.069047709118925216 -0.89881853797734879 0.43284829866096231
  outer loop
   vertex 5.4331998825073242 -3.2899415493011475 9.653803825378418
   vertex 3.0185999870300293 -4.8179416656494141 6.0957040786743164
   vertex 5.4331998825073242 -4.1588754653930664 7.8494443893432617
  endloop
 endfacet
 facet normal 0.84410369664381502 -0.34963923125096297 0.40649890194498939
  outer loop
   vertex 9.8203754425048828 0.22830000519752502 7.8494443893432617
   vertex 8.951441764831543 0.22830000519752502 9.653803825378418
   vertex 8.5354013442993164 -2.8739016056060791 7.8494443893432617
  endloop
 endfacet
 facet normal 0.83537729901589342 -0.36681770622811072 -0.40937701289454215
  outer loop
   vertex 8.5354013442993164 -2.8739016056060791 5.8467559814453125
   vertex 6.1208014488220215 -4.4019017219543457 2.2886557579040527
   vertex 7.9209723472595215 -2.2594726085662842 4.042396068572998
  endloop
 endfacet
 facet normal 0.3815393065696408 -0.92111723981388149 0.077270874590714619
  outer loop
   vertex 3.0185999870300293 -5.6868758201599121 4.291344165802002
   vertex 5.3118014335632324 -4.8342018127441406 3.1326441764831543
   vertex 6.1208014488220215 -4.4019017219543457 4.291344165802002
  endloop
 endfacet
 facet normal 0.47129546676955464 -0.88197538684617938 0
  outer loop
   vertex 5.3118014335632324 -4.8342018127441406 3.1326441764831543
   vertex 5.3118014335632324 -4.8342018127441406 1.1299557685852051
   vertex 6.1208014488220215 -4.4019017219543457 2.2886557579040527
  endloop
 endfacet
 facet normal 0.42111132158214704 -0.90700896072494097 0
  outer loop
   vertex 5.3118014335632324 -4.8342018127441406 1.1299557685852051
   vertex 5.3118014335632324 -4.8342018127441406 3.1326441764831543
   vertex 4.4718017578125 -5.2242016792297363 2.1281440258026123
  endloop
 endfacet
 facet normal -0.2113786926023056 0.97740423997123105 0
  outer loop
   vertex -2.0934000015258789 10.028975486755371 -0.56655573844909668
   vertex 5.988800048828125 11.776875495910645 -2.5009441375732422
   vertex -2.0934000015258789 10.028975486755371 -2.5692441463470459
  endloop
 endfacet
 facet normal -0.714663703748458 -0.40818546075997875 0.5680144541899439
  outer loop
   vertex -2.5547726154327393 -5.2584724426269531 1.7341041564941406
   vertex -1.9085725545883179 -4.9697728157043457 2.7546041011810303
   vertex -3.130772590637207 -3.0664725303649902 2.584604024887085
  endloop
 endfacet
 facet normal -0.36722453403048433 -0.3096825856355046 -0.87706489940038179
  outer loop
   vertex 0.88859045505523682 1.3054903745651245 -8.0308599472045898
   vertex -1.4476096630096436 -4.1513094902038574 -5.1259598731994629
   vertex -2.9157094955444336 -0.53950965404510498 -5.78656005859375
  endloop
 endfacet
 facet normal -0.92387953871315098 -0.3826834173924647 0
  outer loop
   vertex -4.4541754722595215 -2.7706999778747559 -0.070255756378173828
   vertex -4.4541754722595215 -2.7706999778747559 -2.072944164276123
   vertex -3.1692016124725342 -5.872901439666748 -0.070255756378173828
  endloop
 endfacet
 facet normal -0.84410375490856104 -0.3496392453082392 -0.40649876886597436
  outer loop
   vertex -5.9222755432128906 0.84109997749328613 -2.7335441112518311
   vertex -5.0533418655395508 0.84109997749328613 -4.5379042625427246
   vertex -4.6373014450073242 -2.2611017227172852 -2.7335441112518311
  endloop
 endfacet
 facet normal -0.92387953871315098 -0.3826834173924647 -0
  outer loop
   vertex -3.1692016124725342 -5.872901439666748 -2.072944164276123
   vertex -3.1692016124725342 -5.872901439666748 -0.070255756378173828
   vertex -4.4541754722595215 -2.7706999778747559 -2.072944164276123
  endloop
 endfacet
 facet normal 0.77083253488882508 -0.31928924247096607 -0.55124548324606237
  outer loop
   vertex 5.7874417304992676 2.6861000061035156 -6.7822041511535645
   vertex 9.5070419311523438 7.3896999359130859 -4.3053040504455566
   vertex 8.4765729904174805 4.9019274711608887 -4.3053040504455566
  endloop
 endfacet
 facet normal 0.62143715065684035 -0.08107717578646613 -0.77925756932480184
  outer loop
   vertex 9.5070419311523438 7.3896999359130859 -4.3053040504455566
   vertex 5.7874417304992676 2.6861000061035156 -6.7822041511535645
   vertex 7.941277027130127 7.3896999359130859 -5.553959846496582
  endloop
 endfacet
 facet normal -0.22324917492513349 0.96089628226825585 0.16382350447445412
  outer loop
   vertex 5.988800048828125 11.776875495910645 -0.49825584888458252
   vertex 0.25999999046325684 10.263675689697266 0.57044416666030884
   vertex 2.8259000778198242 10.671976089477539 1.6722441911697388
  endloop
 endfacet
 facet normal -0.13863857418205 -0.89226820961764997 0.42969383036585684
  outer loop
   vertex 3.0185999870300293 -4.8179416656494141 6.0957040786743164
   vertex 2.2095999717712402 -5.250241756439209 4.9370040893554688
   vertex 3.0185999870300293 -5.6868758201599121 4.291344165802002
  endloop
 endfacet
 facet normal 0.41694115957798011 -0.90892350869841398 -0.0042573213566039735
  outer loop
   vertex 5.3118014335632324 -4.8342018127441406 1.1299557685852051
   vertex 4.4718017578125 -5.2242016792297363 2.1281440258026123
   vertex 3.0352015495300293 -5.872901439666748 -0.070255756378173828
  endloop
 endfacet
 facet normal 0.091782242273429043 0.22158191734033877 0.9708127903520023
  outer loop
   vertex 5.4331998825073242 0.22830000519752502 11.348100662231445
   vertex 6.8138093948364258 1.6089096069335938 10.902460098266602
   vertex 5.4331998825073242 2.180776834487915 10.902460098266602
  endloop
 endfacet
 facet normal 0.6036828853315731 -0.25005370177488573 0.75699413484281586
  outer loop
   vertex 8.951441764831543 0.22830000519752502 9.653803825378418
   vertex 7.3856768608093262 0.22830000519752502 10.902460098266602
   vertex 7.9209723472595215 -2.2594726085662842 9.653803825378418
  endloop
 endfacet
 facet normal 0.32176244918787844 -0.54857157715460392 -0.77171118368903302
  outer loop
   vertex 4.7569727897644043 0.19832746684551239 -6.7822041511535645
   vertex 1.3136096000671387 -4.1513094902038574 -5.1259598731994629
   vertex 3.6498095989227295 1.3054903745651245 -8.0308599472045898
  endloop
 endfacet
 facet normal 0.21954174520773345 -0.53002067398595831 -0.81907234555844521
  outer loop
   vertex 1.3136096000671387 -4.1513094902038574 -5.1259598731994629
   vertex 2.2692000865936279 0.733623206615448 -8.0308599472045898
   vertex 3.6498095989227295 1.3054903745651245 -8.0308599472045898
  endloop
 endfacet
 facet normal -0.16822450050571305 -0.40612971447375384 -0.89819773571918482
  outer loop
   vertex -0.067000001668930054 -4.7231769561767578 -5.1259598731994629
   vertex -1.4476096630096436 -4.1513094902038574 -5.1259598731994629
   vertex 0.88859045505523682 1.3054903745651245 -8.0308599472045898
  endloop
 endfacet
 facet normal -0.71657979060110455 -0.2968170798894334 0.63119967109306008
  outer loop
   vertex -0.24214175343513489 -0.13240000605583191 7.035304069519043
   vertex 0.78832739591598511 -2.6201725006103516 7.035304069519043
   vertex 1.9149582386016846 0.22830000519752502 9.653803825378418
  endloop
 endfacet
 facet normal -0.25005366189875572 0.60368289257640151 0.75699414223731731
  outer loop
   vertex 4.0525903701782227 1.6089096069335938 10.902460098266602
   vertex 5.4331998825073242 3.7465417385101318 9.653803825378418
   vertex 2.945427417755127 2.7160725593566895 9.653803825378418
  endloop
 endfacet
 facet normal -0.25005366014572028 0.60368289203475467 0.75699414324833669
  outer loop
   vertex 4.0525903701782227 1.6089096069335938 10.902460098266602
   vertex 5.4331998825073242 2.180776834487915 10.902460098266602
   vertex 5.4331998825073242 3.7465417385101318 9.653803825378418
  endloop
 endfacet
 facet normal -0.6994579748116746 -0.34811192409577679 0.62416074033432034
  outer loop
   vertex 0.78832739591598511 -2.6201725006103516 7.035304069519043
   vertex 0.53082746267318726 -3.7874724864959717 6.0957040786743164
   vertex 2.945427417755127 -2.2594726085662842 9.653803825378418
  endloop
 endfacet
 facet normal 0.92387952010826824 -0.38268346230862393 0
  outer loop
   vertex 9.8203754425048828 0.22830000519752502 5.8467559814453125
   vertex 9.8203754425048828 0.22830000519752502 7.8494443893432617
   vertex 8.5354013442993164 -2.8739016056060791 7.8494443893432617
  endloop
 endfacet
 facet normal 0.60368288442720575 0.25005370739133131 0.75699413370877544
  outer loop
   vertex 7.3856768608093262 0.22830000519752502 10.902460098266602
   vertex 8.951441764831543 0.22830000519752502 9.653803825378418
   vertex 7.9209723472595215 2.7160725593566895 9.653803825378418
  endloop
 endfacet
 facet normal 0.0917820884978722 0.22158145371326046 -0.97081291071003317
  outer loop
   vertex 3.6498095989227295 4.0667095184326172 -8.0308599472045898
   vertex 2.2692000865936279 2.6861000061035156 -8.4764995574951172
   vertex 2.2692000865936279 4.6385769844055176 -8.0308599472045898
  endloop
 endfacet
 facet normal -0.091782242273429043 0.22158191734033877 0.9708127903520023
  outer loop
   vertex 5.4331998825073242 0.22830000519752502 11.348100662231445
   vertex 5.4331998825073242 2.180776834487915 10.902460098266602
   vertex 4.0525903701782227 1.6089096069335938 10.902460098266602
  endloop
 endfacet
 facet normal 0.60368284445322284 0.25005372849404112 0.75699415861623021
  outer loop
   vertex 6.8138093948364258 1.6089096069335938 10.902460098266602
   vertex 7.3856768608093262 0.22830000519752502 10.902460098266602
   vertex 7.9209723472595215 2.7160725593566895 9.653803825378418
  endloop
 endfacet
 facet normal 0.28536259736553315 0.68892648793603084 0.66629459118690337
  outer loop
   vertex 5.988800048828125 10.907941818237305 1.3061040639877319
   vertex 4.9390997886657715 7.3123416900634766 5.4734039306640625
   vertex 8.4765729904174805 9.8774728775024414 1.3061040639877319
  endloop
 endfacet
 facet normal -0.31991226053161786 -0.77233663376562145 0.54877342292164499
  outer loop
   vertex 2.945427417755127 -2.2594726085662842 9.653803825378418
   vertex 3.0185999870300293 -4.8179416656494141 6.0957040786743164
   vertex 5.4331998825073242 -3.2899415493011475 9.653803825378418
  endloop
 endfacet
 facet normal 0.22158190082538703 -0.091782263791649027 0.97081279208706783
  outer loop
   vertex 7.3856768608093262 0.22830000519752502 10.902460098266602
   vertex 5.4331998825073242 0.22830000519752502 11.348100662231445
   vertex 6.8138093948364258 -1.1523096561431885 10.902460098266602
  endloop
 endfacet
 facet normal 0.53474070548931651 -0.84501619978127518 0
  outer loop
   vertex 6.1208014488220215 -4.4019017219543457 4.291344165802002
   vertex 6.1208014488220215 -4.4019017219543457 2.2886557579040527
   vertex 8.5354013442993164 -2.8739016056060791 5.8467559814453125
  endloop
 endfacet
 facet normal 0.53474070548931651 -0.84501619978127518 0
  outer loop
   vertex 8.5354013442993164 -2.8739016056060791 7.8494443893432617
   vertex 6.1208014488220215 -4.4019017219543457 4.291344165802002
   vertex 8.5354013442993164 -2.8739016056060791 5.8467559814453125
  endloop
 endfacet
 facet normal 0.92387952010826824 -0.38268346230862393 0
  outer loop
   vertex 9.8203754425048828 0.22830000519752502 5.8467559814453125
   vertex 8.5354013442993164 -2.8739016056060791 7.8494443893432617
   vertex 8.5354013442993164 -2.8739016056060791 5.8467559814453125
  endloop
 endfacet
 facet normal 0.22158190074480075 0.091782267720757274 0.97081279173399671
  outer loop
   vertex 5.4331998825073242 0.22830000519752502 11.348100662231445
   vertex 7.3856768608093262 0.22830000519752502 10.902460098266602
   vertex 6.8138093948364258 1.6089096069335938 10.902460098266602
  endloop
 endfacet
 facet normal 0.25005366157881487 0.60368289180399592 0.75699414295897449
  outer loop
   vertex 5.4331998825073242 2.180776834487915 10.902460098266602
   vertex 7.9209723472595215 2.7160725593566895 9.653803825378418
   vertex 5.4331998825073242 3.7465417385101318 9.653803825378418
  endloop
 endfacet
 facet normal 0.84410369466116431 0.34963923714757128 0.4064989009901952
  outer loop
   vertex 8.951441764831543 0.22830000519752502 9.653803825378418
   vertex 9.8203754425048828 0.22830000519752502 7.8494443893432617
   vertex 8.5354013442993164 3.3305015563964844 7.8494443893432617
  endloop
 endfacet
 facet normal 0.84410364322634257 0.34963927395680261 0.40649897613521163
  outer loop
   vertex 7.9209723472595215 2.7160725593566895 9.653803825378418
   vertex 8.951441764831543 0.22830000519752502 9.653803825378418
   vertex 8.5354013442993164 3.3305015563964844 7.8494443893432617
  endloop
 endfacet
 facet normal -0.60368289447917434 0.25005364496499444 0.75699414631354101
  outer loop
   vertex 3.4807231426239014 0.22830000519752502 10.902460098266602
   vertex 4.0525903701782227 1.6089096069335938 10.902460098266602
   vertex 1.9149582386016846 0.22830000519752502 9.653803825378418
  endloop
 endfacet
 facet normal -0.6036828975743147 0.25005365498239035 0.75699414053625735
  outer loop
   vertex 4.0525903701782227 1.6089096069335938 10.902460098266602
   vertex 2.945427417755127 2.7160725593566895 9.653803825378418
   vertex 1.9149582386016846 0.22830000519752502 9.653803825378418
  endloop
 endfacet
 facet normal 0.25005362060489228 -0.60368292241622812 0.75699413208121158
  outer loop
   vertex 6.8138093948364258 -1.1523096561431885 10.902460098266602
   vertex 5.4331998825073242 -1.7241767644882202 10.902460098266602
   vertex 7.9209723472595215 -2.2594726085662842 9.653803825378418
  endloop
 endfacet
 facet normal 0.25005361825104899 -0.60368292687501357 0.75699412930297927
  outer loop
   vertex 5.4331998825073242 -1.7241767644882202 10.902460098266602
   vertex 5.4331998825073242 -3.2899415493011475 9.653803825378418
   vertex 7.9209723472595215 -2.2594726085662842 9.653803825378418
  endloop
 endfacet
 facet normal -0.60368290090625676 -0.25005365037148031 0.75699413940221749
  outer loop
   vertex 4.0525903701782227 -1.1523096561431885 10.902460098266602
   vertex 1.9149582386016846 0.22830000519752502 9.653803825378418
   vertex 2.945427417755127 -2.2594726085662842 9.653803825378418
  endloop
 endfacet
 facet normal -0.60368289610878723 -0.25005363484451154 0.75699414835701018
  outer loop
   vertex 3.4807231426239014 0.22830000519752502 10.902460098266602
   vertex 1.9149582386016846 0.22830000519752502 9.653803825378418
   vertex 4.0525903701782227 -1.1523096561431885 10.902460098266602
  endloop
 endfacet
 facet normal 0.34963914132187923 -0.84410368328022822 0.40649900704485281
  outer loop
   vertex 5.4331998825073242 -3.2899415493011475 9.653803825378418
   vertex 5.4331998825073242 -4.1588754653930664 7.8494443893432617
   vertex 7.9209723472595215 -2.2594726085662842 9.653803825378418
  endloop
 endfacet
 facet normal -0.091782225942749429 -0.22158192410472732 0.97081279035200241
  outer loop
   vertex 5.4331998825073242 0.22830000519752502 11.348100662231445
   vertex 4.0525903701782227 -1.1523096561431885 10.902460098266602
   vertex 5.4331998825073242 -1.7241767644882202 10.902460098266602
  endloop
 endfacet
 facet normal 0.37913902027915886 -0.91532260673953758 0.13578707189308284
  outer loop
   vertex 5.4331998825073242 -4.1588754653930664 7.8494443893432617
   vertex 6.1208014488220215 -4.4019017219543457 4.291344165802002
   vertex 8.5354013442993164 -2.8739016056060791 7.8494443893432617
  endloop
 endfacet
 facet normal 0.37913907981397488 -0.91532258063712668 0.13578708161531083
  outer loop
   vertex 3.0185999870300293 -5.6868758201599121 4.291344165802002
   vertex 6.1208014488220215 -4.4019017219543457 4.291344165802002
   vertex 5.4331998825073242 -4.1588754653930664 7.8494443893432617
  endloop
 endfacet
 facet normal 0.091782225942749429 -0.22158192410472732 0.97081279035200241
  outer loop
   vertex 5.4331998825073242 0.22830000519752502 11.348100662231445
   vertex 5.4331998825073242 -1.7241767644882202 10.902460098266602
   vertex 6.8138093948364258 -1.1523096561431885 10.902460098266602
  endloop
 endfacet
 facet normal 0.34963918031378766 -0.8441036897427554 0.40649896008743847
  outer loop
   vertex 7.9209723472595215 -2.2594726085662842 9.653803825378418
   vertex 5.4331998825073242 -4.1588754653930664 7.8494443893432617
   vertex 8.5354013442993164 -2.8739016056060791 7.8494443893432617
  endloop
 endfacet
 facet normal -0.52155020914301675 -0.35398628625097389 -0.77632408727870794
  outer loop
   vertex -1.4476096630096436 -4.1513094902038574 -5.1259598731994629
   vertex -4.0228724479675293 -1.6466726064682007 -4.5379042625427246
   vertex -2.9157094955444336 -0.53950965404510498 -5.78656005859375
  endloop
 endfacet
 facet normal 0.89265302622862253 -0.36974902385259939 -0.25779106680591546
  outer loop
   vertex 9.8203754425048828 0.22830000519752502 5.8467559814453125
   vertex 8.5354013442993164 -2.8739016056060791 5.8467559814453125
   vertex 9.0910015106201172 4.2874984741210938 -2.5009441375732422
  endloop
 endfacet
 facet normal 0.70899872614289516 -0.5578670930655093 -0.43139901808232067
  outer loop
   vertex 8.5354013442993164 -2.8739016056060791 5.8467559814453125
   vertex 7.9209723472595215 -2.2594726085662842 4.042396068572998
   vertex 9.0910015106201172 4.2874984741210938 -2.5009441375732422
  endloop
 endfacet
 facet normal 0.2215814799925539 0.091782061118031388 -0.97081290730049286
  outer loop
   vertex 4.2216768264770508 2.6861000061035156 -8.0308599472045898
   vertex 2.2692000865936279 2.6861000061035156 -8.4764995574951172
   vertex 3.6498095989227295 4.0667095184326172 -8.0308599472045898
  endloop
 endfacet
 facet normal 0.80681276149941372 -0.41833409782306086 -0.4171927018540183
  outer loop
   vertex 5.3714017868041992 -0.4161016047000885 -4.97784423828125
   vertex 4.7569727897644043 0.19832746684551239 -6.7822041511535645
   vertex 8.4765729904174805 4.9019274711608887 -4.3053040504455566
  endloop
 endfacet
 facet normal -0.25005367074951446 0.60368271807696938 0.75699427847236445
  outer loop
   vertex 1.4452904462814331 7.6654095649719238 4.7252597808837891
   vertex 2.8259000778198242 8.2372770309448242 4.7252597808837891
   vertex 0.33812752366065979 8.7725725173950195 3.4766039848327637
  endloop
 endfacet
 facet normal -0.84410367973468314 -0.34963913147624798 0.40649902287570444
  outer loop
   vertex -4.1612415313720703 -0.57870000600814819 2.584604024887085
   vertex -5.0301756858825684 -0.57870000600814819 0.78024417161941528
   vertex -3.130772590637207 -3.0664725303649902 2.584604024887085
  endloop
 endfacet
 facet normal 0.60368272474456952 -0.25005356926087446 -0.75699430667929679
  outer loop
   vertex 4.2216768264770508 2.6861000061035156 -8.0308599472045898
   vertex 4.7569727897644043 0.19832746684551239 -6.7822041511535645
   vertex 3.6498095989227295 1.3054903745651245 -8.0308599472045898
  endloop
 endfacet
 facet normal -0.091782080639670624 0.22158145387443204 -0.97081291141617287
  outer loop
   vertex 0.88859045505523682 4.0667095184326172 -8.0308599472045898
   vertex 2.2692000865936279 4.6385769844055176 -8.0308599472045898
   vertex 2.2692000865936279 2.6861000061035156 -8.4764995574951172
  endloop
 endfacet
 facet normal -0.43374705827431898 -0.17966390287464126 -0.88294075194331467
  outer loop
   vertex 0.31672325730323792 2.6861000061035156 -8.0308599472045898
   vertex 0.88859045505523682 1.3054903745651245 -8.0308599472045898
   vertex -3.4875767230987549 0.84109997749328613 -5.78656005859375
  endloop
 endfacet
 facet normal 0.091782048991621304 -0.22158147381183238 -0.97081290985764901
  outer loop
   vertex 2.2692000865936279 0.733623206615448 -8.0308599472045898
   vertex 2.2692000865936279 2.6861000061035156 -8.4764995574951172
   vertex 3.6498095989227295 1.3054903745651245 -8.0308599472045898
  endloop
 endfacet
 facet normal -0.43374705680270165 -0.17966391162809311 -0.88294075088506729
  outer loop
   vertex -3.4875767230987549 0.84109997749328613 -5.78656005859375
   vertex 0.88859045505523682 1.3054903745651245 -8.0308599472045898
   vertex -2.9157094955444336 -0.53950965404510498 -5.78656005859375
  endloop
 endfacet
 facet normal 0.81647810705164181 -0.46656270019811474 -0.34012166571568453
  outer loop
   vertex 6.1208014488220215 -4.4019017219543457 2.2886557579040527
   vertex 5.3714017868041992 -0.4161016047000885 -4.97784423828125
   vertex 9.0910015106201172 4.2874984741210938 -2.5009441375732422
  endloop
 endfacet
 facet normal -0.16822442302377885 -0.40612973029963428 -0.89819774307502187
  outer loop
   vertex -0.067000001668930054 -4.7231769561767578 -5.1259598731994629
   vertex 0.88859045505523682 1.3054903745651245 -8.0308599472045898
   vertex 2.2692000865936279 0.733623206615448 -8.0308599472045898
  endloop
 endfacet
 facet normal 0.21954184650015682 -0.53002067663584485 -0.81907231669357672
  outer loop
   vertex 1.3136096000671387 -4.1513094902038574 -5.1259598731994629
   vertex -0.067000001668930054 -4.7231769561767578 -5.1259598731994629
   vertex 2.2692000865936279 0.733623206615448 -8.0308599472045898
  endloop
 endfacet
 facet normal -0.091782041133423059 -0.22158147397300385 -0.97081291056378805
  outer loop
   vertex 0.88859045505523682 1.3054903745651245 -8.0308599472045898
   vertex 2.2692000865936279 2.6861000061035156 -8.4764995574951172
   vertex 2.2692000865936279 0.733623206615448 -8.0308599472045898
  endloop
 endfacet
 facet normal 0.72417121250862149 -0.53902467614189897 -0.43014933858360638
  outer loop
   vertex 5.3714017868041992 -0.4161016047000885 -4.97784423828125
   vertex 2.4207725524902344 -5.2584724426269531 -3.8773040771484375
   vertex 4.7569727897644043 0.19832746684551239 -6.7822041511535645
  endloop
 endfacet
 facet normal 0.22158148015372539 -0.091782053259832116 -0.97081290800663211
  outer loop
   vertex 2.2692000865936279 2.6861000061035156 -8.4764995574951172
   vertex 4.2216768264770508 2.6861000061035156 -8.0308599472045898
   vertex 3.6498095989227295 1.3054903745651245 -8.0308599472045898
  endloop
 endfacet
 facet normal 0.30720221259034708 0.74165168745858767 0.59630493463447432
  outer loop
   vertex 5.4331998825073242 3.7465417385101318 9.653803825378418
   vertex 7.9209723472595215 2.7160725593566895 9.653803825378418
   vertex 7.4268722534179688 6.2818727493286133 5.4734039306640625
  endloop
 endfacet
 facet normal 0.38268347799853508 0.92387951360929355 0
  outer loop
   vertex 5.988800048828125 11.776875495910645 -0.49825584888458252
   vertex 9.0910015106201172 10.491901397705078 -2.5009441375732422
   vertex 5.988800048828125 11.776875495910645 -2.5009441375732422
  endloop
 endfacet
 facet normal 0.77083253360736004 -0.3192892323778358 -0.55124549088408037
  outer loop
   vertex 4.7569727897644043 0.19832746684551239 -6.7822041511535645
   vertex 5.7874417304992676 2.6861000061035156 -6.7822041511535645
   vertex 8.4765729904174805 4.9019274711608887 -4.3053040504455566
  endloop
 endfacet
 facet normal -0.22158147068809206 -0.09178204455590333 -0.97081291098998079
  outer loop
   vertex 0.31672325730323792 2.6861000061035156 -8.0308599472045898
   vertex 2.2692000865936279 2.6861000061035156 -8.4764995574951172
   vertex 0.88859045505523682 1.3054903745651245 -8.0308599472045898
  endloop
 endfacet
 facet normal 0.39504101363450167 0.16363135790387048 -0.90397310593687519
  outer loop
   vertex 4.2216768264770508 2.6861000061035156 -8.0308599472045898
   vertex 3.6498095989227295 4.0667095184326172 -8.0308599472045898
   vertex 7.941277027130127 7.3896999359130859 -5.553959846496582
  endloop
 endfacet
 facet normal -0.2113786926023056 0.97740423997123105 0
  outer loop
   vertex 5.988800048828125 11.776875495910645 -0.49825584888458252
   vertex 5.988800048828125 11.776875495910645 -2.5009441375732422
   vertex -2.0934000015258789 10.028975486755371 -0.56655573844909668
  endloop
 endfacet
 facet normal 0.6036827695621958 -0.25005354560115184 -0.75699427875381564
  outer loop
   vertex 4.7569727897644043 0.19832746684551239 -6.7822041511535645
   vertex 4.2216768264770508 2.6861000061035156 -8.0308599472045898
   vertex 5.7874417304992676 2.6861000061035156 -6.7822041511535645
  endloop
 endfacet
 facet normal -0.020177735914848536 0.75948544862806788 0.6502112828116513
  outer loop
   vertex 7.4268722534179688 6.2818727493286133 5.4734039306640625
   vertex 7.9209723472595215 2.7160725593566895 9.653803825378418
   vertex 8.4765729904174805 9.8774728775024414 1.3061040639877319
  endloop
 endfacet
 facet normal 0.80277932416386644 0.42510729584330431 0.41812575107950384
  outer loop
   vertex 7.9209723472595215 2.7160725593566895 9.653803825378418
   vertex 8.5354013442993164 3.3305015563964844 7.8494443893432617
   vertex 8.4765729904174805 9.8774728775024414 1.3061040639877319
  endloop
 endfacet
 facet normal -0.84410369231654203 -0.34963929010212358 -0.40649886031139565
  outer loop
   vertex -4.6373014450073242 -2.2611017227172852 -2.7335441112518311
   vertex -5.0533418655395508 0.84109997749328613 -4.5379042625427246
   vertex -4.0228724479675293 -1.6466726064682007 -4.5379042625427246
  endloop
 endfacet
 facet normal -0.68896870000662402 -0.33892836998031811 0.64066347674396662
  outer loop
   vertex -1.1181725263595581 -4.6097726821899414 3.9325039386749268
   vertex 0.78832739591598511 -2.6201725006103516 7.035304069519043
   vertex -3.130772590637207 -3.0664725303649902 2.584604024887085
  endloop
 endfacet
 facet normal 0.34963911361872085 0.844103778190189 0.40649883379041024
  outer loop
   vertex 5.988800048828125 10.907941818237305 1.3061040639877319
   vertex 8.4765729904174805 9.8774728775024414 1.3061040639877319
   vertex 5.988800048828125 11.776875495910645 -0.49825584888458252
  endloop
 endfacet
 facet normal 0.34963929422192741 0.84410380812334806 0.40649861629242279
  outer loop
   vertex 8.4765729904174805 9.8774728775024414 1.3061040639877319
   vertex 9.0910015106201172 10.491901397705078 -0.49825584888458252
   vertex 5.988800048828125 11.776875495910645 -0.49825584888458252
  endloop
 endfacet
 facet normal 0.38268347799853508 0.92387951360929355 -0
  outer loop
   vertex 9.0910015106201172 10.491901397705078 -0.49825584888458252
   vertex 9.0910015106201172 10.491901397705078 -2.5009441375732422
   vertex 5.988800048828125 11.776875495910645 -0.49825584888458252
  endloop
 endfacet
 facet normal 0.84410380812334806 0.34963929422192741 -0.40649861629242279
  outer loop
   vertex 9.0910015106201172 10.491901397705078 -2.5009441375732422
   vertex 10.375975608825684 7.3896999359130859 -2.5009441375732422
   vertex 8.4765729904174805 9.8774728775024414 -4.3053040504455566
  endloop
 endfacet
 facet normal 0.844103778190189 0.34963911361872085 -0.40649883379041024
  outer loop
   vertex 10.375975608825684 7.3896999359130859 -2.5009441375732422
   vertex 9.5070419311523438 7.3896999359130859 -4.3053040504455566
   vertex 8.4765729904174805 9.8774728775024414 -4.3053040504455566
  endloop
 endfacet
 facet normal -0.6036826597039977 0.25005366816161184 0.75699432587809401
  outer loop
   vertex -4.0458769798278809 5.6417999267578125 2.4864599704742432
   vertex -3.4740095138549805 7.0224094390869141 2.4864599704742432
   vertex -4.5811724662780762 8.129572868347168 1.2378041744232178
  endloop
 endfacet
 facet normal 0.1509768243750908 0.36449042143262056 -0.91888668027427833
  outer loop
   vertex 7.3694095611572266 8.7703094482421875 -5.553959846496582
   vertex 3.6498095989227295 4.0667095184326172 -8.0308599472045898
   vertex 5.988800048828125 9.3421764373779297 -5.553959846496582
  endloop
 endfacet
 facet normal -0.63480829083188683 0.26294633306139575 0.72655189754116267
  outer loop
   vertex 2.945427417755127 2.7160725593566895 9.653803825378418
   vertex -3.4740095138549805 7.0224094390869141 2.4864599704742432
   vertex -4.0458769798278809 5.6417999267578125 2.4864599704742432
  endloop
 endfacet
 facet normal -0.26467777390873498 0.63898841192315103 0.7222461390873931
  outer loop
   vertex 2.945427417755127 2.7160725593566895 9.653803825378418
   vertex 2.8259000778198242 8.2372770309448242 4.7252597808837891
   vertex 1.4452904462814331 7.6654095649719238 4.7252597808837891
  endloop
 endfacet
 facet normal -0.2074312284590881 0.95003739380707652 0.2332407250636378
  outer loop
   vertex 5.988800048828125 11.776875495910645 -0.49825584888458252
   vertex -2.0934000015258789 10.028975486755371 -0.56655573844909668
   vertex 0.25999999046325684 10.263675689697266 0.57044416666030884
  endloop
 endfacet
 facet normal -0.4233049123042929 0.45817462485618493 0.78159386151437327
  outer loop
   vertex -4.5811724662780762 8.129572868347168 1.2378041744232178
   vertex -3.4740095138549805 7.0224094390869141 2.4864599704742432
   vertex -2.2277724742889404 8.3642730712890625 2.3748040199279785
  endloop
 endfacet
 facet normal -0.89610615795051307 -0.10375636465689395 0.43154185251995658
  outer loop
   vertex -5.0301756858825684 -0.57870000600814819 0.78024417161941528
   vertex -5.0533418655395508 0.84109997749328613 1.0735040903091431
   vertex -5.9222755432128906 0.84109997749328613 -0.73085582256317139
  endloop
 endfacet
 facet normal -0.81358524880204441 -0.40670273586609862 -0.41553811807191149
  outer loop
   vertex -2.5547726154327393 -5.2584724426269531 -3.8773040771484375
   vertex -3.1692016124725342 -5.872901439666748 -2.072944164276123
   vertex -4.6373014450073242 -2.2611017227172852 -2.7335441112518311
  endloop
 endfacet
 facet normal -0.92317418360371395 -0.38239124975323913 -0.039068642666112048
  outer loop
   vertex -3.1692016124725342 -5.872901439666748 -2.072944164276123
   vertex -4.4541754722595215 -2.7706999778747559 -2.072944164276123
   vertex -4.6373014450073242 -2.2611017227172852 -2.7335441112518311
  endloop
 endfacet
 facet normal -0.92370848296639163 -0.38261260537121222 0.019241432040789777
  outer loop
   vertex -5.9222755432128906 0.84109997749328613 -0.73085582256317139
   vertex -4.4541754722595215 -2.7706999778747559 -2.072944164276123
   vertex -4.6373014450073242 -2.2611017227172852 -0.73085582256317139
  endloop
 endfacet
 facet normal -0.926394442251539 -0.37655456094098749 0
  outer loop
   vertex -5.9222755432128906 0.84109997749328613 -2.7335441112518311
   vertex -4.4541754722595215 -2.7706999778747559 -2.072944164276123
   vertex -5.9222755432128906 0.84109997749328613 -0.73085582256317139
  endloop
 endfacet
 facet normal -0.89459048005934216 -0.11878107891018928 0.43081194073531337
  outer loop
   vertex -5.9222755432128906 0.84109997749328613 -0.73085582256317139
   vertex -5.6116418838500977 5.6417999267578125 1.2378041744232178
   vertex -6.4805755615234375 5.6417999267578125 -0.56655573844909668
  endloop
 endfacet
 facet normal -0.70118349439419636 -0.39738991539786306 0.5919653387903917
  outer loop
   vertex -1.9085725545883179 -4.9697728157043457 2.7546041011810303
   vertex -1.1181725263595581 -4.6097726821899414 3.9325039386749268
   vertex -3.130772590637207 -3.0664725303649902 2.584604024887085
  endloop
 endfacet
 facet normal -0.70327903234531108 -0.29130772520544468 0.64848933059771463
  outer loop
   vertex 0.78832739591598511 -2.6201725006103516 7.035304069519043
   vertex -0.24214175343513489 -0.13240000605583191 7.035304069519043
   vertex -3.130772590637207 -3.0664725303649902 2.584604024887085
  endloop
 endfacet
 facet normal 0.99700398670200974 -0.077350180997193582 0
  outer loop
   vertex 10.375975608825684 7.3896999359130859 -0.49825584888458252
   vertex 9.8203754425048828 0.22830000519752502 5.8467559814453125
   vertex 10.375975608825684 7.3896999359130859 -2.5009441375732422
  endloop
 endfacet
 facet normal 0.84410380812334806 0.34963929422192741 0.40649861629242279
  outer loop
   vertex 8.4765729904174805 9.8774728775024414 1.3061040639877319
   vertex 10.375975608825684 7.3896999359130859 -0.49825584888458252
   vertex 9.0910015106201172 10.491901397705078 -0.49825584888458252
  endloop
 endfacet
 facet normal 0.844103778190189 0.34963911361872085 0.40649883379041024
  outer loop
   vertex 8.4765729904174805 9.8774728775024414 1.3061040639877319
   vertex 9.5070419311523438 7.3896999359130859 1.3061040639877319
   vertex 10.375975608825684 7.3896999359130859 -0.49825584888458252
  endloop
 endfacet
 facet normal 0.1861793468037567 0.75827330454326058 0.62478704087134351
  outer loop
   vertex 4.9390997886657715 7.3123416900634766 5.4734039306640625
   vertex 5.4331998825073242 3.7465417385101318 9.653803825378418
   vertex 8.4765729904174805 9.8774728775024414 1.3061040639877319
  endloop
 endfacet
 facet normal 0.59875914550977438 0.52561646767578873 0.6043300543382164
  outer loop
   vertex 5.4331998825073242 3.7465417385101318 9.653803825378418
   vertex 7.4268722534179688 6.2818727493286133 5.4734039306640625
   vertex 8.4765729904174805 9.8774728775024414 1.3061040639877319
  endloop
 endfacet
 facet normal 0.86517212007486488 0.35836590358495946 0.35078637629317788
  outer loop
   vertex 8.5354013442993164 3.3305015563964844 7.8494443893432617
   vertex 9.5070419311523438 7.3896999359130859 1.3061040639877319
   vertex 8.4765729904174805 9.8774728775024414 1.3061040639877319
  endloop
 endfacet
 facet normal 0.84410377641876022 -0.3496392810894553 -0.40649869342328332
  outer loop
   vertex 10.375975608825684 7.3896999359130859 -2.5009441375732422
   vertex 9.0910015106201172 4.2874984741210938 -2.5009441375732422
   vertex 8.4765729904174805 4.9019274711608887 -4.3053040504455566
  endloop
 endfacet
 facet normal 0.92387951360929355 0.38268347799853508 0
  outer loop
   vertex 9.0910015106201172 10.491901397705078 -0.49825584888458252
   vertex 10.375975608825684 7.3896999359130859 -2.5009441375732422
   vertex 9.0910015106201172 10.491901397705078 -2.5009441375732422
  endloop
 endfacet
 facet normal -0.39990950864627461 0.56439969089230702 0.722167137036132
  outer loop
   vertex -2.2277724742889404 8.3642730712890625 2.3748040199279785
   vertex 2.945427417755127 2.7160725593566895 9.653803825378418
   vertex 0.33812752366065979 8.7725725173950195 3.4766039848327637
  endloop
 endfacet
 facet normal 0.89265301837922717 -0.36974903836185319 -0.25779107317542993
  outer loop
   vertex 10.375975608825684 7.3896999359130859 -2.5009441375732422
   vertex 9.8203754425048828 0.22830000519752502 5.8467559814453125
   vertex 9.0910015106201172 4.2874984741210938 -2.5009441375732422
  endloop
 endfacet
 facet normal -0.89610605603871196 -0.10375640471526786 0.43154205451068883
  outer loop
   vertex -5.0301756858825684 -0.57870000600814819 0.78024417161941528
   vertex -4.1612415313720703 -0.57870000600814819 2.584604024887085
   vertex -5.0533418655395508 0.84109997749328613 1.0735040903091431
  endloop
 endfacet
 facet normal -0.39067481193079645 0.16182288527144947 -0.90619343692462262
  outer loop
   vertex -3.4740095138549805 7.0224094390869141 -5.6222596168518066
   vertex 0.88859045505523682 4.0667095184326172 -8.0308599472045898
   vertex -4.0458769798278809 5.6417999267578125 -5.6222596168518066
  endloop
 endfacet
 facet normal -0.92317416802978758 -0.38239128486398216 -0.039068667018242006
  outer loop
   vertex -4.4541754722595215 -2.7706999778747559 -0.070255756378173828
   vertex -5.9222755432128906 0.84109997749328613 -0.73085582256317139
   vertex -4.6373014450073242 -2.2611017227172852 -0.73085582256317139
  endloop
 endfacet
 facet normal -0.91544158248586227 -0.3299582208924402 0.23042196406001769
  outer loop
   vertex -4.4541754722595215 -2.7706999778747559 -0.070255756378173828
   vertex -5.0301756858825684 -0.57870000600814819 0.78024417161941528
   vertex -5.9222755432128906 0.84109997749328613 -0.73085582256317139
  endloop
 endfacet
 facet normal -0.99330550262409334 -0.11551700505422298 0
  outer loop
   vertex -6.4805755615234375 5.6417999267578125 -2.5692441463470459
   vertex -5.9222755432128906 0.84109997749328613 -2.7335441112518311
   vertex -5.9222755432128906 0.84109997749328613 -0.73085582256317139
  endloop
 endfacet
 facet normal -0.89459048005934216 -0.11878107891018928 0.43081194073531337
  outer loop
   vertex -5.6116418838500977 5.6417999267578125 1.2378041744232178
   vertex -5.9222755432128906 0.84109997749328613 -0.73085582256317139
   vertex -5.0533418655395508 0.84109997749328613 1.0735040903091431
  endloop
 endfacet
 facet normal -0.81358525405776871 -0.40670274796172706 -0.41553809594324292
  outer loop
   vertex -2.5547726154327393 -5.2584724426269531 -3.8773040771484375
   vertex -4.6373014450073242 -2.2611017227172852 -2.7335441112518311
   vertex -4.0228724479675293 -1.6466726064682007 -4.5379042625427246
  endloop
 endfacet
 facet normal -0.63480833255558511 0.26294623287594465 0.7265518973441244
  outer loop
   vertex 1.9149582386016846 0.22830000519752502 9.653803825378418
   vertex 2.945427417755127 2.7160725593566895 9.653803825378418
   vertex -4.0458769798278809 5.6417999267578125 2.4864599704742432
  endloop
 endfacet
 facet normal -0.94108112274126032 -0.33818089895801162 -0
  outer loop
   vertex -4.4541754722595215 -2.7706999778747559 -2.072944164276123
   vertex -4.4541754722595215 -2.7706999778747559 -0.070255756378173828
   vertex -4.6373014450073242 -2.2611017227172852 -0.73085582256317139
  endloop
 endfacet
 facet normal -0.92317416777550731 -0.3823912847586558 -0.039068674057660131
  outer loop
   vertex -4.4541754722595215 -2.7706999778747559 -2.072944164276123
   vertex -5.9222755432128906 0.84109997749328613 -2.7335441112518311
   vertex -4.6373014450073242 -2.2611017227172852 -2.7335441112518311
  endloop
 endfacet
 facet normal -0.6036827349586199 -0.25005364248387602 -0.756994274346528
  outer loop
   vertex -4.0228724479675293 -1.6466726064682007 -4.5379042625427246
   vertex -5.0533418655395508 0.84109997749328613 -4.5379042625427246
   vertex -2.9157094955444336 -0.53950965404510498 -5.78656005859375
  endloop
 endfacet
 facet normal -0.6036827105130308 -0.25005356336597817 -0.75699431997579536
  outer loop
   vertex -5.0533418655395508 0.84109997749328613 -4.5379042625427246
   vertex -3.4875767230987549 0.84109997749328613 -5.78656005859375
   vertex -2.9157094955444336 -0.53950965404510498 -5.78656005859375
  endloop
 endfacet
 facet normal 0.012537115303900583 0.52259572305987578 -0.85248843451356116
  outer loop
   vertex -3.5852415561676025 -2.7706999778747559 1.7341041564941406
   vertex -0.067000001668930054 -0.81822317838668823 2.982759952545166
   vertex 3.0352015495300293 -5.872901439666748 -0.070255756378173828
  endloop
 endfacet
 facet normal 0.47403070469456771 0.54898795405852552 0.68840912058557568
  outer loop
   vertex -0.067000001668930054 0.74754166603088379 1.7341041564941406
   vertex -0.067000001668930054 -0.81822317838668823 2.982759952545166
   vertex 3.0352015495300293 0.33150163292884827 -0.070255756378173828
  endloop
 endfacet
 facet normal -0.70143395360568905 0 -0.71273445877766561
  outer loop
   vertex 3.0352015495300293 -5.872901439666748 -0.070255756378173828
   vertex -0.067000001668930054 -0.81822317838668823 2.982759952545166
   vertex 3.0352015495300293 0.33150163292884827 -0.070255756378173828
  endloop
 endfacet
 facet normal -0.50277754629062277 0 -0.86441583682043932
  outer loop
   vertex 3.0352015495300293 -5.872901439666748 -0.070255756378173828
   vertex -0.067000001668930054 0.74754166603088379 1.7341041564941406
   vertex 3.0352015495300293 0.33150163292884827 -0.070255756378173828
  endloop
 endfacet
 facet normal -0.89993520657158743 -0.11901436073524548 0.41946657305646545
  outer loop
   vertex -5.0533418655395508 0.84109997749328613 1.0735040903091431
   vertex -4.1612415313720703 -0.57870000600814819 2.584604024887085
   vertex -5.6116418838500977 5.6417999267578125 1.2378041744232178
  endloop
 endfacet
 facet normal -0.18374769587313122 0.44360599927440808 -0.87718327712574928
  outer loop
   vertex 2.2692000865936279 4.6385769844055176 -8.0308599472045898
   vertex 0.88859045505523682 4.0667095184326172 -8.0308599472045898
   vertex -2.0934000015258789 7.5942769050598145 -5.6222596168518066
  endloop
 endfacet
 facet normal -0.016986887246923356 0.90083891994362975 0.43382102989188404
  outer loop
   vertex 2.8259000778198242 10.671976089477539 1.6722441911697388
   vertex 5.988800048828125 10.907941818237305 1.3061040639877319
   vertex 5.988800048828125 11.776875495910645 -0.49825584888458252
  endloop
 endfacet
 facet normal -0.10712760433975832 0.5282656104683231 -0.84229396364033982
  outer loop
   vertex 5.988800048828125 9.3421764373779297 -5.553959846496582
   vertex 2.2692000865936279 4.6385769844055176 -8.0308599472045898
   vertex -2.0934000015258789 7.5942769050598145 -5.6222596168518066
  endloop
 endfacet
 facet normal 0.15097693090171216 0.36449037468942996 -0.91888668131291296
  outer loop
   vertex 3.6498095989227295 4.0667095184326172 -8.0308599472045898
   vertex 2.2692000865936279 4.6385769844055176 -8.0308599472045898
   vertex 5.988800048828125 9.3421764373779297 -5.553959846496582
  endloop
 endfacet
 facet normal 0.83724086147702115 -0.45410890796283904 -0.30465199750208971
  outer loop
   vertex 7.9209723472595215 -2.2594726085662842 4.042396068572998
   vertex 6.1208014488220215 -4.4019017219543457 2.2886557579040527
   vertex 9.0910015106201172 4.2874984741210938 -2.5009441375732422
  endloop
 endfacet
 facet normal 0.99700398670200985 -0.077350180997193568 0
  outer loop
   vertex 9.8203754425048828 0.22830000519752502 7.8494443893432617
   vertex 9.8203754425048828 0.22830000519752502 5.8467559814453125
   vertex 10.375975608825684 7.3896999359130859 -0.49825584888458252
  endloop
 endfacet
 facet normal 0.81105451129577177 0.43547144831856299 0.39058315043804687
  outer loop
   vertex 9.5070419311523438 7.3896999359130859 1.3061040639877319
   vertex 8.5354013442993164 3.3305015563964844 7.8494443893432617
   vertex 10.375975608825684 7.3896999359130859 -0.49825584888458252
  endloop
 endfacet
 facet normal 0.86079749771311365 0.35655403754602033 0.36317610912678905
  outer loop
   vertex 8.5354013442993164 3.3305015563964844 7.8494443893432617
   vertex 9.8203754425048828 0.22830000519752502 7.8494443893432617
   vertex 10.375975608825684 7.3896999359130859 -0.49825584888458252
  endloop
 endfacet
 facet normal 0.62143715065684035 -0.08107717578646613 -0.77925756932480184
  outer loop
   vertex 5.7874417304992676 2.6861000061035156 -6.7822041511535645
   vertex 4.2216768264770508 2.6861000061035156 -8.0308599472045898
   vertex 7.941277027130127 7.3896999359130859 -5.553959846496582
  endloop
 endfacet
 facet normal 0.80681282644636998 -0.41833415944346386 -0.41719251446346695
  outer loop
   vertex 9.0910015106201172 4.2874984741210938 -2.5009441375732422
   vertex 5.3714017868041992 -0.4161016047000885 -4.97784423828125
   vertex 8.4765729904174805 4.9019274711608887 -4.3053040504455566
  endloop
 endfacet
 facet normal 0.84410375841159913 -0.34963917244230736 -0.40649882426554618
  outer loop
   vertex 9.5070419311523438 7.3896999359130859 -4.3053040504455566
   vertex 10.375975608825684 7.3896999359130859 -2.5009441375732422
   vertex 8.4765729904174805 4.9019274711608887 -4.3053040504455566
  endloop
 endfacet
 facet normal 0.92387951360929355 0.38268347799853508 -0
  outer loop
   vertex 10.375975608825684 7.3896999359130859 -0.49825584888458252
   vertex 10.375975608825684 7.3896999359130859 -2.5009441375732422
   vertex 9.0910015106201172 10.491901397705078 -0.49825584888458252
  endloop
 endfacet
 facet normal 0.39504097654110443 0.16363141075922852 -0.90397311257934831
  outer loop
   vertex 7.941277027130127 7.3896999359130859 -5.553959846496582
   vertex 3.6498095989227295 4.0667095184326172 -8.0308599472045898
   vertex 7.3694095611572266 8.7703094482421875 -5.553959846496582
  endloop
 endfacet
 facet normal 0.25005346405168793 0.60368267031401412 -0.75699438483934101
  outer loop
   vertex 8.4765729904174805 9.8774728775024414 -4.3053040504455566
   vertex 7.3694095611572266 8.7703094482421875 -5.553959846496582
   vertex 5.988800048828125 10.907941818237305 -4.3053040504455566
  endloop
 endfacet
 facet normal 0.25005346405608758 0.60368267031537359 -0.7569943848368037
  outer loop
   vertex 5.988800048828125 10.907941818237305 -4.3053040504455566
   vertex 7.3694095611572266 8.7703094482421875 -5.553959846496582
   vertex 5.988800048828125 9.3421764373779297 -5.553959846496582
  endloop
 endfacet
 facet normal 0.60368255435332008 0.25005362452391089 -0.75699442430701269
  outer loop
   vertex 8.4765729904174805 9.8774728775024414 -4.3053040504455566
   vertex 7.941277027130127 7.3896999359130859 -5.553959846496582
   vertex 7.3694095611572266 8.7703094482421875 -5.553959846496582
  endloop
 endfacet
 facet normal 0.60368277566666528 0.25005350769016993 -0.75699428640857858
  outer loop
   vertex 8.4765729904174805 9.8774728775024414 -4.3053040504455566
   vertex 9.5070419311523438 7.3896999359130859 -4.3053040504455566
   vertex 7.941277027130127 7.3896999359130859 -5.553959846496582
  endloop
 endfacet
 facet normal -0.13682011792776444 0.67785117762179703 0.72235589312123383
  outer loop
   vertex 2.945427417755127 2.7160725593566895 9.653803825378418
   vertex 1.4452904462814331 7.6654095649719238 4.7252597808837891
   vertex 0.33812752366065979 8.7725725173950195 3.4766039848327637
  endloop
 endfacet
 facet normal -0.18778083053546851 0.88494154173014683 -0.42616525832554725
  outer loop
   vertex 5.988800048828125 11.776875495910645 -2.5009441375732422
   vertex 5.988800048828125 10.907941818237305 -4.3053040504455566
   vertex -2.0934000015258789 10.028975486755371 -2.5692441463470459
  endloop
 endfacet
 facet normal -0.31310087723389141 0.85566790114531477 0.41206829970884601
  outer loop
   vertex 0.25999999046325684 9.3947420120239258 2.3748040199279785
   vertex 2.8259000778198242 9.8030414581298828 3.4766039848327637
   vertex 2.8259000778198242 10.671976089477539 1.6722441911697388
  endloop
 endfacet
 facet normal 0.34963911361872085 0.844103778190189 -0.40649883379041024
  outer loop
   vertex 5.988800048828125 11.776875495910645 -2.5009441375732422
   vertex 8.4765729904174805 9.8774728775024414 -4.3053040504455566
   vertex 5.988800048828125 10.907941818237305 -4.3053040504455566
  endloop
 endfacet
 facet normal 0.34963929422192741 0.84410380812334806 -0.40649861629242279
  outer loop
   vertex 9.0910015106201172 10.491901397705078 -2.5009441375732422
   vertex 8.4765729904174805 9.8774728775024414 -4.3053040504455566
   vertex 5.988800048828125 11.776875495910645 -2.5009441375732422
  endloop
 endfacet
 facet normal 0.20944607746542407 0.71362626354226155 0.66848328073113272
  outer loop
   vertex 4.9390997886657715 7.3123416900634766 5.4734039306640625
   vertex 5.988800048828125 10.907941818237305 1.3061040639877319
   vertex 2.8259000778198242 9.8030414581298828 3.4766039848327637
  endloop
 endfacet
 facet normal -0.60368275820000172 0.25005361616450544 0.75699426450607443
  outer loop
   vertex -5.6116418838500977 5.6417999267578125 1.2378041744232178
   vertex -4.0458769798278809 5.6417999267578125 2.4864599704742432
   vertex -4.5811724662780762 8.129572868347168 1.2378041744232178
  endloop
 endfacet
 facet normal -0.33547797868658463 0.80991563637629016 0.4811353112894049
  outer loop
   vertex 2.8259000778198242 9.8030414581298828 3.4766039848327637
   vertex 0.25999999046325684 9.3947420120239258 2.3748040199279785
   vertex 0.33812752366065979 8.7725725173950195 3.4766039848327637
  endloop
 endfacet
 facet normal -0.47369142636812345 0.50024659248083558 0.72482396435041085
  outer loop
   vertex -3.4740095138549805 7.0224094390869141 2.4864599704742432
   vertex 2.945427417755127 2.7160725593566895 9.653803825378418
   vertex -2.2277724742889404 8.3642730712890625 2.3748040199279785
  endloop
 endfacet
 facet normal -0.58874295387491271 0.32917077957275315 0.73826034170752286
  outer loop
   vertex 1.9149582386016846 0.22830000519752502 9.653803825378418
   vertex -4.0458769798278809 5.6417999267578125 2.4864599704742432
   vertex -5.6116418838500977 5.6417999267578125 1.2378041744232178
  endloop
 endfacet
 facet normal -0.76529235929903572 -0.069110506141746172 0.63996198538612226
  outer loop
   vertex -0.24214175343513489 -0.13240000605583191 7.035304069519043
   vertex 1.9149582386016846 0.22830000519752502 9.653803825378418
   vertex -5.6116418838500977 5.6417999267578125 1.2378041744232178
  endloop
 endfacet
 facet normal -0.18778083769828666 0.88494151848341651 -0.42616530344174536
  outer loop
   vertex -2.0934000015258789 10.028975486755371 -2.5692441463470459
   vertex 5.988800048828125 10.907941818237305 -4.3053040504455566
   vertex -2.0934000015258789 9.1600418090820313 -4.3736038208007813
  endloop
 endfacet
 facet normal -0.49772078328496289 -0.02821445973909744 -0.86687828796655986
  outer loop
   vertex 0.31672325730323792 2.6861000061035156 -8.0308599472045898
   vertex -3.4875767230987549 0.84109997749328613 -5.78656005859375
   vertex -4.0458769798278809 5.6417999267578125 -5.6222596168518066
  endloop
 endfacet
 facet normal -0.25005364259924617 0.6036825979910182 -0.7569943835364058
  outer loop
   vertex -3.4740095138549805 7.0224094390869141 -5.6222596168518066
   vertex -4.5811724662780762 8.129572868347168 -4.3736038208007813
   vertex -2.0934000015258789 7.5942769050598145 -5.6222596168518066
  endloop
 endfacet
 facet normal -0.2646776944471807 0.63898842740811745 0.72224615450732987
  outer loop
   vertex 2.945427417755127 2.7160725593566895 9.653803825378418
   vertex 5.4331998825073242 3.7465417385101318 9.653803825378418
   vertex 2.8259000778198242 8.2372770309448242 4.7252597808837891
  endloop
 endfacet
 facet normal -0.39067483430087191 0.16182281863824358 -0.90619343917949458
  outer loop
   vertex 0.88859045505523682 4.0667095184326172 -8.0308599472045898
   vertex 0.31672325730323792 2.6861000061035156 -8.0308599472045898
   vertex -4.0458769798278809 5.6417999267578125 -5.6222596168518066
  endloop
 endfacet
 facet normal -0.32794803131046929 0.79173670346828573 0.51536693834661074
  outer loop
   vertex -2.0934000015258789 9.1600418090820313 1.2378041744232178
   vertex -4.5811724662780762 8.129572868347168 1.2378041744232178
   vertex -2.2277724742889404 8.3642730712890625 2.3748040199279785
  endloop
 endfacet
 facet normal -0.28688599003700693 0.86309644906928762 0.41564521929702636
  outer loop
   vertex -2.0934000015258789 10.028975486755371 -0.56655573844909668
   vertex -2.0934000015258789 9.1600418090820313 1.2378041744232178
   vertex 0.25999999046325684 10.263675689697266 0.57044416666030884
  endloop
 endfacet
 facet normal -0.3150431925476308 0.81668159690967246 0.48350693490214158
  outer loop
   vertex 0.25999999046325684 9.3947420120239258 2.3748040199279785
   vertex -2.0934000015258789 9.1600418090820313 1.2378041744232178
   vertex 0.33812752366065979 8.7725725173950195 3.4766039848327637
  endloop
 endfacet
 facet normal -0.34460230362457389 0.78774046946703169 0.51060180679321676
  outer loop
   vertex -2.0934000015258789 9.1600418090820313 1.2378041744232178
   vertex -2.2277724742889404 8.3642730712890625 2.3748040199279785
   vertex 0.33812752366065979 8.7725725173950195 3.4766039848327637
  endloop
 endfacet
 facet normal -0.12719078082077473 0.61842585720318921 -0.77548176278794745
  outer loop
   vertex 5.988800048828125 10.907941818237305 -4.3053040504455566
   vertex 5.988800048828125 9.3421764373779297 -5.553959846496582
   vertex -2.0934000015258789 9.1600418090820313 -4.3736038208007813
  endloop
 endfacet
 facet normal -0.34963917244230736 0.84410375841159913 0.40649882426554618
  outer loop
   vertex -4.5811724662780762 8.129572868347168 1.2378041744232178
   vertex -2.0934000015258789 9.1600418090820313 1.2378041744232178
   vertex -2.0934000015258789 10.028975486755371 -0.56655573844909668
  endloop
 endfacet
 facet normal -0.34963916480824558 0.84410373998134092 -0.40649886910261568
  outer loop
   vertex -4.5811724662780762 8.129572868347168 -4.3736038208007813
   vertex -2.0934000015258789 10.028975486755371 -2.5692441463470459
   vertex -2.0934000015258789 9.1600418090820313 -4.3736038208007813
  endloop
 endfacet
 facet normal -0.34963927345539608 0.84410375798851356 -0.40649873826034405
  outer loop
   vertex -5.1956014633178711 8.7440013885498047 -2.5692441463470459
   vertex -2.0934000015258789 10.028975486755371 -2.5692441463470459
   vertex -4.5811724662780762 8.129572868347168 -4.3736038208007813
  endloop
 endfacet
 facet normal -0.18374770803719201 0.44360599033769715 -0.8771832790971279
  outer loop
   vertex -2.0934000015258789 7.5942769050598145 -5.6222596168518066
   vertex 0.88859045505523682 4.0667095184326172 -8.0308599472045898
   vertex -3.4740095138549805 7.0224094390869141 -5.6222596168518066
  endloop
 endfacet
 facet normal -0.38268347799853508 0.92387951360929355 0
  outer loop
   vertex -5.1956014633178711 8.7440013885498047 -0.56655573844909668
   vertex -2.0934000015258789 10.028975486755371 -2.5692441463470459
   vertex -5.1956014633178711 8.7440013885498047 -2.5692441463470459
  endloop
 endfacet
 facet normal -0.84410373044043763 0.34963925563143533 0.40649881079534883
  outer loop
   vertex -5.6116418838500977 5.6417999267578125 1.2378041744232178
   vertex -4.5811724662780762 8.129572868347168 1.2378041744232178
   vertex -6.4805755615234375 5.6417999267578125 -0.56655573844909668
  endloop
 endfacet
 facet normal -0.8441037315817066 0.34963926251733696 0.40649880250275144
  outer loop
   vertex -4.5811724662780762 8.129572868347168 1.2378041744232178
   vertex -5.1956014633178711 8.7440013885498047 -0.56655573844909668
   vertex -6.4805755615234375 5.6417999267578125 -0.56655573844909668
  endloop
 endfacet
 facet normal -0.74859024062618662 -0.031150061464049091 0.66230078160154227
  outer loop
   vertex -4.1612415313720703 -0.57870000600814819 2.584604024887085
   vertex -0.24214175343513489 -0.13240000605583191 7.035304069519043
   vertex -5.6116418838500977 5.6417999267578125 1.2378041744232178
  endloop
 endfacet
 facet normal -0.99330550262409334 -0.11551700505422298 -0
  outer loop
   vertex -5.9222755432128906 0.84109997749328613 -0.73085582256317139
   vertex -6.4805755615234375 5.6417999267578125 -0.56655573844909668
   vertex -6.4805755615234375 5.6417999267578125 -2.5692441463470459
  endloop
 endfacet
 facet normal -0.60368275820000172 0.25005361616450544 -0.75699426450607443
  outer loop
   vertex -5.6116418838500977 5.6417999267578125 -4.3736038208007813
   vertex -4.5811724662780762 8.129572868347168 -4.3736038208007813
   vertex -4.0458769798278809 5.6417999267578125 -5.6222596168518066
  endloop
 endfacet
 facet normal -0.6036826597039977 0.25005366816161184 -0.75699432587809401
  outer loop
   vertex -4.5811724662780762 8.129572868347168 -4.3736038208007813
   vertex -3.4740095138549805 7.0224094390869141 -5.6222596168518066
   vertex -4.0458769798278809 5.6417999267578125 -5.6222596168518066
  endloop
 endfacet
 facet normal -0.84410371201018131 0.34963924799737223 -0.40649885563241739
  outer loop
   vertex -6.4805755615234375 5.6417999267578125 -2.5692441463470459
   vertex -4.5811724662780762 8.129572868347168 -4.3736038208007813
   vertex -5.6116418838500977 5.6417999267578125 -4.3736038208007813
  endloop
 endfacet
 facet normal -0.84410371315145094 0.34963925488327408 -0.4064988473398195
  outer loop
   vertex -6.4805755615234375 5.6417999267578125 -2.5692441463470459
   vertex -5.1956014633178711 8.7440013885498047 -2.5692441463470459
   vertex -4.5811724662780762 8.129572868347168 -4.3736038208007813
  endloop
 endfacet
 facet normal -0.89734764763645924 -0.089567909277212976 -0.43213977936429526
  outer loop
   vertex -5.6116418838500977 5.6417999267578125 -4.3736038208007813
   vertex -5.9222755432128906 0.84109997749328613 -2.7335441112518311
   vertex -6.4805755615234375 5.6417999267578125 -2.5692441463470459
  endloop
 endfacet
 facet normal -0.6228382662076225 -0.045703665777902171 -0.78101451272171918
  outer loop
   vertex -5.0533418655395508 0.84109997749328613 -4.5379042625427246
   vertex -5.6116418838500977 5.6417999267578125 -4.3736038208007813
   vertex -4.0458769798278809 5.6417999267578125 -5.6222596168518066
  endloop
 endfacet
 facet normal -0.6228382075924811 -0.04570368833882444 -0.78101455814550158
  outer loop
   vertex -4.0458769798278809 5.6417999267578125 -5.6222596168518066
   vertex -3.4875767230987549 0.84109997749328613 -5.78656005859375
   vertex -5.0533418655395508 0.84109997749328613 -4.5379042625427246
  endloop
 endfacet
 facet normal -0.28688598482668481 0.86309644510773609 0.41564523111953511
  outer loop
   vertex -2.0934000015258789 9.1600418090820313 1.2378041744232178
   vertex 0.25999999046325684 9.3947420120239258 2.3748040199279785
   vertex 0.25999999046325684 10.263675689697266 0.57044416666030884
  endloop
 endfacet
 facet normal -0.31310105239176833 0.85566803123272228 0.41206789648974612
  outer loop
   vertex 0.25999999046325684 10.263675689697266 0.57044416666030884
   vertex 0.25999999046325684 9.3947420120239258 2.3748040199279785
   vertex 2.8259000778198242 10.671976089477539 1.6722441911697388
  endloop
 endfacet
 facet normal -0.3496392810894553 0.84410377641876022 0.40649869342328332
  outer loop
   vertex -5.1956014633178711 8.7440013885498047 -0.56655573844909668
   vertex -4.5811724662780762 8.129572868347168 1.2378041744232178
   vertex -2.0934000015258789 10.028975486755371 -0.56655573844909668
  endloop
 endfacet
 facet normal -0.38268347799853508 0.92387951360929355 0
  outer loop
   vertex -5.1956014633178711 8.7440013885498047 -0.56655573844909668
   vertex -2.0934000015258789 10.028975486755371 -0.56655573844909668
   vertex -2.0934000015258789 10.028975486755371 -2.5692441463470459
  endloop
 endfacet
 facet normal -0.25005355262170526 0.60368276843173807 -0.75699427733626645
  outer loop
   vertex -4.5811724662780762 8.129572868347168 -4.3736038208007813
   vertex -2.0934000015258789 9.1600418090820313 -4.3736038208007813
   vertex -2.0934000015258789 7.5942769050598145 -5.6222596168518066
  endloop
 endfacet
 facet normal -0.92387951360929355 0.38268347799853508 0
  outer loop
   vertex -6.4805755615234375 5.6417999267578125 -2.5692441463470459
   vertex -6.4805755615234375 5.6417999267578125 -0.56655573844909668
   vertex -5.1956014633178711 8.7440013885498047 -2.5692441463470459
  endloop
 endfacet
 facet normal -0.92387951360929355 0.38268347799853508 0
  outer loop
   vertex -5.1956014633178711 8.7440013885498047 -0.56655573844909668
   vertex -5.1956014633178711 8.7440013885498047 -2.5692441463470459
   vertex -6.4805755615234375 5.6417999267578125 -0.56655573844909668
  endloop
 endfacet
 facet normal -0.2500535878347353 0.60368287513901975 0.7569941806083208
  outer loop
   vertex 2.8259000778198242 8.2372770309448242 4.7252597808837891
   vertex 2.8259000778198242 9.8030414581298828 3.4766039848327637
   vertex 0.33812752366065979 8.7725725173950195 3.4766039848327637
  endloop
 endfacet
 facet normal -0.37458974435592141 0.57809401602944621 0.72490677473335274
  outer loop
   vertex 2.8259000778198242 8.2372770309448242 4.7252597808837891
   vertex 5.4331998825073242 3.7465417385101318 9.653803825378418
   vertex 2.8259000778198242 9.8030414581298828 3.4766039848327637
  endloop
 endfacet
 facet normal 0.31082751032150729 0.74095945213847203 0.59528593895202064
  outer loop
   vertex 5.4331998825073242 3.7465417385101318 9.653803825378418
   vertex 4.9390997886657715 7.3123416900634766 5.4734039306640625
   vertex 2.8259000778198242 9.8030414581298828 3.4766039848327637
  endloop
 endfacet
 facet normal -0.016986825108945353 0.90083872356446937 0.43382144011039325
  outer loop
   vertex 2.8259000778198242 9.8030414581298828 3.4766039848327637
   vertex 5.988800048828125 10.907941818237305 1.3061040639877319
   vertex 2.8259000778198242 10.671976089477539 1.6722441911697388
  endloop
 endfacet
endsolid
